<?xml version="1.0" standalone="no"?>
<!DOCTYPE svg PUBLIC "-//W3C//DTD SVG 1.1//EN" "http://www.w3.org/Graphics/SVG/1.1/DTD/svg11.dtd" >
<svg xmlns="http://www.w3.org/2000/svg" version="1.1">
<metadata>
Created by FontForge 20170731 at Fri Dec 15 16:11:45 2017
 By Aleksey,,,
Copyright (c) 2017 by Ericsson. All rights reserved.
</metadata>
<defs>
<font id="EricssonHilda-Bold" horiz-adv-x="560" >
  <font-face
    font-family="Ericsson Hilda"
    font-weight="700"
    font-stretch="normal"
    units-per-em="1000"
    panose-1="0 0 8 0 0 0 0 0 0 0"
    ascent="750"
    descent="-250"
    x-height="507"
    cap-height="700"
    bbox="-659 -241 1169 936"
    underline-thickness="74"
    underline-position="-204"
    unicode-range="U+0020-FB02"
  />
<missing-glyph
d="M478 -100h-396v860h396v-860zM426 -50v760h-292v-760h292z" />
    <glyph glyph-name="fi" unicode="fi" horiz-adv-x="616"
d="M232 618.5q-18 -17.5 -18 -59.5v-52h112v-97h-112v-410h-110v410h-76v97h76v70q0 82 42 122.5t116 40.5q48 0 74 -13v-99q-19 8 -50 8q-36 0 -54 -17.5zM428 507h110v-507h-110v507zM434.5 612q-20.5 20 -20.5 48t20.5 48t48.5 20q29 0 49 -20t20 -48t-20 -48t-49 -20
q-28 0 -48.5 20z" />
    <glyph glyph-name="fl" unicode="fl" horiz-adv-x="616"
d="M232 618.5q-18 -17.5 -18 -59.5v-52h112v-97h-112v-410h-110v410h-76v97h76v70q0 82 42 122.5t116 40.5q48 0 74 -13v-99q-19 8 -50 8q-36 0 -54 -17.5zM428 730h110v-730h-110v730z" />
    <glyph glyph-name=".notdef"
d="M478 -100h-396v860h396v-860zM426 -50v760h-292v-760h292z" />
    <glyph glyph-name=".null" horiz-adv-x="0"
 />
    <glyph glyph-name="nonmarkingreturn" horiz-adv-x="333"
 />
    <glyph glyph-name="space" unicode=" " horiz-adv-x="213"
 />
    <glyph glyph-name="exclam" unicode="!" horiz-adv-x="321"
d="M104 700h114v-485h-114v485zM108 11.5q-22 21.5 -22 52.5t22 52.5t53 21.5t52.5 -21.5t21.5 -52.5t-21.5 -52.5t-52.5 -21.5t-53 21.5z" />
    <glyph glyph-name="quotedbl" unicode="&#x22;" horiz-adv-x="381"
d="M43 700h109v-235h-109v235zM229 700h109v-235h-109v235z" />
    <glyph glyph-name="numbersign" unicode="#"
d="M437 410l-34 -120h94v-79h-117l-60 -211h-83l60 211h-113l-60 -211h-83l60 211h-94v79h117l34 120h-94v78h116l61 212h83l-61 -212h113l61 212h83l-61 -212h94v-78h-116zM354 410h-113l-34 -120h113z" />
    <glyph glyph-name="dollar" unicode="$"
d="M462 54q-53 -53 -145 -64v-100h-67v97q-61 3 -115.5 20t-84.5 40v108q38 -28 89 -46t111 -21v224l-8 3q-63 22 -102 45.5t-61.5 61t-22.5 93.5q0 81 53 132t141 63v80h67v-77q97 -5 156 -41v-105q-68 41 -156 44v-206l16 -6q88 -33 135 -78t47 -128q0 -86 -53 -139z
M183.5 468q20.5 -19 66.5 -38v178q-43 -7 -65 -30t-22 -58q0 -33 20.5 -52zM384 126q22 25 22 63q0 36 -21.5 58.5t-67.5 40.5v-196q45 9 67 34z" />
    <glyph glyph-name="percent" unicode="%" horiz-adv-x="838"
d="M125.5 410.5q-37.5 20.5 -58.5 57t-21 83.5t21 83.5t58.5 57t83.5 20.5t83 -20.5t58 -57t21 -83.5t-21 -83.5t-58 -57t-83 -20.5t-83.5 20.5zM613 700h98l-485 -700h-98zM265.5 490.5q21.5 24.5 21.5 60.5t-21.5 60.5t-57.5 24.5t-57 -24t-21 -61t21 -61t57 -24
t57.5 24.5zM546.5 7.5q-37.5 20.5 -58.5 57t-21 83.5t21 83.5t58.5 57t83.5 20.5t83 -20.5t58 -57t21 -83.5t-21 -83.5t-58 -57t-83 -20.5t-83.5 20.5zM686.5 87.5q21.5 24.5 21.5 60.5t-21.5 60.5t-57.5 24.5t-57 -24t-21 -61t21 -61t57 -24t57.5 24.5z" />
    <glyph glyph-name="ampersand" unicode="&#x26;" horiz-adv-x="660"
d="M535 0l-58 61q-86 -74 -213 -74q-73 0 -125 24t-79 66.5t-27 96.5q0 69 40 115.5t110 85.5q-37 44 -55.5 85t-18.5 85q0 46 23 83.5t67 60t105 22.5q86 0 139.5 -43t53.5 -120q0 -65 -40 -109.5t-110 -83.5l122 -131q20 40 34 91h114q-24 -99 -71 -173l134 -142h-145z
M240 599q-22 -20 -22 -54q0 -27 16 -55t48 -65q53 28 79.5 54.5t26.5 64.5t-24 56.5t-63 18.5t-61 -20zM407 135l-159 168q-48 -27 -74.5 -56t-26.5 -68q0 -46 34 -72t91 -26q78 0 135 54z" />
    <glyph glyph-name="quotesingle" unicode="'" horiz-adv-x="195"
d="M43 700h109v-235h-109v235z" />
    <glyph glyph-name="parenleft" unicode="(" horiz-adv-x="371"
d="M120.5 78.5q-39.5 110.5 -39.5 225.5t39.5 225.5t114.5 200.5h123q-80 -91 -123.5 -201t-43.5 -225t43.5 -225t123.5 -201h-123q-75 90 -114.5 200.5z" />
    <glyph glyph-name="parenright" unicode=")" horiz-adv-x="371"
d="M136.5 79q43.5 110 43.5 225t-43.5 225t-123.5 201h123q75 -90 114.5 -200.5t39.5 -225.5t-39.5 -225.5t-114.5 -200.5h-123q80 91 123.5 201z" />
    <glyph glyph-name="asterisk" unicode="*" horiz-adv-x="411"
d="M181 518l-107 -69l-31 54l114 57l-114 58l31 54l107 -69l-7 127h63l-7 -128l107 70l31 -54l-113 -58l113 -57l-31 -54l-107 70l7 -128h-63z" />
    <glyph glyph-name="plus" unicode="+"
d="M489 302h-161v-164h-96v164h-161v90h161v164h96v-164h161v-90z" />
    <glyph glyph-name="comma" unicode="," horiz-adv-x="235"
d="M78 99h111l-72 -215h-103z" />
    <glyph glyph-name="hyphen" unicode="-" horiz-adv-x="387"
d="M41 364h305v-107h-305v107z" />
    <glyph glyph-name="period" unicode="." horiz-adv-x="235"
d="M64.5 11.5q-21.5 21.5 -21.5 52.5t21.5 52.5t52.5 21.5t53 -21.5t22 -52.5t-22 -52.5t-53 -21.5t-52.5 21.5z" />
    <glyph glyph-name="slash" unicode="/" horiz-adv-x="458"
d="M326 750h111l-305 -842h-111z" />
    <glyph glyph-name="zero" unicode="0"
d="M460.5 620.5q57.5 -92.5 57.5 -248.5v-44q0 -156 -57.5 -248.5t-180.5 -92.5t-180.5 92.5t-57.5 248.5v44q0 156 57.5 248.5t180.5 92.5t180.5 -92.5zM152 329q0 -27 1 -40l236 236q-31 87 -109 87q-70 0 -99 -64t-29 -177v-42zM408 371q0 27 -1 40l-236 -236
q31 -87 109 -87q70 0 99 64t29 177v42z" />
    <glyph glyph-name="one" unicode="1"
d="M528 92v-92h-443v92h170v480l-162 -48v103l220 74h52v-609h163z" />
    <glyph glyph-name="two" unicode="2"
d="M501 103v-103h-452v44q0 74 36 132t122 127l56 45q68 55 96.5 91.5t28.5 76.5q0 43 -32.5 67t-91.5 24q-98 0 -186 -69v112q28 25 77.5 44t116.5 19q110 0 168 -54.5t58 -142.5q0 -61 -35.5 -113.5t-127.5 -128.5l-49 -40q-52 -42 -77 -71.5t-35 -59.5h327z" />
    <glyph glyph-name="three" unicode="3"
d="M450 365q56 -54 56 -147q0 -67 -31.5 -119.5t-89 -82t-133.5 -29.5q-55 0 -106 12t-91 37v112q42 -28 93 -41.5t103 -13.5q69 0 107 35.5t38 87.5q0 50 -34 80t-97 30q-48 0 -74 -13l-49 70l201 214h-277v103h406v-99l-167 -177q89 -5 145 -59z" />
    <glyph glyph-name="four" unicode="4"
d="M542 243v-103h-97v-140h-110v140h-309v98l257 462h162v-457h97zM335 243v348l-194 -348h194z" />
    <glyph glyph-name="five" unicode="5"
d="M401.5 410.5q51.5 -25.5 81 -74t29.5 -115.5q0 -68 -31.5 -121.5t-90 -83t-137.5 -29.5q-50 0 -101.5 12.5t-90.5 36.5v112q40 -27 92.5 -41t98.5 -14q75 0 112.5 35.5t37.5 90.5q0 51 -33 81.5t-98 30.5q-32 0 -59 -7.5t-44 -17.5l-89 31l44 363h360v-103h-268l-21 -175
q44 14 91 14q65 0 116.5 -25.5z" />
    <glyph glyph-name="six" unicode="6"
d="M467 399q56 -59 56 -167q0 -66 -26 -122t-78.5 -89.5t-128.5 -33.5q-115 0 -178.5 68.5t-63.5 182.5v30q0 90 37.5 174t92.5 149.5t111 108.5h159q-82 -63 -145 -127t-101 -139q48 24 102 24q107 0 163 -59zM382 126.5q31 36.5 31 99.5q0 130 -126 130q-35 0 -68 -13
t-58 -38q-3 -21 -3 -42v-20q0 -71 33.5 -112t98.5 -41q61 0 92 36.5z" />
    <glyph glyph-name="seven" unicode="7"
d="M514 700v-101q-94 -123 -159.5 -281t-86.5 -318h-125q14 137 82.5 301.5t161.5 295.5h-332v103h459z" />
    <glyph glyph-name="eight" unicode="8"
d="M499.5 298.5q25.5 -45.5 25.5 -100.5q0 -61 -28 -108.5t-83.5 -75t-133.5 -27.5t-133.5 27.5t-83.5 75t-28 108.5q0 55 25.5 100.5t74.5 72.5q-37 26 -56 63.5t-19 82.5q0 55 26.5 99.5t76 70.5t117.5 26t117.5 -26t76 -70.5t26.5 -99.5q0 -45 -19 -82.5t-56 -63.5
q49 -27 74.5 -72.5zM198.5 587q-28.5 -28 -28.5 -71t28.5 -71.5t81.5 -28.5t81.5 28.5t28.5 71.5t-28 71t-82 28q-53 0 -81.5 -28zM380 117q35 32 35 84q0 54 -34 86t-101 32q-65 0 -100 -33t-35 -85t35 -84t100 -32t100 32z" />
    <glyph glyph-name="nine" unicode="9"
d="M401.5 681.5q53.5 -31.5 82 -88.5t28.5 -131v-30q0 -90 -37.5 -174t-92.5 -149.5t-111 -108.5h-155q81 62 143.5 126.5t99.5 139.5q-46 -24 -106 -24q-64 0 -112.5 27t-76 77.5t-27.5 119.5q0 68 26 124t79 89.5t131 33.5q75 0 128.5 -31.5zM341 357q34 13 58 38
q3 21 3 42v20q0 71 -33.5 112t-98.5 41q-61 0 -92 -36.5t-31 -100.5q0 -65 32 -97t91 -32q37 0 71 13z" />
    <glyph glyph-name="colon" unicode=":" horiz-adv-x="275"
d="M84.5 11.5q-21.5 21.5 -21.5 52.5t21.5 52.5t52.5 21.5t53 -21.5t22 -52.5t-22 -52.5t-53 -21.5t-52.5 21.5zM84.5 375.5q-21.5 21.5 -21.5 52.5t21.5 52.5t52.5 21.5t53 -21.5t22 -52.5t-22 -52.5t-53 -21.5t-52.5 21.5z" />
    <glyph glyph-name="semicolon" unicode=";" horiz-adv-x="275"
d="M80 99h111l-72 -215h-103zM84.5 375.5q-21.5 21.5 -21.5 52.5t21.5 52.5t52.5 21.5t53 -21.5t22 -52.5t-22 -52.5t-53 -21.5t-52.5 21.5z" />
    <glyph glyph-name="less" unicode="&#x3c;"
d="M489 438l-298 -96l298 -95v-99l-418 150v89l418 150v-99z" />
    <glyph glyph-name="equal" unicode="="
d="M71 303h418v-90h-418v90zM71 481h418v-90h-418v90z" />
    <glyph glyph-name="greater" unicode="&#x3e;"
d="M489 387v-89l-418 -150v99l298 95l-298 96v99z" />
    <glyph glyph-name="question" unicode="?" horiz-adv-x="461"
d="M144 306q17 37 62 83l31 33q34 35 50 60t16 52q0 37 -29 54t-76 17q-89 0 -152 -42v110q23 18 67.5 29t86.5 11q100 0 162.5 -41.5t62.5 -125.5q0 -52 -23.5 -91.5t-80.5 -98.5l-44 -46q-33 -33 -37 -95h-113q0 54 17 91zM128.5 11.5q-21.5 21.5 -21.5 52.5t21.5 52.5
t52.5 21.5t53 -21.5t22 -52.5t-22 -52.5t-53 -21.5t-52.5 21.5z" />
    <glyph glyph-name="at" unicode="@" horiz-adv-x="974"
d="M661 232q-7 -37 -7 -63q0 -84 71 -84q33 0 59.5 23.5t42 68.5t15.5 106q0 101 -42.5 173t-119.5 109.5t-179 37.5q-103 0 -187 -50t-132.5 -137t-48.5 -193q0 -101 43 -180.5t125.5 -124t197.5 -44.5q63 0 122.5 13.5t105.5 43.5v-76q-44 -29 -103.5 -41.5t-123.5 -12.5
q-137 0 -238 53.5t-155 149.5t-54 221q0 126 57.5 229t160 162.5t231.5 59.5q126 0 221.5 -50t147 -139t51.5 -203q0 -81 -26.5 -142.5t-73 -95t-104.5 -33.5q-60 0 -93.5 24t-45.5 58q-24 -39 -63 -60.5t-88 -21.5q-73 0 -117 48.5t-44 133.5q0 66 26 126t77 98t121 38
q36 0 64 -12t46 -33l6 30h98zM535 159q32 63 49 168q-8 20 -32 35t-57 15q-40 0 -69.5 -26t-44.5 -67.5t-15 -88.5t21.5 -73t57.5 -26q58 0 90 63z" />
    <glyph glyph-name="A" unicode="A" horiz-adv-x="674"
d="M479 177h-287l-60 -177h-119l244 700h160l244 -700h-122zM441 287l-105 311l-106 -311h211z" />
    <glyph glyph-name="B" unicode="B" horiz-adv-x="646"
d="M572.5 301.5q25.5 -42.5 25.5 -98.5q0 -61 -28 -107t-78 -71t-114 -25h-292v700h283q61 0 109 -23.5t75 -67t27 -100.5q0 -46 -20.5 -81.5t-58.5 -58.5q46 -25 71.5 -67.5zM200 590v-175h167q48 0 73.5 24.5t25.5 63.5q0 38 -25.5 62.5t-73.5 24.5h-167zM456.5 137.5
q28.5 27.5 28.5 70.5t-28.5 70t-80.5 27h-176v-195h176q52 0 80.5 27.5z" />
    <glyph glyph-name="C" unicode="C" horiz-adv-x="608"
d="M220 160q52 -63 160 -63q91 0 170 42v-112q-27 -18 -73 -29t-99 -11q-108 0 -181 45t-108.5 122t-35.5 173v46q0 96 35.5 173t108.5 122t181 45q53 0 99 -11t73 -29v-112q-79 42 -170 42q-108 0 -160 -63t-52 -170v-40q0 -107 52 -170z" />
    <glyph glyph-name="D" unicode="D" horiz-adv-x="679"
d="M489.5 657.5q68.5 -42.5 102.5 -117.5t34 -172v-36q0 -97 -34 -172t-102.5 -117.5t-168.5 -42.5h-235v700h235q100 0 168.5 -42.5zM511 367q0 101 -47.5 162t-142.5 61h-121v-482h121q95 0 142.5 61.5t47.5 163.5v34z" />
    <glyph glyph-name="E" unicode="E" horiz-adv-x="599"
d="M543 110v-110h-457v700h455v-110h-341v-173h309v-110h-309v-197h343z" />
    <glyph glyph-name="F" unicode="F" horiz-adv-x="574"
d="M86 700h449v-110h-335v-183h302v-110h-302v-297h-114v700z" />
    <glyph glyph-name="G" unicode="G" horiz-adv-x="690"
d="M622 390v-318q-40 -40 -103.5 -62.5t-137.5 -22.5q-106 0 -180 45t-111 122t-37 173v46q0 95 38.5 172.5t114 122.5t181.5 45q62 0 115.5 -15.5t84.5 -37.5v-113q-43 25 -94 40.5t-105 15.5q-107 0 -163.5 -64t-56.5 -169v-40q0 -106 53.5 -169.5t156.5 -63.5
q74 0 131 30v153h-156v110h269z" />
    <glyph glyph-name="H" unicode="H" horiz-adv-x="690"
d="M604 700v-700h-114v307h-290v-307h-114v700h114v-283h290v283h114z" />
    <glyph glyph-name="I" unicode="I" horiz-adv-x="412"
d="M263 603v-506h94v-97h-302v97h94v506h-94v97h302v-97h-94z" />
    <glyph glyph-name="J" unicode="J" horiz-adv-x="461"
d="M383 206q0 -102 -57 -158t-167 -56q-38 0 -75 6t-64 17v116q29 -14 65 -21.5t73 -7.5q60 0 85.5 29.5t25.5 91.5v477h114v-494z" />
    <glyph glyph-name="K" unicode="K" horiz-adv-x="654"
d="M511 0l-311 333v-333h-114v700h114v-315l293 315h149l-318 -337l340 -363h-153z" />
    <glyph glyph-name="L" unicode="L" horiz-adv-x="549"
d="M86 700h114v-590h317v-110h-431v700z" />
    <glyph glyph-name="M" unicode="M" horiz-adv-x="835"
d="M749 700v-700h-114v549l-178 -405h-83l-178 406v-550h-110v700h150l182 -418l182 418h149z" />
    <glyph glyph-name="N" unicode="N" horiz-adv-x="708"
d="M621 700v-700h-121l-304 522v-522h-110v700h125l300 -515v515h110z" />
    <glyph glyph-name="O" unicode="O" horiz-adv-x="715"
d="M526.5 669q68.5 -44 102.5 -122t34 -179v-36q0 -101 -34 -179t-102.5 -122t-168.5 -44t-168.5 44t-102.5 122t-34 179v36q0 101 34 179t102.5 122t168.5 44t168.5 -44zM500 538.5q-47 64.5 -142 64.5t-142.5 -64.5t-47.5 -171.5v-34q0 -106 47.5 -171t142.5 -65t142 64.5
t47 171.5v34q0 107 -47 171.5z" />
    <glyph glyph-name="P" unicode="P" horiz-adv-x="616"
d="M473.5 673q52.5 -27 82 -76.5t29.5 -115.5t-29.5 -115.5t-82 -76.5t-119.5 -27h-154v-262h-114v700h268q67 0 119.5 -27zM440 402.5q31 30.5 31 78.5t-31 78.5t-88 30.5h-152v-218h152q57 0 88 30.5z" />
    <glyph glyph-name="Q" unicode="Q" horiz-adv-x="715"
d="M632 160.5q-31 -75.5 -92 -119.5l112 -133h-137l-73 88q-39 -9 -84 -9q-100 0 -168.5 44t-102.5 122t-34 179v36q0 101 34 179t102.5 122t168.5 44t168.5 -44t102.5 -122t34 -179v-36q0 -96 -31 -171.5zM547 367q0 107 -47 171.5t-142 64.5t-142.5 -64.5t-47.5 -171.5
v-34q0 -106 47.5 -171t142.5 -65t142 64.5t47 171.5v34z" />
    <glyph glyph-name="R" unicode="R" horiz-adv-x="660"
d="M287 277h-87v-277h-114v700h274q67 0 119.5 -26t82 -74.5t29.5 -111.5q0 -80 -46.5 -134.5t-124.5 -70.5l228 -283h-141zM200 387h158q57 0 88 28t31 73t-31 73.5t-88 28.5h-158v-203z" />
    <glyph glyph-name="S" unicode="S" horiz-adv-x="576"
d="M144 4.5q-64 17.5 -98 42.5v114q105 -66 230 -66q71 0 107.5 25t36.5 69q0 40 -27.5 63t-89.5 44l-54 19q-67 24 -107.5 47t-64 60t-23.5 93q0 61 32.5 106t89.5 68.5t129 23.5q118 0 184 -40v-112q-82 44 -186 44q-64 0 -99.5 -21.5t-35.5 -64.5q0 -38 28.5 -58.5
t94.5 -43.5l51 -18q92 -32 142 -77t50 -129q0 -64 -32.5 -110.5t-90.5 -71t-133 -24.5q-70 0 -134 17.5z" />
    <glyph glyph-name="T" unicode="T" horiz-adv-x="597"
d="M242 -1v591h-212v110h537v-110h-211v-591h-114z" />
    <glyph glyph-name="U" unicode="U" horiz-adv-x="677"
d="M144.5 58q-65.5 71 -65.5 187v455h115v-453q0 -70 34.5 -111t109.5 -41q76 0 110.5 41t34.5 111v453h115v-455q0 -116 -65.5 -187t-194.5 -71q-128 0 -193.5 71z" />
    <glyph glyph-name="V" unicode="V" horiz-adv-x="671"
d="M656 700l-247 -700h-146l-247 700h123l198 -574l198 574h121z" />
    <glyph glyph-name="W" unicode="W" horiz-adv-x="998"
d="M966 700l-177 -700h-152l-139 532l-139 -532h-149l-178 700h120l139 -584l150 584h118l150 -584l139 584h118z" />
    <glyph glyph-name="X" unicode="X" horiz-adv-x="671"
d="M513 0l-178 275l-178 -275h-131l235 358l-225 342h131l168 -259l168 259h131l-223 -342l233 -358h-131z" />
    <glyph glyph-name="Y" unicode="Y" horiz-adv-x="615"
d="M364 304v-304h-113v304l-240 396h129l169 -281l168 281h127z" />
    <glyph glyph-name="Z" unicode="Z" horiz-adv-x="623"
d="M53 105l376 485h-351v110h492v-105l-377 -485h377v-110h-517v105z" />
    <glyph glyph-name="bracketleft" unicode="[" horiz-adv-x="367"
d="M91 730h236v-87h-127v-696h127v-87h-236v870z" />
    <glyph glyph-name="backslash" unicode="\" horiz-adv-x="458"
d="M326 -92l-305 842h111l305 -842h-111z" />
    <glyph glyph-name="bracketright" unicode="]" horiz-adv-x="367"
d="M40 -53h127v696h-127v87h235v-870h-235v87z" />
    <glyph glyph-name="asciicircum" unicode="^"
d="M432 290l-152 312l-152 -312h-98l200 410h100l200 -410h-98z" />
    <glyph glyph-name="underscore" unicode="_" horiz-adv-x="496"
d="M-5 -93h506v-74h-506v74z" />
    <glyph glyph-name="grave" unicode="`" horiz-adv-x="293"
d="M43 730h122l85 -132h-108z" />
    <glyph glyph-name="a" unicode="a" horiz-adv-x="570"
d="M492 507v-507h-101v52q-24 -29 -59 -45t-79 -16q-68 0 -116 33t-73 89t-25 125v31q0 69 25 125t73 89t116 33q44 0 79 -16t59 -45v52h101zM382 158v191q-39 60 -114 60q-58 0 -87.5 -39t-29.5 -104v-25q0 -65 29.5 -104t87.5 -39q75 0 114 60z" />
    <glyph glyph-name="b" unicode="b" horiz-adv-x="570"
d="M433 483q48 -33 73 -89t25 -125v-31q0 -69 -25 -125t-73 -89t-116 -33q-44 0 -79.5 16.5t-59.5 45.5v-53h-101v730h110v-266q24 25 57 38.5t73 13.5q68 0 116 -33zM419 266q0 65 -29.5 104t-87.5 39q-76 0 -115 -62v-187q39 -62 115 -62q58 0 87.5 39t29.5 104v25z" />
    <glyph glyph-name="c" unicode="c" horiz-adv-x="452"
d="M148 21q-54 33 -81.5 90t-27.5 127v31q0 70 27.5 127t81.5 90t130 33q38 0 73 -8t55 -20v-107q-25 13 -56.5 21t-62.5 8q-70 0 -103 -39.5t-33 -107.5v-25q0 -68 33 -107.5t103 -39.5q31 0 62.5 8t56.5 21v-107q-20 -12 -55 -20t-73 -8q-76 0 -130 33z" />
    <glyph glyph-name="d" unicode="d" horiz-adv-x="570"
d="M493 730v-730h-101v53q-24 -29 -59.5 -45.5t-79.5 -16.5q-68 0 -116 33t-73 89t-25 125v31q0 69 25 125t73 89t116 33q40 0 73 -13.5t57 -38.5v266h110zM383 160v187q-39 62 -115 62q-58 0 -87.5 -39t-29.5 -104v-25q0 -65 29.5 -104t87.5 -39q76 0 115 62z" />
    <glyph glyph-name="e" unicode="e" horiz-adv-x="517"
d="M475 218h-325q12 -124 154 -124q77 0 140 38v-106q-22 -17 -61.5 -27.5t-83.5 -10.5q-121 0 -190.5 67t-69.5 183v31q0 72 26.5 129t77.5 89.5t120 32.5q102 0 157 -61t55 -170v-71zM186.5 390q-27.5 -29 -34.5 -82h215q-6 111 -106 111q-47 0 -74.5 -29z" />
    <glyph glyph-name="f" unicode="f" horiz-adv-x="351"
d="M232 618.5q-18 -17.5 -18 -59.5v-52h112v-97h-112v-410h-110v410h-76v97h76v70q0 82 42 122.5t116 40.5q48 0 74 -13v-99q-19 8 -50 8q-36 0 -54 -17.5z" />
    <glyph glyph-name="g" unicode="g" horiz-adv-x="564"
d="M489 507v-486q0 -94 -58 -154t-175 -60q-47 0 -93 10.5t-74 27.5v107q33 -19 75.5 -28.5t85.5 -9.5q65 0 97 26t32 87v24q-50 -48 -128 -48q-67 0 -115 32t-72.5 87.5t-24.5 123.5v27q0 68 24.5 123t72.5 87.5t115 32.5q43 0 78 -15.5t59 -42.5v49h101zM379 168v183
q-39 58 -113 58q-58 0 -86.5 -38t-28.5 -101v-21q0 -64 28.5 -101.5t86.5 -37.5q74 0 113 58z" />
    <glyph glyph-name="h" unicode="h" horiz-adv-x="570"
d="M458 471.5q45 -46.5 45 -126.5v-345h-110v318q0 47 -19.5 70.5t-65.5 23.5q-33 0 -64.5 -14t-56.5 -41v-357h-110v730h110v-265q27 24 64 38.5t80 14.5q82 0 127 -46.5z" />
    <glyph glyph-name="i" unicode="i" horiz-adv-x="265"
d="M77 507h110v-507h-110v507zM83.5 612q-20.5 20 -20.5 48t20.5 48t48.5 20q29 0 49 -20t20 -48t-20 -48t-49 -20q-28 0 -48.5 20z" />
    <glyph glyph-name="j" unicode="j" horiz-adv-x="265"
d="M187 507v-531q0 -87 -41.5 -128t-115.5 -41q-49 0 -76 11v100q18 -9 51 -9q37 0 54.5 18t17.5 62v518h110zM83.5 612q-20.5 20 -20.5 48t20.5 48t48.5 20q29 0 49 -20t20 -48t-20 -48t-49 -20q-28 0 -48.5 20z" />
    <glyph glyph-name="k" unicode="k" horiz-adv-x="529"
d="M387 0l-200 251v-251h-110v730h110v-441l189 218h138l-208 -233l222 -274h-141z" />
    <glyph glyph-name="l" unicode="l" horiz-adv-x="265"
d="M77 730h110v-730h-110v730z" />
    <glyph glyph-name="m" unicode="m" horiz-adv-x="846"
d="M736 471.5q43 -46.5 43 -126.5v-345h-110v318q0 47 -17 70.5t-58 23.5q-30 0 -59 -13.5t-52 -39.5v-14v-345h-110v318q0 47 -17 70.5t-58 23.5q-30 0 -59.5 -13.5t-51.5 -39.5v-359h-110v507h101v-49q26 27 62.5 43.5t80.5 16.5q46 0 80 -17t54 -48q31 28 72 46.5
t89 18.5q77 0 120 -46.5z" />
    <glyph glyph-name="n" unicode="n" horiz-adv-x="570"
d="M458 471.5q45 -46.5 45 -126.5v-345h-110v318q0 47 -19.5 70.5t-65.5 23.5q-33 0 -64.5 -14t-56.5 -41v-357h-110v507h101v-51q27 28 66.5 45t86.5 17q82 0 127 -46.5z" />
    <glyph glyph-name="o" unicode="o" horiz-adv-x="551"
d="M146.5 20q-53.5 33 -80.5 90t-27 128v31q0 71 27 128t80.5 90t128.5 33q76 0 129 -33t80 -90t27 -128v-31q0 -71 -27 -128t-80 -90t-129 -33q-75 0 -128.5 33zM368 132q31 41 31 109v25q0 68 -31 109t-93 41t-93 -41t-31 -109v-25q0 -68 31 -109t93 -41t93 41z" />
    <glyph glyph-name="p" unicode="p" horiz-adv-x="570"
d="M433 483q48 -33 73 -89t25 -125v-31q0 -69 -25 -125t-73 -89t-116 -33q-40 0 -73 13.5t-57 38.5v-223h-110v687h101v-53q24 29 59.5 45.5t79.5 16.5q68 0 116 -33zM419 266q0 65 -29.5 104t-87.5 39q-76 0 -115 -62v-187q39 -62 115 -62q58 0 87.5 39t29.5 104v25z" />
    <glyph glyph-name="q" unicode="q" horiz-adv-x="570"
d="M493 507v-687h-110v223q-24 -25 -57 -38.5t-73 -13.5q-68 0 -116 33t-73 89t-25 125v31q0 69 25 125t73 89t116 33q44 0 79.5 -16.5t59.5 -45.5v53h101zM383 160v187q-39 62 -115 62q-58 0 -87.5 -39t-29.5 -104v-25q0 -65 29.5 -104t87.5 -39q76 0 115 62z" />
    <glyph glyph-name="r" unicode="r" horiz-adv-x="370"
d="M252.5 490q44.5 21 94.5 22v-114q-47 -3 -90.5 -22.5t-69.5 -60.5v-315h-110v507h101v-76q30 38 74.5 59z" />
    <glyph glyph-name="s" unicode="s" horiz-adv-x="441"
d="M117 0.5q-45 12.5 -71 31.5v107q82 -50 169 -50q43 0 63 14t20 38q0 22 -15 34.5t-50 24.5l-41 15q-75 26 -109.5 58.5t-34.5 91.5q0 71 52 112.5t141 41.5q40 0 76 -7.5t59 -20.5v-107q-64 34 -138 34q-39 0 -59.5 -13t-20.5 -36q0 -20 15.5 -31t53.5 -24l39 -14
q72 -24 107 -57.5t35 -96.5q0 -72 -50.5 -115t-143.5 -43q-52 0 -97 12.5z" />
    <glyph glyph-name="t" unicode="t" horiz-adv-x="364"
d="M214 410v-250q0 -34 15 -47.5t47 -13.5q26 0 50 8v-100q-32 -15 -76 -15q-73 0 -109.5 35t-36.5 102v281h-76v97h76v123l110 37v-160h112v-97h-112z" />
    <glyph glyph-name="u" unicode="u" horiz-adv-x="564"
d="M487 507v-507h-101v50q-27 -27 -65.5 -44t-84.5 -17q-80 0 -124.5 46.5t-44.5 126.5v345h110v-318q0 -47 18.5 -70.5t63.5 -23.5q32 0 63 14t55 41v357h110z" />
    <glyph glyph-name="v" unicode="v" horiz-adv-x="537"
d="M517 507l-176 -507h-145l-177 507h118l132 -401l132 401h116z" />
    <glyph glyph-name="w" unicode="w" horiz-adv-x="817"
d="M785 507l-132 -507h-142l-102 345l-103 -345h-143l-132 507h120l93 -387l113 387h105l114 -388l93 388h116z" />
    <glyph glyph-name="x" unicode="x" horiz-adv-x="555"
d="M398 0l-121 183l-121 -183h-129l177 260l-168 247h129l112 -171l112 171h130l-167 -247l176 -260h-130z" />
    <glyph glyph-name="y" unicode="y" horiz-adv-x="523"
d="M504 507l-176 -489q-28 -77 -54.5 -121.5t-63.5 -66.5t-93 -22q-45 0 -68 10v103q19 -8 51 -8q39 0 65 19t42 61l-188 514h118l126 -355l124 355h117z" />
    <glyph glyph-name="z" unicode="z" horiz-adv-x="496"
d="M47 95l264 315h-251v97h389v-95l-265 -315h265v-97h-402v95z" />
    <glyph glyph-name="braceleft" unicode="{" horiz-adv-x="395"
d="M206 340.5q-22 -34.5 -75 -44.5v-2q53 -10 75 -44.5t22 -91.5v-134q0 -34 8.5 -51t25.5 -22.5t47 -5.5h46v-85h-88q-78 0 -113 34.5t-35 122.5v125q0 42 -6 64t-24.5 32t-55.5 10v94q37 0 55.5 10t24.5 32t6 64v125q0 88 35 122.5t113 34.5h88v-85h-46q-30 0 -47 -5.5
t-25.5 -22.5t-8.5 -51v-134q0 -57 -22 -91.5z" />
    <glyph glyph-name="bar" unicode="|" horiz-adv-x="363"
d="M129 790h105v-900h-105v900z" />
    <glyph glyph-name="braceright" unicode="}" horiz-adv-x="395"
d="M281.5 384q6.5 -22 25 -32t55.5 -10v-94q-37 0 -55.5 -10t-25 -32t-6.5 -64v-125q0 -88 -34.5 -122.5t-112.5 -34.5h-88v85h46q30 0 47 5.5t25.5 22.5t8.5 51v134q0 57 22 91.5t75 44.5v2q-53 10 -75 44.5t-22 91.5v134q0 34 -8.5 51t-25.5 22.5t-47 5.5h-46v85h88
q78 0 112.5 -34.5t34.5 -122.5v-125q0 -42 6.5 -64z" />
    <glyph glyph-name="asciitilde" unicode="~"
d="M78 375q34 46 99 46q29 0 55 -11.5t61 -33.5q33 -19 51.5 -27.5t36.5 -8.5q29 0 43.5 20.5t17.5 60.5h76q-2 -72 -36 -118t-99 -46q-29 0 -55 11.5t-61 33.5q-33 19 -51 27.5t-37 8.5q-55 0 -61 -81h-76q2 72 36 118z" />
    <glyph glyph-name="uni00A0" unicode="&#xa0;" horiz-adv-x="213"
 />
    <glyph glyph-name="exclamdown" unicode="&#xa1;" horiz-adv-x="321"
d="M217 -191h-114v485h114v-485zM213 497.5q22 -21.5 22 -52.5t-22 -52.5t-53 -21.5t-52.5 21.5t-21.5 52.5t21.5 52.5t52.5 21.5t53 -21.5z" />
    <glyph glyph-name="cent" unicode="&#xa2;"
d="M354 412v-317q55 3 102 28v-107q-17 -10 -44 -17.5t-58 -9.5v-99h-67v101q-95 13 -146.5 81t-51.5 166v31q0 98 51.5 166t146.5 81v85h67v-83q31 -2 58 -9.5t44 -17.5v-107q-47 25 -102 28zM222 150.5q21 -36.5 65 -49.5v305q-44 -13 -65 -49.5t-21 -90.5v-25
q0 -54 21 -90.5z" />
    <glyph glyph-name="sterling" unicode="&#xa3;"
d="M503 103v-103h-436v74q37 25 67 65t30 97q0 22 -7 50h-90v86h56q-17 37 -26 68t-9 65q0 57 27 104.5t80 75.5t127 28q57 0 102 -15t66 -35v-103q-33 24 -74.5 38t-86.5 14q-67 0 -98.5 -30.5t-31.5 -81.5q0 -27 7.5 -50t22.5 -59l8 -19h177v-86h-150q4 -17 4 -43
q0 -83 -52 -140h287z" />
    <glyph glyph-name="currency" unicode="&#xa4;"
d="M461 182l66 -66l-49 -49l-66 65q-59 -43 -133 -43t-133 43l-65 -65l-49 49l65 65q-43 61 -43 134q0 74 43 133l-65 65l49 49l65 -65q58 44 133 44q74 0 134 -44l65 65l49 -49l-65 -65q43 -61 43 -133q0 -75 -44 -133zM160.5 245q18.5 -32 50 -50.5t68.5 -18.5t68.5 18.5
t50 50.5t18.5 70q0 37 -18.5 69t-50 50.5t-68.5 18.5t-68.5 -18.5t-50 -50.5t-18.5 -69q0 -38 18.5 -70z" />
    <glyph glyph-name="yen" unicode="&#xa5;"
d="M365 394h126v-77h-156v-72h156v-77h-156v-168h-110v168h-155v77h155v72h-155v77h125l-180 306h120l144 -251l144 251h122z" />
    <glyph glyph-name="brokenbar" unicode="&#xa6;" horiz-adv-x="363"
d="M129 790h105v-400h-105v400zM129 290h105v-400h-105v400z" />
    <glyph glyph-name="section" unicode="&#xa7;" horiz-adv-x="577"
d="M458 111q0 -71 -52.5 -112.5t-140.5 -41.5q-37 0 -70.5 7.5t-54.5 20.5v98q57 -32 127 -32q39 0 60.5 14.5t21.5 38.5q0 20 -16 32.5t-54 25.5l-47 17q-75 25 -110.5 59t-35.5 99q0 41 18.5 73.5t52.5 53.5q-38 35 -38 92q0 71 52 112.5t141 41.5q37 0 70.5 -7.5
t54.5 -20.5v-98q-57 32 -127 32q-39 0 -60.5 -14.5t-21.5 -37.5q0 -20 16 -33t54 -26l47 -16q75 -26 110.5 -60t35.5 -99q0 -41 -18.5 -73.5t-52.5 -53.5q38 -35 38 -92zM310 259q38 6 56 24t18 43q0 23 -16.5 38t-55.5 28l-45 16q-38 -6 -56 -24t-18 -43q0 -23 16.5 -38
t55.5 -28z" />
    <glyph glyph-name="dieresis" unicode="&#xa8;" horiz-adv-x="421"
d="M63 614.5q-20 19.5 -20 46.5t20 46.5t47 19.5q28 0 48 -19.5t20 -46.5q0 -28 -20 -47t-48 -19q-27 0 -47 19.5zM263 614.5q-20 19.5 -20 46.5t20 46.5t47 19.5q28 0 48 -19.5t20 -46.5q0 -28 -20 -47t-48 -19q-27 0 -47 19.5z" />
    <glyph glyph-name="copyright" unicode="&#xa9;" horiz-adv-x="833"
d="M232 34.5q-83 47.5 -131 130.5t-48 185t48 185t131 130.5t184 47.5q102 0 185 -47.5t131 -130.5t48 -185t-48 -185t-131 -130.5t-185 -47.5q-101 0 -184 47.5zM572.5 81q69.5 41 109.5 112t40 157t-40 157t-109.5 112t-156.5 41q-86 0 -156 -41t-109.5 -112t-39.5 -157
t39.5 -157t109.5 -112t156 -41q87 0 156.5 41zM321 159.5q-50 28.5 -76.5 78t-26.5 112.5t26.5 112.5t76.5 78t117 28.5q61 0 101 -24v-75q-45 26 -101 26q-65 0 -103 -39.5t-38 -106.5t38 -106.5t103 -39.5q59 0 101 26v-76q-41 -23 -101 -23q-67 0 -117 28.5z" />
    <glyph glyph-name="ordfeminine" unicode="&#xaa;" horiz-adv-x="417"
d="M367 730v-370h-84v36q-37 -43 -98 -43q-75 0 -116.5 52t-41.5 130v20q0 78 41.5 130t116.5 52q61 0 98 -43v36h84zM275 483v124q-26 40 -76 40q-40 0 -59 -25.5t-19 -68.5v-16q0 -43 19 -68.5t59 -25.5q50 0 76 40z" />
    <glyph glyph-name="guillemotleft" unicode="&#xab;" horiz-adv-x="563"
d="M51 258v9l159 192h105l-162 -197l162 -197h-105zM248 258v9l159 192h104l-162 -197l162 -197h-104z" />
    <glyph glyph-name="logicalnot" unicode="&#xac;"
d="M489 138h-96v164h-322v90h418v-254z" />
    <glyph glyph-name="uni00AD" unicode="&#xad;" horiz-adv-x="387"
d="M41 364h305v-107h-305v107z" />
    <glyph glyph-name="registered" unicode="&#xae;" horiz-adv-x="565"
d="M169.5 297q-50.5 29 -79.5 79.5t-29 112.5q0 63 29 113.5t79.5 79.5t112.5 29t113 -29t80 -79.5t29 -113.5q0 -62 -29 -112.5t-80 -79.5t-113 -29t-112.5 29zM375 328.5q41 24.5 64.5 66.5t23.5 94q0 53 -23.5 95.5t-64.5 66.5t-93 24t-93 -24t-64 -66.5t-23 -95.5
q0 -52 23 -94.5t64 -66.5t93 -24t93 24.5zM197 615h98q35 0 57.5 -21.5t22.5 -54.5q0 -48 -49 -67l63 -99h-49l-57 94h-42v-94h-44v242zM286 503q46 0 46 36q0 37 -46 37h-45v-73h45z" />
    <glyph glyph-name="macron" unicode="&#xaf;" horiz-adv-x="364"
d="M43 697h278v-86h-278v86z" />
    <glyph glyph-name="degree" unicode="&#xb0;" horiz-adv-x="360"
d="M111.5 493q-31.5 18 -50 48.5t-18.5 67.5t18.5 68t49.5 48.5t69 17.5t69 -17.5t49.5 -48.5t18.5 -68t-18.5 -67.5t-50 -48.5t-68.5 -18t-68.5 18zM231.5 557q20.5 21 20.5 52q0 32 -20.5 53t-51.5 21t-51.5 -21t-20.5 -53t20.5 -52.5t51.5 -20.5t51.5 21z" />
    <glyph glyph-name="plusminus" unicode="&#xb1;"
d="M489 302h-161v-164h-96v164h-161v90h161v164h96v-164h161v-90zM71 94h418v-90h-418v90z" />
    <glyph glyph-name="uni00B2" unicode="&#xb2;" horiz-adv-x="363"
d="M152 486.5q-13 -13.5 -20 -26.5h190v-77h-289v28q0 46 21.5 82t76.5 79l34 27q42 34 57.5 51t15.5 40q0 20 -18 31t-50 11q-65 0 -116 -44v85q17 16 47.5 28t77.5 12q68 0 105.5 -35t37.5 -86q0 -40 -21 -71.5t-79 -76.5l-31 -24q-26 -20 -39 -33.5z" />
    <glyph glyph-name="uni00B3" unicode="&#xb3;" horiz-adv-x="363"
d="M294.5 598q31.5 -32 31.5 -85q0 -61 -45 -100.5t-118 -39.5q-75 0 -126 30v84q53 -33 124 -33q38 0 59.5 16.5t21.5 41.5q0 23 -18.5 37t-52.5 14q-30 0 -47 -7l-38 53l117 117h-162v77h263v-75l-93 -92q52 -6 83.5 -38z" />
    <glyph glyph-name="acute" unicode="&#xb4;" horiz-adv-x="293"
d="M128 730h122l-99 -132h-108z" />
    <glyph glyph-name="uni00B5" unicode="&#xb5;" horiz-adv-x="577"
d="M556 99v-99q-32 -6 -52 -6q-75 0 -98 62q-28 -32 -65 -49.5t-76 -17.5q-50 0 -78 25v-194h-110v687h110v-323q0 -48 19.5 -68.5t60.5 -20.5q35 0 66 13.5t54 39.5v359h110v-358q0 -29 8.5 -40.5t28.5 -11.5q10 0 22 2z" />
    <glyph glyph-name="paragraph" unicode="&#xb6;" horiz-adv-x="668"
d="M582 -140h-91v753h-106v-753h-92v402h-30q-67 0 -119.5 27t-82 76.5t-29.5 115.5t29.5 115.5t82 76.5t119.5 27h319v-840z" />
    <glyph glyph-name="periodcentered" unicode="&#xb7;" horiz-adv-x="235"
d="M64.5 285.5q-21.5 21.5 -21.5 52.5t21.5 52.5t52.5 21.5t53 -21.5t22 -52.5t-22 -52.5t-53 -21.5t-52.5 21.5z" />
    <glyph glyph-name="cedilla" unicode="&#xb8;" horiz-adv-x="326"
d="M254 -78.5q29 -22.5 29 -64.5q0 -48 -35 -73t-88 -25q-75 0 -117 34l26 55q39 -27 89 -27q24 0 38.5 9.5t14.5 26.5q0 33 -63 33q-18 0 -30 -3l-24 32l46 96l65 -15l-26 -53q46 -3 75 -25.5z" />
    <glyph glyph-name="uni00B9" unicode="&#xb9;" horiz-adv-x="363"
d="M345 451v-68h-290v68h105v254l-100 -27v78l142 46h42v-351h101z" />
    <glyph glyph-name="ordmasculine" unicode="&#xba;" horiz-adv-x="407"
d="M73 401.5q-46 52.5 -46 133.5v20q0 81 46 133.5t130 52.5t130 -52.5t46 -133.5v-20q0 -81 -46 -133.5t-130 -52.5t-130 52.5zM265 464q20 27 20 73v16q0 46 -20 73t-62 27q-41 0 -61.5 -27t-20.5 -73v-16q0 -46 20.5 -73t61.5 -27q42 0 62 27z" />
    <glyph glyph-name="guillemotright" unicode="&#xbb;" horiz-adv-x="563"
d="M213 262l-162 197h105l159 -192v-9l-159 -193h-105zM410 262l-162 197h104l159 -192v-9l-159 -193h-104z" />
    <glyph glyph-name="onequarter" unicode="&#xbc;" horiz-adv-x="932"
d="M345 351v-68h-290v68h105v254l-100 -27v78l142 46h42v-351h101zM686 700h98l-485 -700h-98zM921 155v-78h-58v-77h-83v77h-194v74l153 269h124v-265h58zM780 155v189l-108 -189h108z" />
    <glyph glyph-name="onehalf" unicode="&#xbd;" horiz-adv-x="985"
d="M345 351v-68h-290v68h105v254l-100 -27v78l142 46h42v-351h101zM686 700h98l-485 -700h-98zM774 103.5q-13 -13.5 -20 -26.5h190v-77h-289v28q0 46 21.5 82t76.5 79l34 27q42 34 57.5 51t15.5 40q0 20 -18 31t-50 11q-65 0 -116 -44v85q17 16 47.5 28t77.5 12
q68 0 105.5 -35t37.5 -86q0 -40 -21 -71.5t-79 -76.5l-31 -24q-26 -20 -39 -33.5z" />
    <glyph glyph-name="threequarters" unicode="&#xbe;" horiz-adv-x="903"
d="M294.5 498q31.5 -32 31.5 -85q0 -61 -45 -100.5t-118 -39.5q-75 0 -126 30v84q53 -33 124 -33q38 0 59.5 16.5t21.5 41.5q0 23 -18.5 37t-52.5 14q-30 0 -47 -7l-38 53l117 117h-162v77h263v-75l-93 -92q52 -6 83.5 -38zM657 700h98l-485 -700h-98zM892 155v-78h-58v-77
h-83v77h-194v74l153 269h124v-265h58zM751 155v189l-108 -189h108z" />
    <glyph glyph-name="questiondown" unicode="&#xbf;" horiz-adv-x="415"
d="M317 202q-17 -37 -62 -83l-31 -33q-34 -35 -50 -60t-16 -52q0 -37 29 -54t76 -17q89 0 152 42v-110q-23 -18 -67.5 -29t-86.5 -11q-100 0 -162.5 41.5t-62.5 125.5q0 52 23.5 91.5t80.5 98.5l44 46q33 33 37 95h113q0 -54 -17 -91zM332.5 496.5q21.5 -21.5 21.5 -52.5
t-21.5 -52.5t-52.5 -21.5t-53 21.5t-22 52.5t22 52.5t53 21.5t52.5 -21.5z" />
    <glyph glyph-name="Agrave" unicode="&#xc0;" horiz-adv-x="674"
d="M479 177h-287l-60 -177h-119l244 700h160l244 -700h-122zM441 287l-105 311l-106 -311h211zM195 893h122l85 -132h-108z" />
    <glyph glyph-name="Aacute" unicode="&#xc1;" horiz-adv-x="674"
d="M479 177h-287l-60 -177h-119l244 700h160l244 -700h-122zM441 287l-105 311l-106 -311h211zM357 893h122l-99 -132h-108z" />
    <glyph glyph-name="Acircumflex" unicode="&#xc2;" horiz-adv-x="674"
d="M479 177h-287l-60 -177h-119l244 700h160l244 -700h-122zM441 287l-105 311l-106 -311h211zM399 761l-63 77l-62 -77h-97l87 132h145l87 -132h-97z" />
    <glyph glyph-name="Atilde" unicode="&#xc3;" horiz-adv-x="674"
d="M479 177h-287l-60 -177h-119l244 700h160l244 -700h-122zM441 287l-105 311l-106 -311h211zM270 878q32 0 67 -21l23 -14q26 -16 41 -16q13 0 18.5 13.5t6.5 37.5h68q-3 -125 -92 -125q-32 0 -66 21l-23 14q-26 16 -41 16q-24 0 -26 -51h-67q3 125 91 125z" />
    <glyph glyph-name="Adieresis" unicode="&#xc4;" horiz-adv-x="674"
d="M479 177h-287l-60 -177h-119l244 700h160l244 -700h-122zM441 287l-105 311l-106 -311h211zM178 774.5q-20 19.5 -20 46.5t20 46.5t47 19.5q28 0 48 -19.5t20 -46.5q0 -28 -20 -47t-48 -19q-27 0 -47 19.5zM401 774q-20 19 -20 47q0 27 20 46.5t48 19.5q27 0 47 -19.5
t20 -46.5t-20 -46.5t-47 -19.5q-28 0 -48 19z" />
    <glyph glyph-name="Aring" unicode="&#xc5;" horiz-adv-x="674"
d="M479 177h-287l-60 -177h-119l244 700h160l244 -700h-122zM441 287l-105 311l-106 -311h211zM248 701.5q-36 35.5 -36 84.5t36 84.5t89 35.5t89.5 -35.5t36.5 -84.5t-36.5 -84.5t-89.5 -35.5t-89 35.5zM382.5 741.5q17.5 17.5 17.5 44.5t-17.5 44.5t-45.5 17.5
t-45.5 -17.5t-17.5 -44.5q0 -26 17.5 -44t45.5 -18t45.5 17.5z" />
    <glyph glyph-name="AE" unicode="&#xc6;" horiz-adv-x="961"
d="M905 110v-110h-457v177h-230l-96 -177h-132l386 700h527v-110h-341v-173h309v-110h-309v-197h343zM448 287v316l-171 -316h171z" />
    <glyph glyph-name="Ccedilla" unicode="&#xc7;" horiz-adv-x="608"
d="M220 540q-52 -63 -52 -170v-40q0 -107 52 -170t160 -63q91 0 170 42v-112q-27 -18 -73 -29t-99 -11h-3l-20 -40q46 -3 75 -25.5t29 -64.5q0 -48 -35 -73t-88 -25q-75 0 -117 34l26 55q39 -27 89 -27q24 0 38.5 9.5t14.5 26.5q0 33 -63 33q-18 0 -30 -3l-24 32l35 74
q-124 22 -188 113t-64 221v46q0 96 35.5 173t108.5 122t181 45q53 0 99 -11t73 -29v-112q-79 42 -170 42q-108 0 -160 -63z" />
    <glyph glyph-name="Egrave" unicode="&#xc8;" horiz-adv-x="599"
d="M543 110v-110h-457v700h455v-110h-341v-173h309v-110h-309v-197h343zM175 893h122l85 -132h-108z" />
    <glyph glyph-name="Eacute" unicode="&#xc9;" horiz-adv-x="599"
d="M543 110v-110h-457v700h455v-110h-341v-173h309v-110h-309v-197h343zM337 893h122l-99 -132h-108z" />
    <glyph glyph-name="Ecircumflex" unicode="&#xca;" horiz-adv-x="599"
d="M543 110v-110h-457v700h455v-110h-341v-173h309v-110h-309v-197h343zM379 761l-63 77l-62 -77h-97l87 132h145l87 -132h-97z" />
    <glyph glyph-name="Edieresis" unicode="&#xcb;" horiz-adv-x="599"
d="M543 110v-110h-457v700h455v-110h-341v-173h309v-110h-309v-197h343zM158 774.5q-20 19.5 -20 46.5t20 46.5t47 19.5q28 0 48 -19.5t20 -46.5q0 -28 -20 -47t-48 -19q-27 0 -47 19.5zM381 774q-20 19 -20 47q0 27 20 46.5t48 19.5q27 0 47 -19.5t20 -46.5t-20 -46.5
t-47 -19.5q-28 0 -48 19z" />
    <glyph glyph-name="Igrave" unicode="&#xcc;" horiz-adv-x="412"
d="M263 603v-506h94v-97h-302v97h94v506h-94v97h302v-97h-94zM64 893h122l85 -132h-108z" />
    <glyph glyph-name="Iacute" unicode="&#xcd;" horiz-adv-x="412"
d="M263 603v-506h94v-97h-302v97h94v506h-94v97h302v-97h-94zM226 893h122l-99 -132h-108z" />
    <glyph glyph-name="Icircumflex" unicode="&#xce;" horiz-adv-x="412"
d="M263 603v-506h94v-97h-302v97h94v506h-94v97h302v-97h-94zM268 761l-63 77l-62 -77h-97l87 132h145l87 -132h-97z" />
    <glyph glyph-name="Idieresis" unicode="&#xcf;" horiz-adv-x="412"
d="M263 603v-506h94v-97h-302v97h94v506h-94v97h302v-97h-94zM47 774.5q-20 19.5 -20 46.5t20 46.5t47 19.5q28 0 48 -19.5t20 -46.5q0 -28 -20 -47t-48 -19q-27 0 -47 19.5zM270 774q-20 19 -20 47q0 27 20 46.5t48 19.5q27 0 47 -19.5t20 -46.5t-20 -46.5t-47 -19.5
q-28 0 -48 19z" />
    <glyph glyph-name="Eth" unicode="&#xd0;" horiz-adv-x="699"
d="M509.5 657.5q68.5 -42.5 102.5 -117.5t34 -172v-36q0 -97 -34 -172t-102.5 -117.5t-168.5 -42.5h-235v299h-71v102h71v299h235q100 0 168.5 -42.5zM531 367q0 101 -47.5 162t-142.5 61h-121v-189h160v-102h-160v-191h121q95 0 142.5 61.5t47.5 163.5v34z" />
    <glyph glyph-name="Ntilde" unicode="&#xd1;" horiz-adv-x="708"
d="M621 700v-700h-121l-304 522v-522h-110v700h125l300 -515v515h110zM293 878q32 0 67 -21l23 -14q26 -16 41 -16q13 0 18.5 13.5t6.5 37.5h68q-3 -125 -92 -125q-32 0 -66 21l-23 14q-26 16 -41 16q-24 0 -26 -51h-67q3 125 91 125z" />
    <glyph glyph-name="Ograve" unicode="&#xd2;" horiz-adv-x="715"
d="M526.5 669q68.5 -44 102.5 -122t34 -179v-36q0 -101 -34 -179t-102.5 -122t-168.5 -44t-168.5 44t-102.5 122t-34 179v36q0 101 34 179t102.5 122t168.5 44t168.5 -44zM500 538.5q-47 64.5 -142 64.5t-142.5 -64.5t-47.5 -171.5v-34q0 -106 47.5 -171t142.5 -65t142 64.5
t47 171.5v34q0 107 -47 171.5zM216 893h122l85 -132h-108z" />
    <glyph glyph-name="Oacute" unicode="&#xd3;" horiz-adv-x="715"
d="M526.5 669q68.5 -44 102.5 -122t34 -179v-36q0 -101 -34 -179t-102.5 -122t-168.5 -44t-168.5 44t-102.5 122t-34 179v36q0 101 34 179t102.5 122t168.5 44t168.5 -44zM500 538.5q-47 64.5 -142 64.5t-142.5 -64.5t-47.5 -171.5v-34q0 -106 47.5 -171t142.5 -65t142 64.5
t47 171.5v34q0 107 -47 171.5zM378 893h122l-99 -132h-108z" />
    <glyph glyph-name="Ocircumflex" unicode="&#xd4;" horiz-adv-x="715"
d="M526.5 669q68.5 -44 102.5 -122t34 -179v-36q0 -101 -34 -179t-102.5 -122t-168.5 -44t-168.5 44t-102.5 122t-34 179v36q0 101 34 179t102.5 122t168.5 44t168.5 -44zM500 538.5q-47 64.5 -142 64.5t-142.5 -64.5t-47.5 -171.5v-34q0 -106 47.5 -171t142.5 -65t142 64.5
t47 171.5v34q0 107 -47 171.5zM420 761l-63 77l-62 -77h-97l87 132h145l87 -132h-97z" />
    <glyph glyph-name="Otilde" unicode="&#xd5;" horiz-adv-x="715"
d="M526.5 669q68.5 -44 102.5 -122t34 -179v-36q0 -101 -34 -179t-102.5 -122t-168.5 -44t-168.5 44t-102.5 122t-34 179v36q0 101 34 179t102.5 122t168.5 44t168.5 -44zM500 538.5q-47 64.5 -142 64.5t-142.5 -64.5t-47.5 -171.5v-34q0 -106 47.5 -171t142.5 -65t142 64.5
t47 171.5v34q0 107 -47 171.5zM291 878q32 0 67 -21l23 -14q26 -16 41 -16q13 0 18.5 13.5t6.5 37.5h68q-3 -125 -92 -125q-32 0 -66 21l-23 14q-26 16 -41 16q-24 0 -26 -51h-67q3 125 91 125z" />
    <glyph glyph-name="Odieresis" unicode="&#xd6;" horiz-adv-x="715"
d="M526.5 669q68.5 -44 102.5 -122t34 -179v-36q0 -101 -34 -179t-102.5 -122t-168.5 -44t-168.5 44t-102.5 122t-34 179v36q0 101 34 179t102.5 122t168.5 44t168.5 -44zM500 538.5q-47 64.5 -142 64.5t-142.5 -64.5t-47.5 -171.5v-34q0 -106 47.5 -171t142.5 -65t142 64.5
t47 171.5v34q0 107 -47 171.5zM199 774.5q-20 19.5 -20 46.5t20 46.5t47 19.5q28 0 48 -19.5t20 -46.5q0 -28 -20 -47t-48 -19q-27 0 -47 19.5zM422 774q-20 19 -20 47q0 27 20 46.5t48 19.5q27 0 47 -19.5t20 -46.5t-20 -46.5t-47 -19.5q-28 0 -48 19z" />
    <glyph glyph-name="multiply" unicode="&#xd7;"
d="M343 347l142 -142l-63 -63l-142 142l-142 -142l-63 63l142 142l-142 142l63 63l142 -142l142 142l63 -63z" />
    <glyph glyph-name="Oslash" unicode="&#xd8;" horiz-adv-x="715"
d="M663 368v-36q0 -101 -34 -179t-102.5 -122t-168.5 -44t-172 47l-36 -52l-68 48l42 61q-35 45 -53 107t-18 134v36q0 101 34 179t102.5 122t168.5 44t171 -46l35 51l69 -48l-42 -60q72 -91 72 -242zM196 193l267 381q-45 29 -105 29q-95 0 -142.5 -64.5t-47.5 -171.5v-34
q0 -83 28 -140zM547 367q0 84 -28 141l-267 -381q44 -30 106 -30q95 0 142 64.5t47 171.5v34z" />
    <glyph glyph-name="Ugrave" unicode="&#xd9;" horiz-adv-x="677"
d="M144.5 58q-65.5 71 -65.5 187v455h115v-453q0 -70 34.5 -111t109.5 -41q76 0 110.5 41t34.5 111v453h115v-455q0 -116 -65.5 -187t-194.5 -71q-128 0 -193.5 71zM196 893h122l85 -132h-108z" />
    <glyph glyph-name="Uacute" unicode="&#xda;" horiz-adv-x="677"
d="M144.5 58q-65.5 71 -65.5 187v455h115v-453q0 -70 34.5 -111t109.5 -41q76 0 110.5 41t34.5 111v453h115v-455q0 -116 -65.5 -187t-194.5 -71q-128 0 -193.5 71zM358 893h122l-99 -132h-108z" />
    <glyph glyph-name="Ucircumflex" unicode="&#xdb;" horiz-adv-x="677"
d="M144.5 58q-65.5 71 -65.5 187v455h115v-453q0 -70 34.5 -111t109.5 -41q76 0 110.5 41t34.5 111v453h115v-455q0 -116 -65.5 -187t-194.5 -71q-128 0 -193.5 71zM400 761l-63 77l-62 -77h-97l87 132h145l87 -132h-97z" />
    <glyph glyph-name="Udieresis" unicode="&#xdc;" horiz-adv-x="677"
d="M144.5 58q-65.5 71 -65.5 187v455h115v-453q0 -70 34.5 -111t109.5 -41q76 0 110.5 41t34.5 111v453h115v-455q0 -116 -65.5 -187t-194.5 -71q-128 0 -193.5 71zM179 774.5q-20 19.5 -20 46.5t20 46.5t47 19.5q28 0 48 -19.5t20 -46.5q0 -28 -20 -47t-48 -19
q-27 0 -47 19.5zM402 774q-20 19 -20 47q0 27 20 46.5t48 19.5q27 0 47 -19.5t20 -46.5t-20 -46.5t-47 -19.5q-28 0 -48 19z" />
    <glyph glyph-name="Yacute" unicode="&#xdd;" horiz-adv-x="615"
d="M364 304v-304h-113v304l-240 396h129l169 -281l168 281h127zM328 893h122l-99 -132h-108z" />
    <glyph glyph-name="Thorn" unicode="&#xde;" horiz-adv-x="616"
d="M473.5 545q52.5 -27 82 -76.5t29.5 -114.5t-29.5 -114.5t-82 -76.5t-119.5 -27h-154v-136h-114v700h114v-128h154q67 0 119.5 -27zM440 276q31 30 31 78t-31 78t-88 30h-152v-216h152q57 0 88 30z" />
    <glyph glyph-name="germandbls" unicode="&#xdf;" horiz-adv-x="606"
d="M269 25v103q26 -17 55.5 -27.5t67.5 -10.5q36 0 56.5 16t20.5 45q0 24 -14 39.5t-49 36.5l-34 20q-54 33 -77 60t-23 67q0 34 15.5 58t46.5 54q28 29 41 48.5t13 45.5q0 27 -23.5 46t-65.5 19q-52 0 -82 -34.5t-30 -94.5v-516h-110v523q0 104 62 162t165 58
q66 0 110.5 -22t66 -57t21.5 -74q0 -48 -19 -77t-54 -60q-22 -20 -31.5 -32t-9.5 -28q0 -18 14 -31.5t51 -35.5l31 -18q94 -57 94 -149q0 -80 -51.5 -124t-129.5 -44q-82 0 -128 34z" />
    <glyph glyph-name="agrave" unicode="&#xe0;" horiz-adv-x="570"
d="M492 507v-507h-101v52q-24 -29 -59 -45t-79 -16q-68 0 -116 33t-73 89t-25 125v31q0 69 25 125t73 89t116 33q44 0 79 -16t59 -45v52h101zM382 158v191q-39 60 -114 60q-58 0 -87.5 -39t-29.5 -104v-25q0 -65 29.5 -104t87.5 -39q75 0 114 60zM143 730h122l85 -132h-108z
" />
    <glyph glyph-name="aacute" unicode="&#xe1;" horiz-adv-x="570"
d="M492 507v-507h-101v52q-24 -29 -59 -45t-79 -16q-68 0 -116 33t-73 89t-25 125v31q0 69 25 125t73 89t116 33q44 0 79 -16t59 -45v52h101zM382 158v191q-39 60 -114 60q-58 0 -87.5 -39t-29.5 -104v-25q0 -65 29.5 -104t87.5 -39q75 0 114 60zM305 730h122l-99 -132h-108
z" />
    <glyph glyph-name="acircumflex" unicode="&#xe2;" horiz-adv-x="570"
d="M492 507v-507h-101v52q-24 -29 -59 -45t-79 -16q-68 0 -116 33t-73 89t-25 125v31q0 69 25 125t73 89t116 33q44 0 79 -16t59 -45v52h101zM382 158v191q-39 60 -114 60q-58 0 -87.5 -39t-29.5 -104v-25q0 -65 29.5 -104t87.5 -39q75 0 114 60zM347 598l-63 77l-62 -77
h-97l87 132h145l87 -132h-97z" />
    <glyph glyph-name="atilde" unicode="&#xe3;" horiz-adv-x="570"
d="M492 507v-507h-101v52q-24 -29 -59 -45t-79 -16q-68 0 -116 33t-73 89t-25 125v31q0 69 25 125t73 89t116 33q44 0 79 -16t59 -45v52h101zM382 158v191q-39 60 -114 60q-58 0 -87.5 -39t-29.5 -104v-25q0 -65 29.5 -104t87.5 -39q75 0 114 60zM218 715q32 0 67 -21
l23 -14q26 -16 41 -16q13 0 18.5 13.5t6.5 37.5h68q-3 -125 -92 -125q-32 0 -66 21l-23 14q-26 16 -41 16q-24 0 -26 -51h-67q3 125 91 125z" />
    <glyph glyph-name="adieresis" unicode="&#xe4;" horiz-adv-x="570"
d="M492 507v-507h-101v52q-24 -29 -59 -45t-79 -16q-68 0 -116 33t-73 89t-25 125v31q0 69 25 125t73 89t116 33q44 0 79 -16t59 -45v52h101zM382 158v191q-39 60 -114 60q-58 0 -87.5 -39t-29.5 -104v-25q0 -65 29.5 -104t87.5 -39q75 0 114 60zM138 614.5
q-20 19.5 -20 46.5t20 46.5t47 19.5q28 0 48 -19.5t20 -46.5q0 -28 -20 -47t-48 -19q-27 0 -47 19.5zM338 614.5q-20 19.5 -20 46.5t20 46.5t47 19.5q28 0 48 -19.5t20 -46.5q0 -28 -20 -47t-48 -19q-27 0 -47 19.5z" />
    <glyph glyph-name="aring" unicode="&#xe5;" horiz-adv-x="570"
d="M492 507v-507h-101v52q-24 -29 -59 -45t-79 -16q-68 0 -116 33t-73 89t-25 125v31q0 69 25 125t73 89t116 33q44 0 79 -16t59 -45v52h101zM382 158v191q-39 60 -114 60q-58 0 -87.5 -39t-29.5 -104v-25q0 -65 29.5 -104t87.5 -39q75 0 114 60zM203.5 604.5
q-32.5 32.5 -32.5 77.5t32.5 77t81.5 32t81.5 -32t32.5 -77t-32.5 -77.5t-81.5 -32.5t-81.5 32.5zM324 643.5q15 15.5 15 38.5q0 22 -15 37.5t-39 15.5t-39 -15.5t-15 -37.5q0 -23 15 -38.5t39 -15.5t39 15.5z" />
    <glyph glyph-name="ae" unicode="&#xe6;" horiz-adv-x="799"
d="M757 218h-317q12 -124 149 -124q75 0 138 38v-106q-22 -17 -61 -27.5t-82 -10.5q-122 0 -190 71q-71 -69 -181 -69q-76 0 -124 39.5t-48 108.5q0 170 289 177v11q0 47 -23.5 66.5t-77.5 19.5q-45 0 -86.5 -15t-70.5 -38v114q30 21 74 33.5t97 12.5q107 0 158 -56
q57 57 149 57q100 0 153.5 -61t53.5 -170v-71zM649 308q-3 55 -27 83t-74 28q-46 0 -72.5 -29t-33.5 -82h207zM345 141q-12 36 -15 81q-178 -7 -178 -77q0 -52 77 -52q73 0 116 48z" />
    <glyph glyph-name="ccedilla" unicode="&#xe7;" horiz-adv-x="452"
d="M184 373.5q-33 -39.5 -33 -107.5v-25q0 -68 33 -107.5t103 -39.5q31 0 62.5 8t56.5 21v-107q-19 -12 -53.5 -20t-71.5 -8l-20 -41q46 -3 75 -25.5t29 -64.5q0 -48 -34.5 -73t-88.5 -25q-75 0 -117 34l26 55q39 -27 89 -27q24 0 38.5 9.5t14.5 26.5q0 33 -63 33
q-18 0 -30 -3l-24 32l37 76q-84 20 -129 86t-45 157v31q0 70 27.5 127t81.5 90t130 33q38 0 73 -8t55 -20v-107q-25 13 -56.5 21t-62.5 8q-70 0 -103 -39.5z" />
    <glyph glyph-name="egrave" unicode="&#xe8;" horiz-adv-x="517"
d="M475 218h-325q12 -124 154 -124q77 0 140 38v-106q-22 -17 -61.5 -27.5t-83.5 -10.5q-121 0 -190.5 67t-69.5 183v31q0 72 26.5 129t77.5 89.5t120 32.5q102 0 157 -61t55 -170v-71zM186.5 390q-27.5 -29 -34.5 -82h215q-6 111 -106 111q-47 0 -74.5 -29zM128 730h122
l85 -132h-108z" />
    <glyph glyph-name="eacute" unicode="&#xe9;" horiz-adv-x="517"
d="M475 218h-325q12 -124 154 -124q77 0 140 38v-106q-22 -17 -61.5 -27.5t-83.5 -10.5q-121 0 -190.5 67t-69.5 183v31q0 72 26.5 129t77.5 89.5t120 32.5q102 0 157 -61t55 -170v-71zM186.5 390q-27.5 -29 -34.5 -82h215q-6 111 -106 111q-47 0 -74.5 -29zM290 730h122
l-99 -132h-108z" />
    <glyph glyph-name="ecircumflex" unicode="&#xea;" horiz-adv-x="517"
d="M475 218h-325q12 -124 154 -124q77 0 140 38v-106q-22 -17 -61.5 -27.5t-83.5 -10.5q-121 0 -190.5 67t-69.5 183v31q0 72 26.5 129t77.5 89.5t120 32.5q102 0 157 -61t55 -170v-71zM186.5 390q-27.5 -29 -34.5 -82h215q-6 111 -106 111q-47 0 -74.5 -29zM332 598l-63 77
l-62 -77h-97l87 132h145l87 -132h-97z" />
    <glyph glyph-name="edieresis" unicode="&#xeb;" horiz-adv-x="517"
d="M475 218h-325q12 -124 154 -124q77 0 140 38v-106q-22 -17 -61.5 -27.5t-83.5 -10.5q-121 0 -190.5 67t-69.5 183v31q0 72 26.5 129t77.5 89.5t120 32.5q102 0 157 -61t55 -170v-71zM186.5 390q-27.5 -29 -34.5 -82h215q-6 111 -106 111q-47 0 -74.5 -29zM123 614.5
q-20 19.5 -20 46.5t20 46.5t47 19.5q28 0 48 -19.5t20 -46.5q0 -28 -20 -47t-48 -19q-27 0 -47 19.5zM323 614.5q-20 19.5 -20 46.5t20 46.5t47 19.5q28 0 48 -19.5t20 -46.5q0 -28 -20 -47t-48 -19q-27 0 -47 19.5z" />
    <glyph glyph-name="igrave" unicode="&#xec;" horiz-adv-x="265"
d="M77 507h110v-507h-110v507zM-10 730h122l85 -132h-108z" />
    <glyph glyph-name="iacute" unicode="&#xed;" horiz-adv-x="265"
d="M77 507h110v-507h-110v507zM152 730h122l-99 -132h-108z" />
    <glyph glyph-name="icircumflex" unicode="&#xee;" horiz-adv-x="265"
d="M77 507h110v-507h-110v507zM194 598l-63 77l-62 -77h-97l87 132h145l87 -132h-97z" />
    <glyph glyph-name="idieresis" unicode="&#xef;" horiz-adv-x="265"
d="M77 507h110v-507h-110v507zM-15 614.5q-20 19.5 -20 46.5t20 46.5t47 19.5q28 0 48 -19.5t20 -46.5q0 -28 -20 -47t-48 -19q-27 0 -47 19.5zM185 614.5q-20 19.5 -20 46.5t20 46.5t47 19.5q28 0 48 -19.5t20 -46.5q0 -28 -20 -47t-48 -19q-27 0 -47 19.5z" />
    <glyph glyph-name="eth" unicode="&#xf0;" horiz-adv-x="541"
d="M478 454q23 -82 23 -187v-33q0 -116 -61 -181.5t-169 -65.5q-107 0 -169.5 66t-62.5 180v30q0 67 27.5 118t77.5 79.5t115 28.5q57 0 104 -26q-19 53 -59 105l-122 -45l-23 67l97 36q-44 47 -117 104h148q42 -35 71 -66l94 35l24 -67l-70 -26q49 -70 72 -152zM389 257
q0 53 -5 85q-18 20 -48.5 31.5t-64.5 11.5q-57 0 -88.5 -33.5t-31.5 -94.5v-20q0 -71 30.5 -108t88.5 -37t88.5 37t30.5 108v20z" />
    <glyph glyph-name="ntilde" unicode="&#xf1;" horiz-adv-x="570"
d="M458 471.5q45 -46.5 45 -126.5v-345h-110v318q0 47 -19.5 70.5t-65.5 23.5q-33 0 -64.5 -14t-56.5 -41v-357h-110v507h101v-51q27 28 66.5 45t86.5 17q82 0 127 -46.5zM223 715q32 0 67 -21l23 -14q26 -16 41 -16q13 0 18.5 13.5t6.5 37.5h68q-3 -125 -92 -125
q-32 0 -66 21l-23 14q-26 16 -41 16q-24 0 -26 -51h-67q3 125 91 125z" />
    <glyph glyph-name="ograve" unicode="&#xf2;" horiz-adv-x="551"
d="M146.5 20q-53.5 33 -80.5 90t-27 128v31q0 71 27 128t80.5 90t128.5 33q76 0 129 -33t80 -90t27 -128v-31q0 -71 -27 -128t-80 -90t-129 -33q-75 0 -128.5 33zM368 132q31 41 31 109v25q0 68 -31 109t-93 41t-93 -41t-31 -109v-25q0 -68 31 -109t93 -41t93 41zM133 730
h122l85 -132h-108z" />
    <glyph glyph-name="oacute" unicode="&#xf3;" horiz-adv-x="551"
d="M146.5 20q-53.5 33 -80.5 90t-27 128v31q0 71 27 128t80.5 90t128.5 33q76 0 129 -33t80 -90t27 -128v-31q0 -71 -27 -128t-80 -90t-129 -33q-75 0 -128.5 33zM368 132q31 41 31 109v25q0 68 -31 109t-93 41t-93 -41t-31 -109v-25q0 -68 31 -109t93 -41t93 41zM295 730
h122l-99 -132h-108z" />
    <glyph glyph-name="ocircumflex" unicode="&#xf4;" horiz-adv-x="551"
d="M146.5 20q-53.5 33 -80.5 90t-27 128v31q0 71 27 128t80.5 90t128.5 33q76 0 129 -33t80 -90t27 -128v-31q0 -71 -27 -128t-80 -90t-129 -33q-75 0 -128.5 33zM368 132q31 41 31 109v25q0 68 -31 109t-93 41t-93 -41t-31 -109v-25q0 -68 31 -109t93 -41t93 41zM337 598
l-63 77l-62 -77h-97l87 132h145l87 -132h-97z" />
    <glyph glyph-name="otilde" unicode="&#xf5;" horiz-adv-x="551"
d="M146.5 20q-53.5 33 -80.5 90t-27 128v31q0 71 27 128t80.5 90t128.5 33q76 0 129 -33t80 -90t27 -128v-31q0 -71 -27 -128t-80 -90t-129 -33q-75 0 -128.5 33zM368 132q31 41 31 109v25q0 68 -31 109t-93 41t-93 -41t-31 -109v-25q0 -68 31 -109t93 -41t93 41zM208 715
q32 0 67 -21l23 -14q26 -16 41 -16q13 0 18.5 13.5t6.5 37.5h68q-3 -125 -92 -125q-32 0 -66 21l-23 14q-26 16 -41 16q-24 0 -26 -51h-67q3 125 91 125z" />
    <glyph glyph-name="odieresis" unicode="&#xf6;" horiz-adv-x="551"
d="M146.5 20q-53.5 33 -80.5 90t-27 128v31q0 71 27 128t80.5 90t128.5 33q76 0 129 -33t80 -90t27 -128v-31q0 -71 -27 -128t-80 -90t-129 -33q-75 0 -128.5 33zM368 132q31 41 31 109v25q0 68 -31 109t-93 41t-93 -41t-31 -109v-25q0 -68 31 -109t93 -41t93 41zM128 614.5
q-20 19.5 -20 46.5t20 46.5t47 19.5q28 0 48 -19.5t20 -46.5q0 -28 -20 -47t-48 -19q-27 0 -47 19.5zM328 614.5q-20 19.5 -20 46.5t20 46.5t47 19.5q28 0 48 -19.5t20 -46.5q0 -28 -20 -47t-48 -19q-27 0 -47 19.5z" />
    <glyph glyph-name="divide" unicode="&#xf7;"
d="M71 392h418v-90h-418v90zM231.5 477q-20.5 20 -20.5 48t20.5 48t48.5 20q29 0 49 -20t20 -48t-20 -48t-49 -20q-28 0 -48.5 20zM231.5 121q-20.5 20 -20.5 48t20.5 48t48.5 20q29 0 49 -20t20 -48t-20 -48t-49 -20q-28 0 -48.5 20z" />
    <glyph glyph-name="oslash" unicode="&#xf8;" horiz-adv-x="551"
d="M511 269v-31q0 -71 -27 -128t-80 -90t-129 -33q-71 0 -121 29l-26 -37l-62 42l30 43q-57 68 -57 174v31q0 71 27 128t80.5 90t128.5 33q67 0 122 -29l26 37l61 -42l-30 -42q57 -69 57 -175zM165 162l170 241q-28 13 -60 13q-62 0 -93 -41t-31 -109v-25q0 -45 14 -79z
M399 266q0 48 -14 79l-169 -241q26 -13 59 -13q62 0 93 41t31 109v25z" />
    <glyph glyph-name="ugrave" unicode="&#xf9;" horiz-adv-x="564"
d="M487 507v-507h-101v50q-27 -27 -65.5 -44t-84.5 -17q-80 0 -124.5 46.5t-44.5 126.5v345h110v-318q0 -47 18.5 -70.5t63.5 -23.5q32 0 63 14t55 41v357h110zM137 730h122l85 -132h-108z" />
    <glyph glyph-name="uacute" unicode="&#xfa;" horiz-adv-x="564"
d="M487 507v-507h-101v50q-27 -27 -65.5 -44t-84.5 -17q-80 0 -124.5 46.5t-44.5 126.5v345h110v-318q0 -47 18.5 -70.5t63.5 -23.5q32 0 63 14t55 41v357h110zM299 730h122l-99 -132h-108z" />
    <glyph glyph-name="ucircumflex" unicode="&#xfb;" horiz-adv-x="564"
d="M487 507v-507h-101v50q-27 -27 -65.5 -44t-84.5 -17q-80 0 -124.5 46.5t-44.5 126.5v345h110v-318q0 -47 18.5 -70.5t63.5 -23.5q32 0 63 14t55 41v357h110zM341 598l-63 77l-62 -77h-97l87 132h145l87 -132h-97z" />
    <glyph glyph-name="udieresis" unicode="&#xfc;" horiz-adv-x="564"
d="M487 507v-507h-101v50q-27 -27 -65.5 -44t-84.5 -17q-80 0 -124.5 46.5t-44.5 126.5v345h110v-318q0 -47 18.5 -70.5t63.5 -23.5q32 0 63 14t55 41v357h110zM132 614.5q-20 19.5 -20 46.5t20 46.5t47 19.5q28 0 48 -19.5t20 -46.5q0 -28 -20 -47t-48 -19q-27 0 -47 19.5z
M332 614.5q-20 19.5 -20 46.5t20 46.5t47 19.5q28 0 48 -19.5t20 -46.5q0 -28 -20 -47t-48 -19q-27 0 -47 19.5z" />
    <glyph glyph-name="yacute" unicode="&#xfd;" horiz-adv-x="523"
d="M504 507l-176 -489q-28 -77 -54.5 -121.5t-63.5 -66.5t-93 -22q-45 0 -68 10v103q19 -8 51 -8q39 0 65 19t42 61l-188 514h118l126 -355l124 355h117zM282 730h122l-99 -132h-108z" />
    <glyph glyph-name="thorn" unicode="&#xfe;" horiz-adv-x="570"
d="M433 483q48 -33 73 -89t25 -125v-31q0 -69 -25 -125t-73 -89t-116 -33q-40 0 -73 13.5t-57 38.5v-223h-110v910h110v-266q24 25 57 38.5t73 13.5q68 0 116 -33zM419 266q0 65 -29.5 104t-87.5 39q-76 0 -115 -62v-187q39 -62 115 -62q58 0 87.5 39t29.5 104v25z" />
    <glyph glyph-name="ydieresis" unicode="&#xff;" horiz-adv-x="523"
d="M504 507l-176 -489q-28 -77 -54.5 -121.5t-63.5 -66.5t-93 -22q-45 0 -68 10v103q19 -8 51 -8q39 0 65 19t42 61l-188 514h118l126 -355l124 355h117zM115 614.5q-20 19.5 -20 46.5t20 46.5t47 19.5q28 0 48 -19.5t20 -46.5q0 -28 -20 -47t-48 -19q-27 0 -47 19.5z
M315 614.5q-20 19.5 -20 46.5t20 46.5t47 19.5q28 0 48 -19.5t20 -46.5q0 -28 -20 -47t-48 -19q-27 0 -47 19.5z" />
    <glyph glyph-name="Amacron" unicode="&#x100;" horiz-adv-x="674"
d="M479 177h-287l-60 -177h-119l244 700h160l244 -700h-122zM441 287l-105 311l-106 -311h211zM198 860h278v-86h-278v86z" />
    <glyph glyph-name="amacron" unicode="&#x101;" horiz-adv-x="570"
d="M492 507v-507h-101v52q-24 -29 -59 -45t-79 -16q-68 0 -116 33t-73 89t-25 125v31q0 69 25 125t73 89t116 33q44 0 79 -16t59 -45v52h101zM382 158v191q-39 60 -114 60q-58 0 -87.5 -39t-29.5 -104v-25q0 -65 29.5 -104t87.5 -39q75 0 114 60zM146 697h278v-86h-278v86z
" />
    <glyph glyph-name="Abreve" unicode="&#x102;" horiz-adv-x="674"
d="M479 177h-287l-60 -177h-119l244 700h160l244 -700h-122zM441 287l-105 311l-106 -311h211zM227.5 792.5q-38.5 38.5 -41.5 98.5h77q3 -25 21 -43t53 -18t53.5 18t21.5 43h77q-3 -60 -41.5 -98.5t-110.5 -38.5q-71 0 -109.5 38.5z" />
    <glyph glyph-name="abreve" unicode="&#x103;" horiz-adv-x="570"
d="M492 507v-507h-101v52q-24 -29 -59 -45t-79 -16q-68 0 -116 33t-73 89t-25 125v31q0 69 25 125t73 89t116 33q44 0 79 -16t59 -45v52h101zM382 158v191q-39 60 -114 60q-58 0 -87.5 -39t-29.5 -104v-25q0 -65 29.5 -104t87.5 -39q75 0 114 60zM175.5 629.5
q-38.5 38.5 -41.5 98.5h77q3 -25 21 -43t53 -18t53.5 18t21.5 43h77q-3 -60 -41.5 -98.5t-110.5 -38.5q-71 0 -109.5 38.5z" />
    <glyph glyph-name="Aogonek" unicode="&#x104;" horiz-adv-x="674"
d="M600.5 -114.5q12.5 -10.5 32.5 -10.5q16 0 28 3v-77q-16 -6 -49 -6q-52 0 -84 27t-32 71q0 61 54 107h-11l-60 177h-287l-60 -177h-119l244 700h160l244 -700q-31 -15 -52 -37t-21 -49q0 -18 12.5 -28.5zM441 287l-105 311l-106 -311h211z" />
    <glyph glyph-name="aogonek" unicode="&#x105;" horiz-adv-x="570"
d="M440 -37q-21 -22 -21 -49q0 -18 12.5 -28.5t32.5 -10.5q16 0 28 3v-77q-17 -6 -49 -6q-52 0 -84 27t-32 71q0 67 64 115v44q-24 -29 -59 -45t-79 -16q-68 0 -116 33t-73 89t-25 125v31q0 69 25 125t73 89t116 33q44 0 79 -16t59 -45v52h101v-507q-31 -15 -52 -37z
M382 158v191q-39 60 -114 60q-58 0 -87.5 -39t-29.5 -104v-25q0 -65 29.5 -104t87.5 -39q75 0 114 60z" />
    <glyph glyph-name="Cacute" unicode="&#x106;" horiz-adv-x="608"
d="M220 160q52 -63 160 -63q91 0 170 42v-112q-27 -18 -73 -29t-99 -11q-108 0 -181 45t-108.5 122t-35.5 173v46q0 96 35.5 173t108.5 122t181 45q53 0 99 -11t73 -29v-112q-79 42 -170 42q-108 0 -160 -63t-52 -170v-40q0 -107 52 -170zM397 893h122l-99 -132h-108z" />
    <glyph glyph-name="cacute" unicode="&#x107;" horiz-adv-x="452"
d="M148 21q-54 33 -81.5 90t-27.5 127v31q0 70 27.5 127t81.5 90t130 33q38 0 73 -8t55 -20v-107q-25 13 -56.5 21t-62.5 8q-70 0 -103 -39.5t-33 -107.5v-25q0 -68 33 -107.5t103 -39.5q31 0 62.5 8t56.5 21v-107q-20 -12 -55 -20t-73 -8q-76 0 -130 33zM291 730h122
l-99 -132h-108z" />
    <glyph glyph-name="Cdotaccent" unicode="&#x10a;" horiz-adv-x="608"
d="M220 160q52 -63 160 -63q91 0 170 42v-112q-27 -18 -73 -29t-99 -11q-108 0 -181 45t-108.5 122t-35.5 173v46q0 96 35.5 173t108.5 122t181 45q53 0 99 -11t73 -29v-112q-79 42 -170 42q-108 0 -160 -63t-52 -170v-40q0 -107 52 -170zM328.5 775q-20.5 20 -20.5 48
t20.5 48t48.5 20q29 0 49 -20t20 -48t-20 -48t-49 -20q-28 0 -48.5 20z" />
    <glyph glyph-name="cdotaccent" unicode="&#x10b;" horiz-adv-x="452"
d="M148 21q-54 33 -81.5 90t-27.5 127v31q0 70 27.5 127t81.5 90t130 33q38 0 73 -8t55 -20v-107q-25 13 -56.5 21t-62.5 8q-70 0 -103 -39.5t-33 -107.5v-25q0 -68 33 -107.5t103 -39.5q31 0 62.5 8t56.5 21v-107q-20 -12 -55 -20t-73 -8q-76 0 -130 33zM222.5 612
q-20.5 20 -20.5 48t20.5 48t48.5 20q29 0 49 -20t20 -48t-20 -48t-49 -20q-28 0 -48.5 20z" />
    <glyph glyph-name="Ccaron" unicode="&#x10c;" horiz-adv-x="608"
d="M220 160q52 -63 160 -63q91 0 170 42v-112q-27 -18 -73 -29t-99 -11q-108 0 -181 45t-108.5 122t-35.5 173v46q0 96 35.5 173t108.5 122t181 45q53 0 99 -11t73 -29v-112q-79 42 -170 42q-108 0 -160 -63t-52 -170v-40q0 -107 52 -170zM534 893l-87 -132h-145l-87 132h97
l62 -77l63 77h97z" />
    <glyph glyph-name="ccaron" unicode="&#x10d;" horiz-adv-x="452"
d="M148 21q-54 33 -81.5 90t-27.5 127v31q0 70 27.5 127t81.5 90t130 33q38 0 73 -8t55 -20v-107q-25 13 -56.5 21t-62.5 8q-70 0 -103 -39.5t-33 -107.5v-25q0 -68 33 -107.5t103 -39.5q31 0 62.5 8t56.5 21v-107q-20 -12 -55 -20t-73 -8q-76 0 -130 33zM428 730l-87 -132
h-145l-87 132h97l62 -77l63 77h97z" />
    <glyph glyph-name="Dcaron" unicode="&#x10e;" horiz-adv-x="679"
d="M489.5 657.5q68.5 -42.5 102.5 -117.5t34 -172v-36q0 -97 -34 -172t-102.5 -117.5t-168.5 -42.5h-235v700h235q100 0 168.5 -42.5zM511 367q0 101 -47.5 162t-142.5 61h-121v-482h121q95 0 142.5 61.5t47.5 163.5v34zM486 893l-87 -132h-145l-87 132h97l62 -77l63 77h97z
" />
    <glyph glyph-name="dcaron" unicode="&#x10f;" horiz-adv-x="659"
d="M493 730v-730h-101v53q-24 -29 -59.5 -45.5t-79.5 -16.5q-68 0 -116 33t-73 89t-25 125v31q0 69 25 125t73 89t116 33q40 0 73 -13.5t57 -38.5v266h110zM383 160v187q-39 62 -115 62q-58 0 -87.5 -39t-29.5 -104v-25q0 -65 29.5 -104t87.5 -39q76 0 115 62zM584 730h104
l-58 -181h-91z" />
    <glyph glyph-name="Dcroat" unicode="&#x110;" horiz-adv-x="699"
d="M509.5 657.5q68.5 -42.5 102.5 -117.5t34 -172v-36q0 -97 -34 -172t-102.5 -117.5t-168.5 -42.5h-235v299h-71v102h71v299h235q100 0 168.5 -42.5zM531 367q0 101 -47.5 162t-142.5 61h-121v-189h160v-102h-160v-191h121q95 0 142.5 61.5t47.5 163.5v34z" />
    <glyph glyph-name="dcroat" unicode="&#x111;" horiz-adv-x="570"
d="M551 568h-58v-568h-101v53q-24 -29 -59.5 -45.5t-79.5 -16.5q-68 0 -116 33t-73 89t-25 125v31q0 69 25 125t73 89t116 33q40 0 73 -13.5t57 -38.5v104h-122v83h122v79h110v-79h58v-83zM383 160v187q-39 62 -115 62q-58 0 -87.5 -39t-29.5 -104v-25q0 -65 29.5 -104
t87.5 -39q76 0 115 62z" />
    <glyph glyph-name="Emacron" unicode="&#x112;" horiz-adv-x="599"
d="M543 110v-110h-457v700h455v-110h-341v-173h309v-110h-309v-197h343zM178 860h278v-86h-278v86z" />
    <glyph glyph-name="emacron" unicode="&#x113;" horiz-adv-x="517"
d="M475 218h-325q12 -124 154 -124q77 0 140 38v-106q-22 -17 -61.5 -27.5t-83.5 -10.5q-121 0 -190.5 67t-69.5 183v31q0 72 26.5 129t77.5 89.5t120 32.5q102 0 157 -61t55 -170v-71zM186.5 390q-27.5 -29 -34.5 -82h215q-6 111 -106 111q-47 0 -74.5 -29zM131 697h278
v-86h-278v86z" />
    <glyph glyph-name="Edotaccent" unicode="&#x116;" horiz-adv-x="599"
d="M543 110v-110h-457v700h455v-110h-341v-173h309v-110h-309v-197h343zM268.5 775q-20.5 20 -20.5 48t20.5 48t48.5 20q29 0 49 -20t20 -48t-20 -48t-49 -20q-28 0 -48.5 20z" />
    <glyph glyph-name="edotaccent" unicode="&#x117;" horiz-adv-x="517"
d="M475 218h-325q12 -124 154 -124q77 0 140 38v-106q-22 -17 -61.5 -27.5t-83.5 -10.5q-121 0 -190.5 67t-69.5 183v31q0 72 26.5 129t77.5 89.5t120 32.5q102 0 157 -61t55 -170v-71zM186.5 390q-27.5 -29 -34.5 -82h215q-6 111 -106 111q-47 0 -74.5 -29zM221.5 612
q-20.5 20 -20.5 48t20.5 48t48.5 20q29 0 49 -20t20 -48t-20 -48t-49 -20q-28 0 -48.5 20z" />
    <glyph glyph-name="Eogonek" unicode="&#x118;" horiz-adv-x="599"
d="M491 -37q-21 -22 -21 -49q0 -18 12.5 -28.5t32.5 -10.5q16 0 28 3v-77q-18 -6 -50 -6q-51 0 -83 27t-32 71q0 62 53 107h-345v700h455v-110h-341v-173h309v-110h-309v-197h343v-110q-31 -15 -52 -37z" />
    <glyph glyph-name="eogonek" unicode="&#x119;" horiz-adv-x="517"
d="M475 218h-325q12 -124 154 -124q77 0 140 38v-106l-7 -5q-27 -20 -47 -48t-20 -55q0 -22 12 -32.5t33 -10.5q16 0 28 3v-77q-16 -6 -49 -6q-52 0 -84 27.5t-32 72.5q0 49 36 93h-15q-121 0 -190.5 67t-69.5 183v31q0 72 26.5 129t77.5 89.5t120 32.5q102 0 157 -61
t55 -170v-71zM186.5 390q-27.5 -29 -34.5 -82h215q-6 111 -106 111q-47 0 -74.5 -29z" />
    <glyph glyph-name="Ecaron" unicode="&#x11a;" horiz-adv-x="599"
d="M543 110v-110h-457v700h455v-110h-341v-173h309v-110h-309v-197h343zM474 893l-87 -132h-145l-87 132h97l62 -77l63 77h97z" />
    <glyph glyph-name="ecaron" unicode="&#x11b;" horiz-adv-x="517"
d="M475 218h-325q12 -124 154 -124q77 0 140 38v-106q-22 -17 -61.5 -27.5t-83.5 -10.5q-121 0 -190.5 67t-69.5 183v31q0 72 26.5 129t77.5 89.5t120 32.5q102 0 157 -61t55 -170v-71zM186.5 390q-27.5 -29 -34.5 -82h215q-6 111 -106 111q-47 0 -74.5 -29zM427 730
l-87 -132h-145l-87 132h97l62 -77l63 77h97z" />
    <glyph glyph-name="Gbreve" unicode="&#x11e;" horiz-adv-x="690"
d="M622 390v-318q-40 -40 -103.5 -62.5t-137.5 -22.5q-106 0 -180 45t-111 122t-37 173v46q0 95 38.5 172.5t114 122.5t181.5 45q62 0 115.5 -15.5t84.5 -37.5v-113q-43 25 -94 40.5t-105 15.5q-107 0 -163.5 -64t-56.5 -169v-40q0 -106 53.5 -169.5t156.5 -63.5
q74 0 131 30v153h-156v110h269zM268.5 792.5q-38.5 38.5 -41.5 98.5h77q3 -25 21 -43t53 -18t53.5 18t21.5 43h77q-3 -60 -41.5 -98.5t-110.5 -38.5q-71 0 -109.5 38.5z" />
    <glyph glyph-name="gbreve" unicode="&#x11f;" horiz-adv-x="564"
d="M489 507v-486q0 -94 -58 -154t-175 -60q-47 0 -93 10.5t-74 27.5v107q33 -19 75.5 -28.5t85.5 -9.5q65 0 97 26t32 87v24q-50 -48 -128 -48q-67 0 -115 32t-72.5 87.5t-24.5 123.5v27q0 68 24.5 123t72.5 87.5t115 32.5q43 0 78 -15.5t59 -42.5v49h101zM379 168v183
q-39 58 -113 58q-58 0 -86.5 -38t-28.5 -101v-21q0 -64 28.5 -101.5t86.5 -37.5q74 0 113 58zM171.5 629.5q-38.5 38.5 -41.5 98.5h77q3 -25 21 -43t53 -18t53.5 18t21.5 43h77q-3 -60 -41.5 -98.5t-110.5 -38.5q-71 0 -109.5 38.5z" />
    <glyph glyph-name="Gdotaccent" unicode="&#x120;" horiz-adv-x="690"
d="M622 390v-318q-40 -40 -103.5 -62.5t-137.5 -22.5q-106 0 -180 45t-111 122t-37 173v46q0 95 38.5 172.5t114 122.5t181.5 45q62 0 115.5 -15.5t84.5 -37.5v-113q-43 25 -94 40.5t-105 15.5q-107 0 -163.5 -64t-56.5 -169v-40q0 -106 53.5 -169.5t156.5 -63.5
q74 0 131 30v153h-156v110h269zM329.5 775q-20.5 20 -20.5 48t20.5 48t48.5 20q29 0 49 -20t20 -48t-20 -48t-49 -20q-28 0 -48.5 20z" />
    <glyph glyph-name="gdotaccent" unicode="&#x121;" horiz-adv-x="564"
d="M489 507v-486q0 -94 -58 -154t-175 -60q-47 0 -93 10.5t-74 27.5v107q33 -19 75.5 -28.5t85.5 -9.5q65 0 97 26t32 87v24q-50 -48 -128 -48q-67 0 -115 32t-72.5 87.5t-24.5 123.5v27q0 68 24.5 123t72.5 87.5t115 32.5q43 0 78 -15.5t59 -42.5v49h101zM379 168v183
q-39 58 -113 58q-58 0 -86.5 -38t-28.5 -101v-21q0 -64 28.5 -101.5t86.5 -37.5q74 0 113 58zM232.5 612q-20.5 20 -20.5 48t20.5 48t48.5 20q29 0 49 -20t20 -48t-20 -48t-49 -20q-28 0 -48.5 20z" />
    <glyph glyph-name="Gcommaaccent" unicode="&#x122;" horiz-adv-x="690"
d="M622 390v-318q-40 -40 -103.5 -62.5t-137.5 -22.5q-106 0 -180 45t-111 122t-37 173v46q0 95 38.5 172.5t114 122.5t181.5 45q62 0 115.5 -15.5t84.5 -37.5v-113q-43 25 -94 40.5t-105 15.5q-107 0 -163.5 -64t-56.5 -169v-40q0 -106 53.5 -169.5t156.5 -63.5
q74 0 131 30v153h-156v110h269zM312 -67h114l-60 -156h-108z" />
    <glyph glyph-name="gcommaaccent" unicode="&#x123;" horiz-adv-x="564"
d="M489 507v-486q0 -94 -58 -154t-175 -60q-47 0 -93 10.5t-74 27.5v107q33 -19 75.5 -28.5t85.5 -9.5q65 0 97 26t32 87v24q-50 -48 -128 -48q-67 0 -115 32t-72.5 87.5t-24.5 123.5v27q0 68 24.5 123t72.5 87.5t115 32.5q43 0 78 -15.5t59 -42.5v49h101zM379 168v183
q-39 58 -113 58q-58 0 -86.5 -38t-28.5 -101v-21q0 -64 28.5 -101.5t86.5 -37.5q74 0 113 58zM287 754h108l-54 -156h-114z" />
    <glyph glyph-name="Hbar" unicode="&#x126;" horiz-adv-x="690"
d="M653 516h-49v-516h-114v307h-290v-307h-114v516h-49v92h49v92h114v-92h290v92h114v-92h49v-92zM490 516h-290v-99h290v99z" />
    <glyph glyph-name="hbar" unicode="&#x127;" horiz-adv-x="570"
d="M458 471.5q45 -46.5 45 -126.5v-345h-110v318q0 47 -19.5 70.5t-65.5 23.5q-33 0 -64.5 -14t-56.5 -41v-357h-110v568h-61v83h61v79h110v-79h119v-83h-119v-103q27 24 64 38.5t80 14.5q82 0 127 -46.5z" />
    <glyph glyph-name="Imacron" unicode="&#x12a;" horiz-adv-x="412"
d="M263 603v-506h94v-97h-302v97h94v506h-94v97h302v-97h-94zM67 860h278v-86h-278v86z" />
    <glyph glyph-name="imacron" unicode="&#x12b;" horiz-adv-x="265"
d="M77 507h110v-507h-110v507zM-7 697h278v-86h-278v86z" />
    <glyph glyph-name="Iogonek" unicode="&#x12e;" horiz-adv-x="412"
d="M263 603v-506h94v-97h-72q-31 -15 -52 -37t-21 -49q0 -18 12.5 -28.5t32.5 -10.5q16 0 28 3v-77q-18 -6 -50 -6q-51 0 -83 27t-32 71q0 63 54 107h-119v97h94v506h-94v97h302v-97h-94z" />
    <glyph glyph-name="iogonek" unicode="&#x12f;" horiz-adv-x="265"
d="M83.5 612q-20.5 20 -20.5 48t20.5 48t48.5 20q29 0 49.5 -20t20.5 -48t-20.5 -48t-49.5 -20q-28 0 -48.5 20zM77 507h110v-507q-30 -15 -51 -37t-21 -49q0 -18 12 -28.5t32 -10.5q16 0 28 3v-77q-16 -6 -49 -6q-52 0 -83.5 27t-31.5 71q0 62 54 108v506z" />
    <glyph glyph-name="Idotaccent" unicode="&#x130;" horiz-adv-x="412"
d="M263 603v-506h94v-97h-302v97h94v506h-94v97h302v-97h-94zM157.5 775q-20.5 20 -20.5 48t20.5 48t48.5 20q29 0 49 -20t20 -48t-20 -48t-49 -20q-28 0 -48.5 20z" />
    <glyph glyph-name="dotlessi" unicode="&#x131;" horiz-adv-x="265"
d="M77 507h110v-507h-110v507z" />
    <glyph glyph-name="Kcommaaccent" unicode="&#x136;" horiz-adv-x="654"
d="M511 0l-311 333v-333h-114v700h114v-315l293 315h149l-318 -337l340 -363h-153zM275 -67h114l-60 -156h-108z" />
    <glyph glyph-name="kcommaaccent" unicode="&#x137;" horiz-adv-x="529"
d="M387 0l-200 251v-251h-110v730h110v-441l189 218h138l-208 -233l222 -274h-141zM213 -67h114l-60 -156h-108z" />
    <glyph glyph-name="Lacute" unicode="&#x139;" horiz-adv-x="549"
d="M86 700h114v-590h317v-110h-431v700zM176 893h122l-99 -132h-108z" />
    <glyph glyph-name="lacute" unicode="&#x13a;" horiz-adv-x="265"
d="M77 730h110v-730h-110v730zM160 918h122l-99 -132h-108z" />
    <glyph glyph-name="Lcommaaccent" unicode="&#x13b;" horiz-adv-x="549"
d="M86 700h114v-590h317v-110h-431v700zM238 -67h114l-60 -156h-108z" />
    <glyph glyph-name="lcommaaccent" unicode="&#x13c;" horiz-adv-x="265"
d="M77 730h110v-730h-110v730zM81 -67h114l-60 -156h-108z" />
    <glyph glyph-name="Lcaron" unicode="&#x13d;" horiz-adv-x="549"
d="M86 700h114v-590h317v-110h-431v700zM298 700h104l-58 -181h-91z" />
    <glyph glyph-name="lcaron" unicode="&#x13e;" horiz-adv-x="346"
d="M77 730h110v-730h-110v730zM271 730h104l-58 -181h-91z" />
    <glyph glyph-name="Ldot" unicode="&#x13f;" horiz-adv-x="549"
d="M86 700h114v-590h317v-110h-431v700zM297.5 329.5q-21.5 21.5 -21.5 52.5t21.5 52.5t52.5 21.5t53 -21.5t22 -52.5t-22 -52.5t-53 -21.5t-52.5 21.5z" />
    <glyph glyph-name="ldot" unicode="&#x140;" horiz-adv-x="441"
d="M77 730h110v-730h-110v730zM298.5 310.5q-21.5 21.5 -21.5 52.5t21.5 52.5t52.5 21.5t53 -21.5t22 -52.5t-22 -52.5t-53 -21.5t-52.5 21.5z" />
    <glyph glyph-name="Lslash" unicode="&#x141;" horiz-adv-x="549"
d="M517 110v-110h-431v235l-72 -37v111l72 37v354h114v-294l141 73v-111l-141 -73v-185h317z" />
    <glyph glyph-name="lslash" unicode="&#x142;" horiz-adv-x="315"
d="M285 407l-72 -42v-365h-110v301l-73 -42v109l73 42v320h110v-256l72 42v-109z" />
    <glyph glyph-name="Nacute" unicode="&#x143;" horiz-adv-x="708"
d="M621 700v-700h-121l-304 522v-522h-110v700h125l300 -515v515h110zM380 893h122l-99 -132h-108z" />
    <glyph glyph-name="nacute" unicode="&#x144;" horiz-adv-x="570"
d="M458 471.5q45 -46.5 45 -126.5v-345h-110v318q0 47 -19.5 70.5t-65.5 23.5q-33 0 -64.5 -14t-56.5 -41v-357h-110v507h101v-51q27 28 66.5 45t86.5 17q82 0 127 -46.5zM310 730h122l-99 -132h-108z" />
    <glyph glyph-name="Ncommaaccent" unicode="&#x145;" horiz-adv-x="708"
d="M621 700v-700h-121l-304 522v-522h-110v700h125l300 -515v515h110zM303 -67h114l-60 -156h-108z" />
    <glyph glyph-name="ncommaaccent" unicode="&#x146;" horiz-adv-x="570"
d="M458 471.5q45 -46.5 45 -126.5v-345h-110v318q0 47 -19.5 70.5t-65.5 23.5q-33 0 -64.5 -14t-56.5 -41v-357h-110v507h101v-51q27 28 66.5 45t86.5 17q82 0 127 -46.5zM239 -67h114l-60 -156h-108z" />
    <glyph glyph-name="Ncaron" unicode="&#x147;" horiz-adv-x="708"
d="M621 700v-700h-121l-304 522v-522h-110v700h125l300 -515v515h110zM517 893l-87 -132h-145l-87 132h97l62 -77l63 77h97z" />
    <glyph glyph-name="ncaron" unicode="&#x148;" horiz-adv-x="570"
d="M458 471.5q45 -46.5 45 -126.5v-345h-110v318q0 47 -19.5 70.5t-65.5 23.5q-33 0 -64.5 -14t-56.5 -41v-357h-110v507h101v-51q27 28 66.5 45t86.5 17q82 0 127 -46.5zM447 730l-87 -132h-145l-87 132h97l62 -77l63 77h97z" />
    <glyph glyph-name="Eng" unicode="&#x14a;" horiz-adv-x="708"
d="M388 -182v100q18 -9 51 -9q37 0 54.5 18t17.5 62v11l-315 522v-522h-110v700h125l300 -501v501h110v-724q0 -87 -41.5 -128t-115.5 -41q-49 0 -76 11z" />
    <glyph glyph-name="eng" unicode="&#x14b;" horiz-adv-x="570"
d="M458 471.5q45 -46.5 45 -126.5v-369q0 -87 -41.5 -128t-115.5 -41q-51 0 -76 11v100q18 -9 51 -9q37 0 54.5 18t17.5 62v329q0 47 -19.5 70.5t-65.5 23.5q-33 0 -64.5 -14t-56.5 -41v-357h-110v507h101v-51q27 28 66.5 45t86.5 17q82 0 127 -46.5z" />
    <glyph glyph-name="Omacron" unicode="&#x14c;" horiz-adv-x="715"
d="M526.5 669q68.5 -44 102.5 -122t34 -179v-36q0 -101 -34 -179t-102.5 -122t-168.5 -44t-168.5 44t-102.5 122t-34 179v36q0 101 34 179t102.5 122t168.5 44t168.5 -44zM500 538.5q-47 64.5 -142 64.5t-142.5 -64.5t-47.5 -171.5v-34q0 -106 47.5 -171t142.5 -65t142 64.5
t47 171.5v34q0 107 -47 171.5zM219 860h278v-86h-278v86z" />
    <glyph glyph-name="omacron" unicode="&#x14d;" horiz-adv-x="551"
d="M146.5 20q-53.5 33 -80.5 90t-27 128v31q0 71 27 128t80.5 90t128.5 33q76 0 129 -33t80 -90t27 -128v-31q0 -71 -27 -128t-80 -90t-129 -33q-75 0 -128.5 33zM368 132q31 41 31 109v25q0 68 -31 109t-93 41t-93 -41t-31 -109v-25q0 -68 31 -109t93 -41t93 41zM136 697
h278v-86h-278v86z" />
    <glyph glyph-name="Ohungarumlaut" unicode="&#x150;" horiz-adv-x="715"
d="M526.5 669q68.5 -44 102.5 -122t34 -179v-36q0 -101 -34 -179t-102.5 -122t-168.5 -44t-168.5 44t-102.5 122t-34 179v36q0 101 34 179t102.5 122t168.5 44t168.5 -44zM500 538.5q-47 64.5 -142 64.5t-142.5 -64.5t-47.5 -171.5v-34q0 -106 47.5 -171t142.5 -65t142 64.5
t47 171.5v34q0 107 -47 171.5zM319 893h105l-100 -132h-90zM474 893h104l-99 -132h-91z" />
    <glyph glyph-name="ohungarumlaut" unicode="&#x151;" horiz-adv-x="551"
d="M146.5 20q-53.5 33 -80.5 90t-27 128v31q0 71 27 128t80.5 90t128.5 33q76 0 129 -33t80 -90t27 -128v-31q0 -71 -27 -128t-80 -90t-129 -33q-75 0 -128.5 33zM368 132q31 41 31 109v25q0 68 -31 109t-93 41t-93 -41t-31 -109v-25q0 -68 31 -109t93 -41t93 41zM236 730
h105l-100 -132h-90zM391 730h104l-99 -132h-91z" />
    <glyph glyph-name="OE" unicode="&#x152;" horiz-adv-x="1028"
d="M972 110v-110h-456v32q-32 -22 -73 -33.5t-85 -11.5q-100 0 -168.5 44t-102.5 122t-34 179v36q0 101 34 179t102.5 122t168.5 44q44 0 85 -11.5t73 -33.5v32h454v-110h-340v-173h308v-110h-308v-197h342zM516 152v396q-55 55 -158 55q-95 0 -142.5 -64.5t-47.5 -171.5
v-34q0 -106 47.5 -171t142.5 -65q103 0 158 55z" />
    <glyph glyph-name="oe" unicode="&#x153;" horiz-adv-x="861"
d="M820 218h-317q12 -124 150 -124q74 0 137 38v-106q-22 -17 -61.5 -27.5t-81.5 -10.5q-64 0 -114.5 21t-83.5 61q-29 -39 -74.5 -61t-103.5 -22q-74 0 -126 33t-79 90t-27 128v31q0 71 27 128t79 90t126 33q57 0 101.5 -21t73.5 -59q28 38 70 59t96 21q100 0 154 -61
t54 -170v-71zM538 390q-26 -29 -33 -82h206q-3 55 -27 83t-74 28q-46 0 -72 -29zM391 266q0 68 -30 109t-90 41t-90 -41t-30 -109v-25q0 -68 30 -109t90 -41t90 41t30 109v25z" />
    <glyph glyph-name="Racute" unicode="&#x154;" horiz-adv-x="660"
d="M287 277h-87v-277h-114v700h274q67 0 119.5 -26t82 -74.5t29.5 -111.5q0 -80 -46.5 -134.5t-124.5 -70.5l228 -283h-141zM200 387h158q57 0 88 28t31 73t-31 73.5t-88 28.5h-158v-203zM347 893h122l-99 -132h-108z" />
    <glyph glyph-name="racute" unicode="&#x155;" horiz-adv-x="370"
d="M252.5 490q44.5 21 94.5 22v-114q-47 -3 -90.5 -22.5t-69.5 -60.5v-315h-110v507h101v-76q30 38 74.5 59zM243 730h122l-99 -132h-108z" />
    <glyph glyph-name="Rcommaaccent" unicode="&#x156;" horiz-adv-x="660"
d="M287 277h-87v-277h-114v700h274q67 0 119.5 -26t82 -74.5t29.5 -111.5q0 -80 -46.5 -134.5t-124.5 -70.5l228 -283h-141zM200 387h158q57 0 88 28t31 73t-31 73.5t-88 28.5h-158v-203zM276 -67h114l-60 -156h-108z" />
    <glyph glyph-name="rcommaaccent" unicode="&#x157;" horiz-adv-x="370"
d="M252.5 490q44.5 21 94.5 22v-114q-47 -3 -90.5 -22.5t-69.5 -60.5v-315h-110v507h101v-76q30 38 74.5 59zM74 -67h114l-60 -156h-108z" />
    <glyph glyph-name="Rcaron" unicode="&#x158;" horiz-adv-x="660"
d="M287 277h-87v-277h-114v700h274q67 0 119.5 -26t82 -74.5t29.5 -111.5q0 -80 -46.5 -134.5t-124.5 -70.5l228 -283h-141zM200 387h158q57 0 88 28t31 73t-31 73.5t-88 28.5h-158v-203zM484 893l-87 -132h-145l-87 132h97l62 -77l63 77h97z" />
    <glyph glyph-name="rcaron" unicode="&#x159;" horiz-adv-x="370"
d="M252.5 490q44.5 21 94.5 22v-114q-47 -3 -90.5 -22.5t-69.5 -60.5v-315h-110v507h101v-76q30 38 74.5 59zM380 730l-87 -132h-145l-87 132h97l62 -77l63 77h97z" />
    <glyph glyph-name="Sacute" unicode="&#x15a;" horiz-adv-x="576"
d="M144 4.5q-64 17.5 -98 42.5v114q105 -66 230 -66q71 0 107.5 25t36.5 69q0 40 -27.5 63t-89.5 44l-54 19q-67 24 -107.5 47t-64 60t-23.5 93q0 61 32.5 106t89.5 68.5t129 23.5q118 0 184 -40v-112q-82 44 -186 44q-64 0 -99.5 -21.5t-35.5 -64.5q0 -38 28.5 -58.5
t94.5 -43.5l51 -18q92 -32 142 -77t50 -129q0 -64 -32.5 -110.5t-90.5 -71t-133 -24.5q-70 0 -134 17.5zM328 893h122l-99 -132h-108z" />
    <glyph glyph-name="sacute" unicode="&#x15b;" horiz-adv-x="441"
d="M117 0.5q-45 12.5 -71 31.5v107q82 -50 169 -50q43 0 63 14t20 38q0 22 -15 34.5t-50 24.5l-41 15q-75 26 -109.5 58.5t-34.5 91.5q0 71 52 112.5t141 41.5q40 0 76 -7.5t59 -20.5v-107q-64 34 -138 34q-39 0 -59.5 -13t-20.5 -36q0 -20 15.5 -31t53.5 -24l39 -14
q72 -24 107 -57.5t35 -96.5q0 -72 -50.5 -115t-143.5 -43q-52 0 -97 12.5zM260 730h122l-99 -132h-108z" />
    <glyph glyph-name="Scedilla" unicode="&#x15e;" horiz-adv-x="576"
d="M474 51q-60 -54 -160 -62l-20 -42q46 -4 75 -26t29 -64q0 -48 -35 -73t-89 -25q-75 0 -117 34l26 55q39 -27 89 -27q24 0 38.5 9.5t14.5 26.5q0 33 -63 33q-18 0 -30 -3l-24 32l33 69q-60 4 -112.5 21t-82.5 38v114q105 -66 230 -66q71 0 107.5 25t36.5 69q0 40 -27.5 63
t-89.5 44l-54 19q-67 24 -107.5 47t-64 60t-23.5 93q0 61 32.5 106t89.5 68.5t129 23.5q118 0 184 -40v-112q-82 44 -186 44q-64 0 -99.5 -21.5t-35.5 -64.5q0 -38 28.5 -58.5t94.5 -43.5l51 -18q92 -32 142 -77t50 -129q0 -88 -60 -142z" />
    <glyph glyph-name="scedilla" unicode="&#x15f;" horiz-adv-x="441"
d="M367 40.5q-41 -41.5 -116 -50.5l-21 -43q46 -3 75 -25.5t29 -64.5q0 -48 -34.5 -73t-88.5 -25q-75 0 -117 34l26 55q39 -27 89 -27q24 0 38.5 9.5t14.5 26.5q0 33 -63 33q-18 0 -30 -3l-24 32l34 71q-42 4 -77.5 15t-55.5 27v107q82 -50 169 -50q43 0 63 14t20 38
q0 22 -15 34.5t-50 24.5l-41 15q-75 26 -109.5 58.5t-34.5 91.5q0 71 52 112.5t141 41.5q40 0 76 -7.5t59 -20.5v-107q-64 34 -138 34q-39 0 -59.5 -13t-20.5 -36q0 -20 15.5 -31t53.5 -24l39 -14q72 -24 107 -57.5t35 -96.5q0 -64 -41 -105.5z" />
    <glyph glyph-name="Scaron" unicode="&#x160;" horiz-adv-x="576"
d="M144 4.5q-64 17.5 -98 42.5v114q105 -66 230 -66q71 0 107.5 25t36.5 69q0 40 -27.5 63t-89.5 44l-54 19q-67 24 -107.5 47t-64 60t-23.5 93q0 61 32.5 106t89.5 68.5t129 23.5q118 0 184 -40v-112q-82 44 -186 44q-64 0 -99.5 -21.5t-35.5 -64.5q0 -38 28.5 -58.5
t94.5 -43.5l51 -18q92 -32 142 -77t50 -129q0 -64 -32.5 -110.5t-90.5 -71t-133 -24.5q-70 0 -134 17.5zM465 893l-87 -132h-145l-87 132h97l62 -77l63 77h97z" />
    <glyph glyph-name="scaron" unicode="&#x161;" horiz-adv-x="441"
d="M117 0.5q-45 12.5 -71 31.5v107q82 -50 169 -50q43 0 63 14t20 38q0 22 -15 34.5t-50 24.5l-41 15q-75 26 -109.5 58.5t-34.5 91.5q0 71 52 112.5t141 41.5q40 0 76 -7.5t59 -20.5v-107q-64 34 -138 34q-39 0 -59.5 -13t-20.5 -36q0 -20 15.5 -31t53.5 -24l39 -14
q72 -24 107 -57.5t35 -96.5q0 -72 -50.5 -115t-143.5 -43q-52 0 -97 12.5zM397 730l-87 -132h-145l-87 132h97l62 -77l63 77h97z" />
    <glyph glyph-name="uni0162" unicode="&#x162;" horiz-adv-x="597"
d="M335 -1l-26 -52q46 -3 75 -25.5t29 -64.5q0 -48 -34.5 -73t-88.5 -25q-75 0 -117 34l26 55q39 -27 89 -27q24 0 38.5 9.5t14.5 26.5q0 33 -63 33q-18 0 -30 -3l-24 32l38 80h-20v591h-212v110h537v-110h-211v-591h-21z" />
    <glyph glyph-name="uni0163" unicode="&#x163;" horiz-adv-x="364"
d="M300 -78.5q29 -22.5 29 -64.5q0 -48 -35 -73t-88 -25q-75 0 -117 34l26 55q39 -27 89 -27q24 0 38.5 9.5t14.5 26.5q0 33 -63 33q-18 0 -30 -3l-24 32l40 84q-76 28 -76 126v281h-76v97h76v123l110 37v-160h112v-97h-112v-250q0 -34 15 -47.5t47 -13.5q26 0 50 8v-100
q-32 -15 -76 -15h-3l-22 -45q46 -3 75 -25.5z" />
    <glyph glyph-name="Tcaron" unicode="&#x164;" horiz-adv-x="597"
d="M242 -1v591h-212v110h537v-110h-211v-591h-114zM456 893l-87 -132h-145l-87 132h97l62 -77l63 77h97z" />
    <glyph glyph-name="tcaron" unicode="&#x165;" horiz-adv-x="364"
d="M214 410v-250q0 -34 15 -47.5t47 -13.5q26 0 50 8v-100q-32 -15 -76 -15q-73 0 -109.5 35t-36.5 102v281h-76v97h76v123l110 37v-160h112v-97h-112zM303 741h104l-58 -181h-91z" />
    <glyph glyph-name="Tbar" unicode="&#x166;" horiz-adv-x="597"
d="M356 590v-197h115v-101h-115v-293h-114v293h-116v101h116v197h-212v110h537v-110h-211z" />
    <glyph glyph-name="tbar" unicode="&#x167;" horiz-adv-x="364"
d="M214 410v-104h112v-84h-112v-62q0 -34 15 -47.5t47 -13.5q26 0 50 8v-100q-32 -15 -76 -15q-73 0 -109.5 35t-36.5 102v93h-77v84h77v104h-76v97h76v123l110 37v-160h112v-97h-112z" />
    <glyph glyph-name="Umacron" unicode="&#x16a;" horiz-adv-x="677"
d="M144.5 58q-65.5 71 -65.5 187v455h115v-453q0 -70 34.5 -111t109.5 -41q76 0 110.5 41t34.5 111v453h115v-455q0 -116 -65.5 -187t-194.5 -71q-128 0 -193.5 71zM199 860h278v-86h-278v86z" />
    <glyph glyph-name="umacron" unicode="&#x16b;" horiz-adv-x="564"
d="M487 507v-507h-101v50q-27 -27 -65.5 -44t-84.5 -17q-80 0 -124.5 46.5t-44.5 126.5v345h110v-318q0 -47 18.5 -70.5t63.5 -23.5q32 0 63 14t55 41v357h110zM140 697h278v-86h-278v86z" />
    <glyph glyph-name="Uring" unicode="&#x16e;" horiz-adv-x="677"
d="M144.5 58q-65.5 71 -65.5 187v455h115v-453q0 -70 34.5 -111t109.5 -41q76 0 110.5 41t34.5 111v453h115v-455q0 -116 -65.5 -187t-194.5 -71q-128 0 -193.5 71zM249 701.5q-36 35.5 -36 84.5t36 84.5t89 35.5t89.5 -35.5t36.5 -84.5t-36.5 -84.5t-89.5 -35.5t-89 35.5z
M383.5 741.5q17.5 17.5 17.5 44.5t-17.5 44.5t-45.5 17.5t-45.5 -17.5t-17.5 -44.5q0 -26 17.5 -44t45.5 -18t45.5 17.5z" />
    <glyph glyph-name="uring" unicode="&#x16f;" horiz-adv-x="564"
d="M487 507v-507h-101v50q-27 -27 -65.5 -44t-84.5 -17q-80 0 -124.5 46.5t-44.5 126.5v345h110v-318q0 -47 18.5 -70.5t63.5 -23.5q32 0 63 14t55 41v357h110zM197.5 604.5q-32.5 32.5 -32.5 77.5t32.5 77t81.5 32t81.5 -32t32.5 -77t-32.5 -77.5t-81.5 -32.5t-81.5 32.5z
M318 643.5q15 15.5 15 38.5q0 22 -15 37.5t-39 15.5t-39 -15.5t-15 -37.5q0 -23 15 -38.5t39 -15.5t39 15.5z" />
    <glyph glyph-name="Uhungarumlaut" unicode="&#x170;" horiz-adv-x="677"
d="M144.5 58q-65.5 71 -65.5 187v455h115v-453q0 -70 34.5 -111t109.5 -41q76 0 110.5 41t34.5 111v453h115v-455q0 -116 -65.5 -187t-194.5 -71q-128 0 -193.5 71zM299 893h105l-100 -132h-90zM454 893h104l-99 -132h-91z" />
    <glyph glyph-name="uhungarumlaut" unicode="&#x171;" horiz-adv-x="564"
d="M487 507v-507h-101v50q-27 -27 -65.5 -44t-84.5 -17q-80 0 -124.5 46.5t-44.5 126.5v345h110v-318q0 -47 18.5 -70.5t63.5 -23.5q32 0 63 14t55 41v357h110zM240 730h105l-100 -132h-90zM395 730h104l-99 -132h-91z" />
    <glyph glyph-name="Uogonek" unicode="&#x172;" horiz-adv-x="677"
d="M598 700v-455q0 -73 -26 -129.5t-79 -89.5q-29 -19 -51.5 -49t-22.5 -59q0 -22 12 -32.5t33 -10.5q16 0 28 3v-77q-18 -6 -50 -6q-52 0 -83.5 27t-31.5 73q0 49 36 93q-8 -1 -25 -1q-128 0 -193.5 71t-65.5 187v455h115v-453q0 -70 34.5 -111t109.5 -41q76 0 110.5 41
t34.5 111v453h115z" />
    <glyph glyph-name="uogonek" unicode="&#x173;" horiz-adv-x="564"
d="M435 -37q-21 -22 -21 -49q0 -18 12.5 -28.5t32.5 -10.5q15 0 28 3v-77q-18 -6 -50 -6q-52 0 -83.5 27t-31.5 71q0 34 17 64t47 52v41q-27 -27 -65.5 -44t-84.5 -17q-80 0 -124.5 46.5t-44.5 126.5v345h110v-318q0 -47 18.5 -70.5t63.5 -23.5q32 0 63 14t55 41v357h110
v-507q-31 -15 -52 -37z" />
    <glyph glyph-name="Wcircumflex" unicode="&#x174;" horiz-adv-x="998"
d="M966 700l-177 -700h-152l-139 532l-139 -532h-149l-178 700h120l139 -584l150 584h118l150 -584l139 584h118zM563 761l-63 77l-62 -77h-97l87 132h145l87 -132h-97z" />
    <glyph glyph-name="wcircumflex" unicode="&#x175;" horiz-adv-x="817"
d="M785 507l-132 -507h-142l-102 345l-103 -345h-143l-132 507h120l93 -387l113 387h105l114 -388l93 388h116zM470 598l-63 77l-62 -77h-97l87 132h145l87 -132h-97z" />
    <glyph glyph-name="Ycircumflex" unicode="&#x176;" horiz-adv-x="615"
d="M364 304v-304h-113v304l-240 396h129l169 -281l168 281h127zM370 761l-63 77l-62 -77h-97l87 132h145l87 -132h-97z" />
    <glyph glyph-name="ycircumflex" unicode="&#x177;" horiz-adv-x="523"
d="M504 507l-176 -489q-28 -77 -54.5 -121.5t-63.5 -66.5t-93 -22q-45 0 -68 10v103q19 -8 51 -8q39 0 65 19t42 61l-188 514h118l126 -355l124 355h117zM324 598l-63 77l-62 -77h-97l87 132h145l87 -132h-97z" />
    <glyph glyph-name="Ydieresis" unicode="&#x178;" horiz-adv-x="615"
d="M364 304v-304h-113v304l-240 396h129l169 -281l168 281h127zM149 774.5q-20 19.5 -20 46.5t20 46.5t47 19.5q28 0 48 -19.5t20 -46.5q0 -28 -20 -47t-48 -19q-27 0 -47 19.5zM372 774q-20 19 -20 47q0 27 20 46.5t48 19.5q27 0 47 -19.5t20 -46.5t-20 -46.5t-47 -19.5
q-28 0 -48 19z" />
    <glyph glyph-name="Zacute" unicode="&#x179;" horiz-adv-x="623"
d="M53 105l376 485h-351v110h492v-105l-377 -485h377v-110h-517v105zM351 893h122l-99 -132h-108z" />
    <glyph glyph-name="zacute" unicode="&#x17a;" horiz-adv-x="496"
d="M47 95l264 315h-251v97h389v-95l-265 -315h265v-97h-402v95zM288 730h122l-99 -132h-108z" />
    <glyph glyph-name="Zdotaccent" unicode="&#x17b;" horiz-adv-x="623"
d="M53 105l376 485h-351v110h492v-105l-377 -485h377v-110h-517v105zM282.5 775q-20.5 20 -20.5 48t20.5 48t48.5 20q29 0 49 -20t20 -48t-20 -48t-49 -20q-28 0 -48.5 20z" />
    <glyph glyph-name="zdotaccent" unicode="&#x17c;" horiz-adv-x="496"
d="M47 95l264 315h-251v97h389v-95l-265 -315h265v-97h-402v95zM219.5 612q-20.5 20 -20.5 48t20.5 48t48.5 20q29 0 49 -20t20 -48t-20 -48t-49 -20q-28 0 -48.5 20z" />
    <glyph glyph-name="Zcaron" unicode="&#x17d;" horiz-adv-x="623"
d="M53 105l376 485h-351v110h492v-105l-377 -485h377v-110h-517v105zM488 893l-87 -132h-145l-87 132h97l62 -77l63 77h97z" />
    <glyph glyph-name="zcaron" unicode="&#x17e;" horiz-adv-x="496"
d="M47 95l264 315h-251v97h389v-95l-265 -315h265v-97h-402v95zM425 730l-87 -132h-145l-87 132h97l62 -77l63 77h97z" />
    <glyph glyph-name="florin" unicode="&#x192;"
d="M350.5 589.5q-17.5 -17.5 -17.5 -58.5v-52h112v-86h-112v-236q0 -87 -41.5 -128t-116.5 -41q-49 0 -76 11v100q19 -9 52 -9q36 0 54 18.5t18 61.5v223h-105v86h105v69q0 83 41.5 123.5t115.5 40.5q21 0 41.5 -4t32.5 -10v-99q-19 8 -49 8q-37 0 -54.5 -17.5z" />
    <glyph glyph-name="AEacute" unicode="&#x1fc;" horiz-adv-x="961"
d="M905 110v-110h-457v177h-230l-96 -177h-132l386 700h527v-110h-341v-173h309v-110h-309v-197h343zM448 287v316l-171 -316h171zM664 893h122l-99 -132h-108z" />
    <glyph glyph-name="aeacute" unicode="&#x1fd;" horiz-adv-x="799"
d="M757 218h-317q12 -124 149 -124q75 0 138 38v-106q-22 -17 -61 -27.5t-82 -10.5q-122 0 -190 71q-71 -69 -181 -69q-76 0 -124 39.5t-48 108.5q0 170 289 177v11q0 47 -23.5 66.5t-77.5 19.5q-45 0 -86.5 -15t-70.5 -38v114q30 21 74 33.5t97 12.5q107 0 158 -56
q57 57 149 57q100 0 153.5 -61t53.5 -170v-71zM649 308q-3 55 -27 83t-74 28q-46 0 -72.5 -29t-33.5 -82h207zM345 141q-12 36 -15 81q-178 -7 -178 -77q0 -52 77 -52q73 0 116 48zM431 730h122l-99 -132h-108z" />
    <glyph glyph-name="Scommaaccent" unicode="&#x218;" horiz-adv-x="576"
d="M144 4.5q-64 17.5 -98 42.5v114q105 -66 230 -66q71 0 107.5 25t36.5 69q0 40 -27.5 63t-89.5 44l-54 19q-67 24 -107.5 47t-64 60t-23.5 93q0 61 32.5 106t89.5 68.5t129 23.5q118 0 184 -40v-112q-82 44 -186 44q-64 0 -99.5 -21.5t-35.5 -64.5q0 -38 28.5 -58.5
t94.5 -43.5l51 -18q92 -32 142 -77t50 -129q0 -64 -32.5 -110.5t-90.5 -71t-133 -24.5q-70 0 -134 17.5zM236 -67h114l-60 -156h-108z" />
    <glyph glyph-name="scommaaccent" unicode="&#x219;" horiz-adv-x="441"
d="M117 0.5q-45 12.5 -71 31.5v107q82 -50 169 -50q43 0 63 14t20 38q0 22 -15 34.5t-50 24.5l-41 15q-75 26 -109.5 58.5t-34.5 91.5q0 71 52 112.5t141 41.5q40 0 76 -7.5t59 -20.5v-107q-64 34 -138 34q-39 0 -59.5 -13t-20.5 -36q0 -20 15.5 -31t53.5 -24l39 -14
q72 -24 107 -57.5t35 -96.5q0 -72 -50.5 -115t-143.5 -43q-52 0 -97 12.5zM172 -67h114l-60 -156h-108z" />
    <glyph glyph-name="uni021A" unicode="&#x21a;" horiz-adv-x="597"
d="M242 -1v591h-212v110h537v-110h-211v-591h-114zM248 -67h114l-60 -156h-108z" />
    <glyph glyph-name="uni021B" unicode="&#x21b;" horiz-adv-x="364"
d="M214 410v-250q0 -34 15 -47.5t47 -13.5q26 0 50 8v-100q-32 -15 -76 -15q-73 0 -109.5 35t-36.5 102v281h-76v97h76v123l110 37v-160h112v-97h-112zM167 -67h114l-60 -156h-108z" />
    <glyph glyph-name="uni0237" unicode="&#x237;" horiz-adv-x="265"
d="M187 507v-531q0 -87 -41.5 -128t-115.5 -41q-49 0 -76 11v100q18 -9 51 -9q37 0 54.5 18t17.5 62v518h110z" />
    <glyph glyph-name="circumflex" unicode="&#x2c6;" horiz-adv-x="405"
d="M265 598l-63 77l-62 -77h-97l87 132h145l87 -132h-97z" />
    <glyph glyph-name="caron" unicode="&#x2c7;" horiz-adv-x="405"
d="M362 730l-87 -132h-145l-87 132h97l62 -77l63 77h97z" />
    <glyph glyph-name="breve" unicode="&#x2d8;" horiz-adv-x="389"
d="M84.5 629.5q-38.5 38.5 -41.5 98.5h77q3 -25 21 -43t53 -18t53.5 18t21.5 43h77q-3 -60 -41.5 -98.5t-110.5 -38.5q-71 0 -109.5 38.5z" />
    <glyph glyph-name="dotaccent" unicode="&#x2d9;" horiz-adv-x="224"
d="M63.5 612q-20.5 20 -20.5 48t20.5 48t48.5 20q29 0 49 -20t20 -48t-20 -48t-49 -20q-28 0 -48.5 20z" />
    <glyph glyph-name="ring" unicode="&#x2da;" horiz-adv-x="314"
d="M75.5 604.5q-32.5 32.5 -32.5 77.5t32.5 77t81.5 32t81.5 -32t32.5 -77t-32.5 -77.5t-81.5 -32.5t-81.5 32.5zM196 643.5q15 15.5 15 38.5q0 22 -15 37.5t-39 15.5t-39 -15.5t-15 -37.5q0 -23 15 -38.5t39 -15.5t39 15.5z" />
    <glyph glyph-name="ogonek" unicode="&#x2db;" horiz-adv-x="251"
d="M74.5 -178q-31.5 27 -31.5 71q0 46 29 82t79 59l57 -34q-31 -15 -52 -37t-21 -49q0 -18 12.5 -28.5t32.5 -10.5q14 0 28 3v-77q-18 -6 -50 -6q-52 0 -83.5 27z" />
    <glyph glyph-name="tilde" unicode="&#x2dc;" horiz-adv-x="400"
d="M134 715q32 0 67 -21l23 -14q26 -16 41 -16q13 0 18.5 13.5t6.5 37.5h68q-3 -125 -92 -125q-32 0 -66 21l-23 14q-26 16 -41 16q-24 0 -26 -51h-67q3 125 91 125z" />
    <glyph glyph-name="hungarumlaut" unicode="&#x2dd;" horiz-adv-x="430"
d="M128 730h105l-100 -132h-90zM283 730h104l-99 -132h-91z" />
    <glyph glyph-name="gravecomb" unicode="&#x300;" horiz-adv-x="0"
d="M-250 730h122l85 -132h-108z" />
    <glyph glyph-name="acutecomb" unicode="&#x301;" horiz-adv-x="0"
d="M-165 730h122l-99 -132h-108z" />
    <glyph glyph-name="uni0302" unicode="&#x302;" horiz-adv-x="0"
d="M-140 598l-63 77l-62 -77h-97l87 132h145l87 -132h-97z" />
    <glyph glyph-name="tildecomb" unicode="&#x303;" horiz-adv-x="0"
d="M-266 715q32 0 67 -21l23 -14q26 -16 41 -16q13 0 18.5 13.5t6.5 37.5h68q-3 -125 -92 -125q-32 0 -66 21l-23 14q-26 16 -41 16q-24 0 -26 -51h-67q3 125 91 125z" />
    <glyph glyph-name="uni0304" unicode="&#x304;" horiz-adv-x="0"
d="M-321 697h278v-86h-278v86z" />
    <glyph glyph-name="uni0306" unicode="&#x306;" horiz-adv-x="0"
d="M-304.5 629.5q-38.5 38.5 -41.5 98.5h77q3 -25 21 -43t53 -18t53.5 18t21.5 43h77q-3 -60 -41.5 -98.5t-110.5 -38.5q-71 0 -109.5 38.5z" />
    <glyph glyph-name="uni0307" unicode="&#x307;" horiz-adv-x="0"
d="M-160.5 612q-20.5 20 -20.5 48t20.5 48t48.5 20q29 0 49 -20t20 -48t-20 -48t-49 -20q-28 0 -48.5 20z" />
    <glyph glyph-name="uni0308" unicode="&#x308;" horiz-adv-x="0"
d="M-358 614.5q-20 19.5 -20 46.5t20 46.5t47 19.5q28 0 48 -19.5t20 -46.5q0 -28 -20 -47t-48 -19q-27 0 -47 19.5zM-158 614.5q-20 19.5 -20 46.5t20 46.5t47 19.5q28 0 48 -19.5t20 -46.5q0 -28 -20 -47t-48 -19q-27 0 -47 19.5z" />
    <glyph glyph-name="uni030A" unicode="&#x30a;" horiz-adv-x="0"
d="M-238.5 604.5q-32.5 32.5 -32.5 77.5t32.5 77t81.5 32t81.5 -32t32.5 -77t-32.5 -77.5t-81.5 -32.5t-81.5 32.5zM-118 643.5q15 15.5 15 38.5q0 22 -15 37.5t-39 15.5t-39 -15.5t-15 -37.5q0 -23 15 -38.5t39 -15.5t39 15.5z" />
    <glyph glyph-name="uni030B" unicode="&#x30b;" horiz-adv-x="0"
d="M-302 730h105l-100 -132h-90zM-147 730h104l-99 -132h-91z" />
    <glyph glyph-name="uni030C" unicode="&#x30c;" horiz-adv-x="0"
d="M-43 730l-87 -132h-145l-87 132h97l62 -77l63 77h97z" />
    <glyph glyph-name="uni0312" unicode="&#x312;" horiz-adv-x="0"
d="M-151 754h108l-54 -156h-114z" />
    <glyph glyph-name="uni0326" unicode="&#x326;" horiz-adv-x="0"
d="M-157 -67h114l-60 -156h-108z" />
    <glyph glyph-name="uni0327" unicode="&#x327;" horiz-adv-x="0"
d="M-72 -78.5q29 -22.5 29 -64.5q0 -48 -35 -73t-88 -25q-75 0 -117 34l26 55q39 -27 89 -27q24 0 38.5 9.5t14.5 26.5q0 33 -63 33q-18 0 -30 -3l-24 32l46 96l65 -15l-26 -53q46 -3 75 -25.5z" />
    <glyph glyph-name="uni0328" unicode="&#x328;" horiz-adv-x="0"
d="M-176.5 -178q-31.5 27 -31.5 71q0 46 29 82t79 59l57 -34q-31 -15 -52 -37t-21 -49q0 -18 12.5 -28.5t32.5 -10.5q14 0 28 3v-77q-18 -6 -50 -6q-52 0 -83.5 27z" />
    <glyph glyph-name="uni0335" unicode="&#x335;" horiz-adv-x="0"
d="M-333 401h290v-84h-290v84z" />
    <glyph glyph-name="uni0336" unicode="&#x336;" horiz-adv-x="0"
d="M-659 405h616v-92h-616v92z" />
    <glyph glyph-name="uni0337" unicode="&#x337;" horiz-adv-x="0"
d="M-297 318l255 148v-109l-255 -148v109z" />
    <glyph glyph-name="uni0338" unicode="&#x338;" horiz-adv-x="0"
d="M-461 21l356 507l62 -42l-357 -507z" />
    <glyph glyph-name="uni037E" unicode="&#x37e;" horiz-adv-x="275"
d="M80 99h111l-72 -215h-103zM84.5 375.5q-21.5 21.5 -21.5 52.5t21.5 52.5t52.5 21.5t53 -21.5t22 -52.5t-22 -52.5t-53 -21.5t-52.5 21.5z" />
    <glyph glyph-name="tonos" unicode="&#x384;" horiz-adv-x="243"
d="M90 750h111l-68 -152h-90z" />
    <glyph glyph-name="dieresistonos" unicode="&#x385;" horiz-adv-x="475"
d="M214 746h94l-57 -153h-76zM60 624q-17 17 -17 41t17 41t41 17q23 0 40 -17t17 -41t-17 -41t-40 -17q-24 0 -41 17zM334 624q-17 17 -17 41t16.5 41t40.5 17t41 -17t17 -41t-17 -41t-41 -17q-23 0 -40 17z" />
    <glyph glyph-name="Alphatonos" unicode="&#x386;" horiz-adv-x="674"
d="M479 177h-287l-60 -177h-119l244 700h160l244 -700h-122zM441 287l-105 311l-106 -311h211zM39 700h111l-58 -202h-88z" />
    <glyph glyph-name="anoteleia" unicode="&#x387;" horiz-adv-x="235"
d="M64.5 285.5q-21.5 21.5 -21.5 52.5t21.5 52.5t52.5 21.5t53 -21.5t22 -52.5t-22 -52.5t-53 -21.5t-52.5 21.5z" />
    <glyph glyph-name="Epsilontonos" unicode="&#x388;" horiz-adv-x="724"
d="M669 110v-110h-457v700h455v-110h-341v-173h309v-110h-309v-197h343zM35 700h111l-58 -202h-88z" />
    <glyph glyph-name="Etatonos" unicode="&#x389;" horiz-adv-x="816"
d="M730 700v-700h-114v307h-290v-307h-114v700h114v-283h290v283h114zM35 700h111l-58 -202h-88z" />
    <glyph glyph-name="Iotatonos" unicode="&#x38a;" horiz-adv-x="549"
d="M409 603v-506h94v-97h-302v97h94v506h-94v97h302v-97h-94zM35 700h111l-58 -202h-88z" />
    <glyph glyph-name="Omicrontonos" unicode="&#x38c;" horiz-adv-x="803"
d="M613.5 669q68.5 -44 102.5 -122t34 -179v-36q0 -101 -34 -179t-102.5 -122t-168.5 -44t-168.5 44t-102.5 122t-34 179v36q0 101 34 179t102.5 122t168.5 44t168.5 -44zM587 538.5q-47 64.5 -142 64.5t-142.5 -64.5t-47.5 -171.5v-34q0 -106 47.5 -171t142.5 -65t142 64.5
t47 171.5v34q0 107 -47 171.5zM35 700h111l-58 -202h-88z" />
    <glyph glyph-name="Upsilontonos" unicode="&#x38e;" horiz-adv-x="781"
d="M530 304v-304h-113v304l-240 396h129l169 -281l168 281h127zM35 700h111l-58 -202h-88z" />
    <glyph glyph-name="Omegatonos" unicode="&#x38f;" horiz-adv-x="797"
d="M713.5 213q-26.5 -64 -74.5 -104h101v-110h-254v97q139 69 139 255v34q0 103 -49 160.5t-136 57.5t-135.5 -57.5t-48.5 -160.5v-34q0 -187 138 -255v-97h-254v110h101q-48 40 -74.5 104t-26.5 140v36q0 99 36.5 172t104.5 112.5t159 39.5q92 0 159.5 -39.5t104 -112.5
t36.5 -172v-36q0 -76 -26.5 -140zM35 700h111l-58 -202h-88z" />
    <glyph glyph-name="iotadieresistonos" unicode="&#x390;" horiz-adv-x="278"
d="M99.5 27q-31.5 34 -31.5 101v379h110v-355q0 -32 9.5 -43.5t34.5 -11.5q17 0 33 4v-99q-34 -9 -63 -9q-61 0 -92.5 34zM105 746h94l-57 -153h-76zM-49 624q-17 17 -17 41t17 41t41 17q23 0 40 -17t17 -41t-17 -41t-40 -17q-24 0 -41 17zM225 624q-17 17 -17 41t16.5 41
t40.5 17t41 -17t17 -41t-17 -41t-41 -17q-23 0 -40 17z" />
    <glyph glyph-name="Alpha" unicode="&#x391;" horiz-adv-x="674"
d="M479 177h-287l-60 -177h-119l244 700h160l244 -700h-122zM441 287l-105 311l-106 -311h211z" />
    <glyph glyph-name="Beta" unicode="&#x392;" horiz-adv-x="646"
d="M572.5 301.5q25.5 -42.5 25.5 -98.5q0 -61 -28 -107t-78 -71t-114 -25h-292v700h283q61 0 109 -23.5t75 -67t27 -100.5q0 -46 -20.5 -81.5t-58.5 -58.5q46 -25 71.5 -67.5zM200 590v-175h167q48 0 73.5 24.5t25.5 63.5q0 38 -25.5 62.5t-73.5 24.5h-167zM456.5 137.5
q28.5 27.5 28.5 70.5t-28.5 70t-80.5 27h-176v-195h176q52 0 80.5 27.5z" />
    <glyph glyph-name="Gamma" unicode="&#x393;" horiz-adv-x="551"
d="M86 700h435v-110h-321v-590h-114v700z" />
    <glyph glyph-name="uni0394" unicode="&#x394;" horiz-adv-x="674"
d="M661 0h-648l244 700h160zM169 110h333l-166 486z" />
    <glyph glyph-name="Epsilon" unicode="&#x395;" horiz-adv-x="599"
d="M543 110v-110h-457v700h455v-110h-341v-173h309v-110h-309v-197h343z" />
    <glyph glyph-name="Zeta" unicode="&#x396;" horiz-adv-x="623"
d="M53 105l376 485h-351v110h492v-105l-377 -485h377v-110h-517v105z" />
    <glyph glyph-name="Eta" unicode="&#x397;" horiz-adv-x="690"
d="M604 700v-700h-114v307h-290v-307h-114v700h114v-283h290v283h114z" />
    <glyph glyph-name="Theta" unicode="&#x398;" horiz-adv-x="715"
d="M526.5 669q68.5 -44 102.5 -122t34 -179v-36q0 -101 -34 -179t-102.5 -122t-168.5 -44t-168.5 44t-102.5 122t-34 179v36q0 101 34 179t102.5 122t168.5 44t168.5 -44zM500 538.5q-47 64.5 -142 64.5t-142.5 -64.5t-47.5 -171.5v-34q0 -106 47.5 -171t142.5 -65t142 64.5
t47 171.5v34q0 107 -47 171.5zM242 405h232v-106h-232v106z" />
    <glyph glyph-name="Iota" unicode="&#x399;" horiz-adv-x="412"
d="M263 603v-506h94v-97h-302v97h94v506h-94v97h302v-97h-94z" />
    <glyph glyph-name="Kappa" unicode="&#x39a;" horiz-adv-x="654"
d="M511 0l-311 333v-333h-114v700h114v-315l293 315h149l-318 -337l340 -363h-153z" />
    <glyph glyph-name="Lambda" unicode="&#x39b;" horiz-adv-x="660"
d="M523 0l-194 595l-195 -595h-119l235 700h160l235 -700h-122z" />
    <glyph glyph-name="Mu" unicode="&#x39c;" horiz-adv-x="835"
d="M749 700v-700h-114v549l-178 -405h-83l-178 406v-550h-110v700h150l182 -418l182 418h149z" />
    <glyph glyph-name="Nu" unicode="&#x39d;" horiz-adv-x="708"
d="M621 700v-700h-121l-304 522v-522h-110v700h125l300 -515v515h110z" />
    <glyph glyph-name="Xi" unicode="&#x39e;" horiz-adv-x="575"
d="M58 700h459v-110h-459v110zM92 417h391v-110h-391v110zM56 110h463v-110h-463v110z" />
    <glyph glyph-name="Omicron" unicode="&#x39f;" horiz-adv-x="715"
d="M526.5 669q68.5 -44 102.5 -122t34 -179v-36q0 -101 -34 -179t-102.5 -122t-168.5 -44t-168.5 44t-102.5 122t-34 179v36q0 101 34 179t102.5 122t168.5 44t168.5 -44zM500 538.5q-47 64.5 -142 64.5t-142.5 -64.5t-47.5 -171.5v-34q0 -106 47.5 -171t142.5 -65t142 64.5
t47 171.5v34q0 107 -47 171.5z" />
    <glyph glyph-name="Pi" unicode="&#x3a0;" horiz-adv-x="680"
d="M86 700h508v-700h-114v590h-280v-590h-114v700z" />
    <glyph glyph-name="Rho" unicode="&#x3a1;" horiz-adv-x="616"
d="M473.5 673q52.5 -27 82 -76.5t29.5 -115.5t-29.5 -115.5t-82 -76.5t-119.5 -27h-154v-262h-114v700h268q67 0 119.5 -27zM440 402.5q31 30.5 31 78.5t-31 78.5t-88 30.5h-152v-218h152q57 0 88 30.5z" />
    <glyph glyph-name="Sigma" unicode="&#x3a3;" horiz-adv-x="590"
d="M51 105l202 258l-192 236v101h480v-110h-336l183 -228l-196 -252h363v-110h-504v105z" />
    <glyph glyph-name="Tau" unicode="&#x3a4;" horiz-adv-x="597"
d="M242 -1v591h-212v110h537v-110h-211v-591h-114z" />
    <glyph glyph-name="Upsilon" unicode="&#x3a5;" horiz-adv-x="615"
d="M364 304v-304h-113v304l-240 396h129l169 -281l168 281h127z" />
    <glyph glyph-name="Phi" unicode="&#x3a6;" horiz-adv-x="767"
d="M648.5 563q76.5 -79 76.5 -202v-16q0 -123 -76.5 -202t-208.5 -94v-80h-113v80q-131 15 -207.5 94t-76.5 202v16q0 123 76.5 202t207.5 94v74h113v-74q132 -15 208.5 -94zM199 215q46 -50 131 -62v400q-85 -12 -131 -62t-46 -131v-14q0 -81 46 -131zM615 360
q0 81 -46.5 131t-130.5 62v-400q84 12 130.5 62t46.5 131v14z" />
    <glyph glyph-name="Chi" unicode="&#x3a7;" horiz-adv-x="671"
d="M513 0l-178 275l-178 -275h-131l235 358l-225 342h131l168 -259l168 259h131l-223 -342l233 -358h-131z" />
    <glyph glyph-name="Psi" unicode="&#x3a8;" horiz-adv-x="763"
d="M717 700v-200q0 -151 -67.5 -227.5t-211.5 -88.5v-184h-113v184q-144 11 -211.5 88t-67.5 228v200h112v-191q0 -109 38.5 -160t129.5 -61v412h111v-412q92 10 130 61t38 160v191h112z" />
    <glyph glyph-name="uni03A9" unicode="&#x3a9;" horiz-adv-x="714"
d="M630.5 213q-26.5 -64 -74.5 -104h101v-110h-254v97q139 69 139 255v34q0 103 -49 160.5t-136 57.5t-135.5 -57.5t-48.5 -160.5v-34q0 -187 138 -255v-97h-254v110h101q-48 40 -74.5 104t-26.5 140v36q0 99 36.5 172t104.5 112.5t159 39.5q92 0 159.5 -39.5t104 -112.5
t36.5 -172v-36q0 -76 -26.5 -140z" />
    <glyph glyph-name="Iotadieresis" unicode="&#x3aa;" horiz-adv-x="412"
d="M263 603v-506h94v-97h-302v97h94v506h-94v97h302v-97h-94zM47 774.5q-20 19.5 -20 46.5t20 46.5t47 19.5q28 0 48 -19.5t20 -46.5q0 -28 -20 -47t-48 -19q-27 0 -47 19.5zM270 774q-20 19 -20 47q0 27 20 46.5t48 19.5q27 0 47 -19.5t20 -46.5t-20 -46.5t-47 -19.5
q-28 0 -48 19z" />
    <glyph glyph-name="Upsilondieresis" unicode="&#x3ab;" horiz-adv-x="615"
d="M364 304v-304h-113v304l-240 396h129l169 -281l168 281h127zM149 774.5q-20 19.5 -20 46.5t20 46.5t47 19.5q28 0 48 -19.5t20 -46.5q0 -28 -20 -47t-48 -19q-27 0 -47 19.5zM372 774q-20 19 -20 47q0 27 20 46.5t48 19.5q27 0 47 -19.5t20 -46.5t-20 -46.5t-47 -19.5
q-28 0 -48 19z" />
    <glyph glyph-name="alphatonos" unicode="&#x3ac;" horiz-adv-x="572"
d="M551 99v-99q-32 -6 -52 -6q-80 0 -99 69q-24 -35 -62.5 -53.5t-87.5 -18.5q-62 0 -110 31t-74.5 87t-26.5 129v31q0 73 26.5 129t74.5 87t110 31q45 0 81 -16t60 -45v52h101v-363q0 -26 8 -36.5t28 -10.5q9 0 23 2zM333.5 113.5q29.5 15.5 48.5 44.5v191
q-19 29 -48.5 44.5t-64.5 15.5q-56 0 -87 -37.5t-31 -105.5v-25q0 -68 31 -105.5t87 -37.5q35 0 64.5 15.5zM285 750h111l-68 -152h-90z" />
    <glyph glyph-name="epsilontonos" unicode="&#x3ad;" horiz-adv-x="474"
d="M356 99.5q44 10.5 78 30.5v-105q-23 -16 -73 -26.5t-102 -10.5q-100 0 -157 41t-57 114q0 83 77 119q-63 35 -63 108q0 71 55.5 110.5t154.5 39.5q46 0 87 -8.5t66 -23.5v-103q-70 34 -150 34q-52 0 -80.5 -15.5t-28.5 -43.5q0 -26 24 -40t68 -14h81v-99h-85
q-101 0 -101 -56q0 -62 115 -62q47 0 91 10.5zM253 750h111l-68 -152h-90z" />
    <glyph glyph-name="etatonos" unicode="&#x3ae;" horiz-adv-x="580"
d="M467.5 471.5q45.5 -46.5 45.5 -126.5v-525h-110v498q0 49 -20 71.5t-63 22.5q-36 0 -67.5 -14.5t-55.5 -40.5v-357h-110v375q0 22 -6.5 31.5t-21.5 9.5q-13 0 -28 -5v93q28 10 59 10q38 0 60 -16.5t31 -49.5q29 34 71 52t91 18q79 0 124.5 -46.5zM295 750h111l-68 -152
h-90z" />
    <glyph glyph-name="iotatonos" unicode="&#x3af;" horiz-adv-x="278"
d="M99.5 27q-31.5 34 -31.5 101v379h110v-355q0 -32 9.5 -43.5t34.5 -11.5q17 0 33 4v-99q-34 -9 -63 -9q-61 0 -92.5 34zM126 750h111l-68 -152h-90z" />
    <glyph glyph-name="upsilondieresistonos" unicode="&#x3b0;" horiz-adv-x="556"
d="M123 45q-56 56 -56 155v307h110v-295q0 -61 25 -90t76 -29t76 29t25 90v295h110v-307q0 -99 -56 -155t-155 -56t-155 56zM257 746h94l-57 -153h-76zM103 624q-17 17 -17 41t17 41t41 17q23 0 40 -17t17 -41t-17 -41t-40 -17q-24 0 -41 17zM377 624q-17 17 -17 41t16.5 41
t40.5 17t41 -17t17 -41t-17 -41t-41 -17q-23 0 -40 17z" />
    <glyph glyph-name="alpha" unicode="&#x3b1;" horiz-adv-x="572"
d="M551 99v-99q-32 -6 -52 -6q-80 0 -99 69q-24 -35 -62.5 -53.5t-87.5 -18.5q-62 0 -110 31t-74.5 87t-26.5 129v31q0 73 26.5 129t74.5 87t110 31q45 0 81 -16t60 -45v52h101v-363q0 -26 8 -36.5t28 -10.5q9 0 23 2zM333.5 113.5q29.5 15.5 48.5 44.5v191
q-19 29 -48.5 44.5t-64.5 15.5q-56 0 -87 -37.5t-31 -105.5v-25q0 -68 31 -105.5t87 -37.5q35 0 64.5 15.5z" />
    <glyph glyph-name="beta" unicode="&#x3b2;" horiz-adv-x="571"
d="M502.5 325q33.5 -50 33.5 -119q0 -62 -27 -111t-76 -76.5t-112 -27.5q-82 0 -134 47v-218h-110v690q0 108 57 170.5t157 62.5q91 0 147 -52t56 -138q0 -53 -22.5 -92.5t-63.5 -61.5q61 -24 94.5 -74zM391.5 128.5q32.5 32.5 32.5 87.5q0 59 -39.5 93t-109.5 34h-21v95h24
q53 0 81 26.5t28 76.5q0 48 -26 76t-71 28q-49 0 -76 -35.5t-27 -100.5v-361q19 -25 50 -38.5t66 -13.5q56 0 88.5 32.5z" />
    <glyph glyph-name="gamma" unicode="&#x3b3;" horiz-adv-x="536"
d="M517 507l-194 -507v-180h-110v180l-194 507h118l132 -364l132 364h116z" />
    <glyph glyph-name="delta" unicode="&#x3b4;" horiz-adv-x="535"
d="M409.5 424q36.5 -34 62.5 -86t26 -120q0 -70 -28.5 -122t-80 -80.5t-119.5 -28.5q-69 0 -121.5 29t-81 80.5t-28.5 117.5q0 75 37 137.5t110 111.5q-34 29 -53 59.5t-19 70.5q0 65 51.5 105t134.5 40q38 0 75 -9t62 -24v-106q-25 17 -61.5 28t-70.5 11q-37 0 -59 -12.5
t-22 -33.5t22.5 -42t78.5 -59q48 -33 84.5 -67zM355.5 126.5q32.5 34.5 32.5 94.5q0 58 -30 99.5t-88 83.5q-63 -40 -92 -84.5t-29 -98.5q0 -58 32.5 -93.5t87.5 -35.5q54 0 86.5 34.5z" />
    <glyph glyph-name="epsilon" unicode="&#x3b5;" horiz-adv-x="474"
d="M356 99.5q44 10.5 78 30.5v-105q-23 -16 -73 -26.5t-102 -10.5q-100 0 -157 41t-57 114q0 83 77 119q-63 35 -63 108q0 71 55.5 110.5t154.5 39.5q46 0 87 -8.5t66 -23.5v-103q-70 34 -150 34q-52 0 -80.5 -15.5t-28.5 -43.5q0 -26 24 -40t68 -14h81v-99h-85
q-101 0 -101 -56q0 -62 115 -62q47 0 91 10.5z" />
    <glyph glyph-name="zeta" unicode="&#x3b6;" horiz-adv-x="448"
d="M369.5 53q33.5 -19 49 -45.5t15.5 -67.5q0 -36 -15 -85h-94q4 12 7 27.5t3 27.5q0 26 -16 43.5t-40.5 28.5t-66.5 24q-82 27 -130.5 75t-48.5 138q0 99 62.5 208.5t175.5 207.5h-193v96h347v-86q-129 -99 -204.5 -210.5t-75.5 -204.5q0 -55 30 -85t100 -53
q61 -20 94.5 -39z" />
    <glyph glyph-name="eta" unicode="&#x3b7;" horiz-adv-x="580"
d="M467.5 471.5q45.5 -46.5 45.5 -126.5v-525h-110v498q0 49 -20 71.5t-63 22.5q-36 0 -67.5 -14.5t-55.5 -40.5v-357h-110v375q0 22 -6.5 31.5t-21.5 9.5q-13 0 -28 -5v93q28 10 59 10q38 0 60 -16.5t31 -49.5q29 34 71 52t91 18q79 0 124.5 -46.5z" />
    <glyph glyph-name="theta" unicode="&#x3b8;"
d="M454.5 651q61.5 -92 61.5 -263v-46q0 -171 -61.5 -263t-174.5 -92q-114 0 -175 92t-61 263v46q0 171 61 263t175 92q113 0 174.5 -92zM192 582.5q-31 -55.5 -35 -163.5h246q-4 108 -35.5 163.5t-87.5 55.5q-57 0 -88 -55.5zM369.5 150.5q31.5 58.5 34.5 170.5h-248
q3 -113 34.5 -171t89.5 -58t89.5 58.5z" />
    <glyph glyph-name="iota" unicode="&#x3b9;" horiz-adv-x="278"
d="M99.5 27q-31.5 34 -31.5 101v379h110v-355q0 -32 9.5 -43.5t34.5 -11.5q17 0 33 4v-99q-34 -9 -63 -9q-61 0 -92.5 34z" />
    <glyph glyph-name="kappa" unicode="&#x3ba;" horiz-adv-x="529"
d="M387 0l-200 251v-251h-110v507h110v-218l189 218h138l-208 -232l222 -275h-141z" />
    <glyph glyph-name="lambda" unicode="&#x3bb;" horiz-adv-x="532"
d="M395 0l-115 371l-142 -371h-117l204 504l-19 55q-13 40 -34 58.5t-53 18.5q-25 0 -59 -12v98q39 16 80 16q63 0 103.5 -33t65.5 -107l204 -598h-118z" />
    <glyph glyph-name="uni03BC" unicode="&#x3bc;" horiz-adv-x="577"
d="M556 99v-99q-32 -6 -52 -6q-75 0 -98 62q-28 -32 -65 -49.5t-76 -17.5q-50 0 -78 25v-194h-110v687h110v-323q0 -48 19.5 -68.5t60.5 -20.5q35 0 66 13.5t54 39.5v359h110v-358q0 -29 8.5 -40.5t28.5 -11.5q10 0 22 2z" />
    <glyph glyph-name="nu" unicode="&#x3bd;" horiz-adv-x="537"
d="M517 507l-176 -507h-145l-177 507h118l132 -401l132 401h116z" />
    <glyph glyph-name="xi" unicode="&#x3be;" horiz-adv-x="451"
d="M373.5 52.5q33.5 -18.5 48.5 -44.5t15 -67q0 -35 -15 -86h-94q10 28 10 56q0 37 -29.5 56t-91.5 39q-85 27 -134.5 68t-49.5 122q0 62 31.5 109.5t87.5 72.5q-43 19 -66 51.5t-23 76.5q0 39 19 73t53 59h-79v92h371v-94h-75q-81 0 -131.5 -34t-50.5 -88q0 -44 36 -68.5
t102 -24.5h76v-96h-79q-75 0 -117.5 -32t-42.5 -87q0 -32 15.5 -52t42 -33t75.5 -29q62 -21 95.5 -39.5z" />
    <glyph glyph-name="omicron" unicode="&#x3bf;" horiz-adv-x="551"
d="M146.5 20q-53.5 33 -80.5 90t-27 128v31q0 71 27 128t80.5 90t128.5 33q76 0 129 -33t80 -90t27 -128v-31q0 -71 -27 -128t-80 -90t-129 -33q-75 0 -128.5 33zM368 132q31 41 31 109v25q0 68 -31 109t-93 41t-93 -41t-31 -109v-25q0 -68 31 -109t93 -41t93 41z" />
    <glyph glyph-name="pi" unicode="&#x3c0;" horiz-adv-x="619"
d="M501 410v-265q0 -28 10 -39.5t33 -11.5q19 0 37 6v-96q-27 -12 -67 -12q-123 0 -123 133v285h-174v-410h-110v410h-81v97h555v-97h-80z" />
    <glyph glyph-name="rho" unicode="&#x3c1;" horiz-adv-x="553"
d="M405 489q52 -31 80 -87.5t28 -132.5v-31q0 -73 -27 -129t-75.5 -87t-111.5 -31q-82 0 -132 52v-223h-111v448q0 76 28 133t79.5 88t120.5 31t121 -31zM402 266q0 71 -31 110.5t-87 39.5q-55 0 -86 -40t-31 -110v-105q44 -63 113 -63q57 0 89.5 38t32.5 105v25z" />
    <glyph glyph-name="uni03C2" unicode="&#x3c2;" horiz-adv-x="452"
d="M314 -87q0 22 -9.5 36t-31.5 25.5t-66 29.5q-54 23 -90 50.5t-57 74.5t-21 118v27q0 113 64.5 179t174.5 66q36 0 70.5 -7t55.5 -19v-108q-56 28 -120 28q-65 0 -99 -36t-34 -106v-21q0 -51 15.5 -81t42.5 -47.5t77 -38.5q44 -17 69.5 -32.5t41.5 -42t16 -68.5
q0 -36 -15 -85h-95q11 31 11 58z" />
    <glyph glyph-name="sigma" unicode="&#x3c3;" horiz-adv-x="569"
d="M560 408h-122q25 -25 42.5 -71t17.5 -93v-20q0 -72 -28 -125.5t-79.5 -82.5t-119.5 -29q-70 0 -122.5 30t-81 85.5t-28.5 129.5v20q0 77 32.5 134.5t92.5 89t140 31.5h256v-99zM369 336q-19 44 -53 72h-4q-78 0 -119.5 -41t-41.5 -118v-14q0 -68 32 -106t89 -38
q56 0 86 36.5t30 103.5v14q0 47 -19 91z" />
    <glyph glyph-name="tau" unicode="&#x3c4;" horiz-adv-x="460"
d="M279 411v-267q0 -27 14 -39t44 -12q26 0 49 9v-95q-31 -15 -77 -15q-68 0 -104 36.5t-36 104.5v278h-141v96h404v-96h-153z" />
    <glyph glyph-name="upsilon" unicode="&#x3c5;" horiz-adv-x="556"
d="M123 45q-56 56 -56 155v307h110v-295q0 -61 25 -90t76 -29t76 29t25 90v295h110v-307q0 -99 -56 -155t-155 -56t-155 56z" />
    <glyph glyph-name="phi" unicode="&#x3c6;" horiz-adv-x="692"
d="M586 437q69 -67 69 -170v-27q0 -103 -69 -170t-186 -80v-170h-108v170q-117 14 -186 80.5t-69 169.5v27q0 103 69 169.5t186 80.5v157h108v-157q117 -13 186 -80zM187 142.5q38 -38.5 108 -49.5v321q-70 -11 -108 -49.5t-38 -100.5v-21q0 -62 38 -100.5zM543 264
q0 62 -37.5 100.5t-107.5 49.5v-321q70 11 107.5 49.5t37.5 100.5v21z" />
    <glyph glyph-name="chi" unicode="&#x3c7;" horiz-adv-x="533"
d="M399 -180l-133 261l-133 -261h-124l195 356l-185 331h124l126 -238l121 238h124l-181 -333l190 -354h-124z" />
    <glyph glyph-name="psi" unicode="&#x3c8;" horiz-adv-x="714"
d="M650 507v-259q0 -110 -62.5 -177t-175.5 -81v-170h-110v170q-114 14 -176.5 81t-62.5 177v259h109v-248q0 -140 131 -163v546h108v-546q131 23 131 163v248h108z" />
    <glyph glyph-name="omega" unicode="&#x3c9;" horiz-adv-x="719"
d="M655.5 399.5q13.5 -67.5 13.5 -129.5v-30q0 -121 -45.5 -187t-128.5 -66q-97 0 -135 89q-39 -89 -136 -89q-83 0 -128.5 66t-45.5 187v30q0 62 13.5 129.5t33.5 107.5h116q-51 -99 -51 -240v-24q0 -77 17.5 -114t53.5 -37q37 0 54.5 36.5t17.5 111.5v149h109v-149
q0 -75 17.5 -111.5t54.5 -36.5q36 0 53.5 37t17.5 114v24q0 140 -50 240h115q20 -40 33.5 -107.5z" />
    <glyph glyph-name="iotadieresis" unicode="&#x3ca;" horiz-adv-x="278"
d="M99.5 27q-31.5 34 -31.5 101v379h110v-355q0 -32 9.5 -43.5t34.5 -11.5q17 0 33 4v-99q-34 -9 -63 -9q-61 0 -92.5 34zM-21 614.5q-20 19.5 -20 46.5t20 46.5t47 19.5q28 0 48 -19.5t20 -46.5q0 -28 -20 -47t-48 -19q-27 0 -47 19.5zM179 614.5q-20 19.5 -20 46.5
t20 46.5t47 19.5q28 0 48 -19.5t20 -46.5q0 -28 -20 -47t-48 -19q-27 0 -47 19.5z" />
    <glyph glyph-name="upsilondieresis" unicode="&#x3cb;" horiz-adv-x="556"
d="M123 45q-56 56 -56 155v307h110v-295q0 -61 25 -90t76 -29t76 29t25 90v295h110v-307q0 -99 -56 -155t-155 -56t-155 56zM131 614.5q-20 19.5 -20 46.5t20 46.5t47 19.5q28 0 48 -19.5t20 -46.5q0 -28 -20 -47t-48 -19q-27 0 -47 19.5zM331 614.5q-20 19.5 -20 46.5
t20 46.5t47 19.5q28 0 48 -19.5t20 -46.5q0 -28 -20 -47t-48 -19q-27 0 -47 19.5z" />
    <glyph glyph-name="omicrontonos" unicode="&#x3cc;" horiz-adv-x="551"
d="M146.5 20q-53.5 33 -80.5 90t-27 128v31q0 71 27 128t80.5 90t128.5 33q76 0 129 -33t80 -90t27 -128v-31q0 -71 -27 -128t-80 -90t-129 -33q-75 0 -128.5 33zM368 132q31 41 31 109v25q0 68 -31 109t-93 41t-93 -41t-31 -109v-25q0 -68 31 -109t93 -41t93 41zM278 750
h111l-68 -152h-90z" />
    <glyph glyph-name="upsilontonos" unicode="&#x3cd;" horiz-adv-x="556"
d="M123 45q-56 56 -56 155v307h110v-295q0 -61 25 -90t76 -29t76 29t25 90v295h110v-307q0 -99 -56 -155t-155 -56t-155 56zM278 750h111l-68 -152h-90z" />
    <glyph glyph-name="omegatonos" unicode="&#x3ce;" horiz-adv-x="719"
d="M655.5 399.5q13.5 -67.5 13.5 -129.5v-30q0 -121 -45.5 -187t-128.5 -66q-97 0 -135 89q-39 -89 -136 -89q-83 0 -128.5 66t-45.5 187v30q0 62 13.5 129.5t33.5 107.5h116q-51 -99 -51 -240v-24q0 -77 17.5 -114t53.5 -37q37 0 54.5 36.5t17.5 111.5v149h109v-149
q0 -75 17.5 -111.5t54.5 -36.5q36 0 53.5 37t17.5 114v24q0 140 -50 240h115q20 -40 33.5 -107.5zM360 750h111l-68 -152h-90z" />
    <glyph glyph-name="uni0401" unicode="&#x401;" horiz-adv-x="599"
d="M543 110v-110h-457v700h455v-110h-341v-173h309v-110h-309v-197h343zM158 774.5q-20 19.5 -20 46.5t20 46.5t47 19.5q28 0 48 -19.5t20 -46.5q0 -28 -20 -47t-48 -19q-27 0 -47 19.5zM381 774q-20 19 -20 47q0 27 20 46.5t48 19.5q27 0 47 -19.5t20 -46.5t-20 -46.5
t-47 -19.5q-28 0 -48 19z" />
    <glyph glyph-name="uni0402" unicode="&#x402;" horiz-adv-x="740"
d="M636.5 381q64.5 -54 64.5 -160v-25q0 -102 -53.5 -155t-142.5 -53q-54 0 -96 16v108q34 -14 86 -14q43 0 67.5 24.5t24.5 77.5v15q0 110 -136 110q-66 0 -125 -22v-304h-114v591h-182v110h507v-110h-211v-179q65 24 138 24q108 0 172.5 -54z" />
    <glyph glyph-name="uni0403" unicode="&#x403;" horiz-adv-x="551"
d="M86 700h435v-110h-321v-590h-114v700zM345 893h122l-99 -132h-108z" />
    <glyph glyph-name="uni0404" unicode="&#x404;" horiz-adv-x="608"
d="M228.5 553q-51.5 -50 -61.5 -139h296v-110h-297q6 -96 57.5 -151.5t154.5 -55.5q47 0 91.5 11.5t80.5 30.5v-112q-27 -18 -73 -29t-99 -11q-108 0 -181 45t-108.5 122t-35.5 173v46q0 96 35.5 173t108.5 122t181 45q53 0 99 -11t73 -29v-112q-36 19 -80.5 30.5
t-91.5 11.5q-98 0 -149.5 -50z" />
    <glyph glyph-name="uni0405" unicode="&#x405;" horiz-adv-x="576"
d="M144 4.5q-64 17.5 -98 42.5v114q105 -66 230 -66q71 0 107.5 25t36.5 69q0 40 -27.5 63t-89.5 44l-54 19q-67 24 -107.5 47t-64 60t-23.5 93q0 61 32.5 106t89.5 68.5t129 23.5q118 0 184 -40v-112q-82 44 -186 44q-64 0 -99.5 -21.5t-35.5 -64.5q0 -38 28.5 -58.5
t94.5 -43.5l51 -18q92 -32 142 -77t50 -129q0 -64 -32.5 -110.5t-90.5 -71t-133 -24.5q-70 0 -134 17.5z" />
    <glyph glyph-name="uni0406" unicode="&#x406;" horiz-adv-x="412"
d="M263 603v-506h94v-97h-302v97h94v506h-94v97h302v-97h-94z" />
    <glyph glyph-name="uni0407" unicode="&#x407;" horiz-adv-x="412"
d="M263 603v-506h94v-97h-302v97h94v506h-94v97h302v-97h-94zM47 774.5q-20 19.5 -20 46.5t20 46.5t47 19.5q28 0 48 -19.5t20 -46.5q0 -28 -20 -47t-48 -19q-27 0 -47 19.5zM270 774q-20 19 -20 47q0 27 20 46.5t48 19.5q27 0 47 -19.5t20 -46.5t-20 -46.5t-47 -19.5
q-28 0 -48 19z" />
    <glyph glyph-name="uni0408" unicode="&#x408;" horiz-adv-x="461"
d="M383 206q0 -102 -57 -158t-167 -56q-38 0 -75 6t-64 17v116q29 -14 65 -21.5t73 -7.5q60 0 85.5 29.5t25.5 91.5v477h114v-494z" />
    <glyph glyph-name="uni0409" unicode="&#x409;" horiz-adv-x="1007"
d="M854.5 413q53.5 -27 83.5 -77t30 -116t-30 -116t-83.5 -77t-121.5 -27h-261v590h-202l-4 -86q-9 -214 -23.5 -314.5t-54.5 -148.5t-124 -48q-24 0 -47 5v108q13 -3 27 -3q36 0 56 25t33.5 111t20.5 267l7 194h425v-260h147q68 0 121.5 -27zM822 140.5q32 30.5 32 79.5
t-32 79.5t-91 30.5h-145v-220h145q59 0 91 30.5z" />
    <glyph glyph-name="uni040A" unicode="&#x40a;" horiz-adv-x="1020"
d="M918 368.5q63 -56.5 63 -156.5q0 -98 -63 -155t-167 -57h-261v315h-290v-315h-114v700h114v-275h290v275h114v-275h147q104 0 167 -56.5zM838.5 137q29.5 27 29.5 75q0 49 -29.5 76t-89.5 27h-145v-205h145q60 0 89.5 27z" />
    <glyph glyph-name="uni040B" unicode="&#x40b;" horiz-adv-x="761"
d="M641.5 378.5q58.5 -55.5 58.5 -169.5v-209h-114v197q0 67 -29 97t-101 30q-69 0 -130 -22v-303h-114v591h-182v110h507v-110h-211v-179q69 23 140 23q117 0 175.5 -55.5z" />
    <glyph glyph-name="uni040C" unicode="&#x40c;" horiz-adv-x="654"
d="M511 0l-311 333v-333h-114v700h114v-315l293 315h149l-318 -337l340 -363h-153zM368 902h122l-99 -132h-108z" />
    <glyph glyph-name="uni040E" unicode="&#x40e;" horiz-adv-x="622"
d="M606 700l-206 -502q-32 -78 -60.5 -122.5t-67 -66.5t-94.5 -22q-48 0 -69 9v106q18 -6 52 -6q69 0 103 52l-248 552h121l184 -417l165 417h120zM188 787.5q-42 40.5 -47 101.5h91q2 -29 19.5 -51t56.5 -22q38 0 55.5 21.5t20.5 51.5h91q-5 -61 -47 -101.5t-120 -40.5
t-120 40.5z" />
    <glyph glyph-name="uni040F" unicode="&#x40f;" horiz-adv-x="680"
d="M594 0h-197v-140h-114v140h-197v700h114v-590h280v590h114v-700z" />
    <glyph glyph-name="uni0410" unicode="&#x410;" horiz-adv-x="674"
d="M479 177h-287l-60 -177h-119l244 700h160l244 -700h-122zM441 287l-105 311l-106 -311h211z" />
    <glyph glyph-name="uni0411" unicode="&#x411;" horiz-adv-x="633"
d="M468.5 413q53.5 -27 83.5 -77t30 -116t-30 -116t-83.5 -77t-120.5 -27h-262v700h449v-110h-335v-150h148q67 0 120.5 -27zM436.5 140.5q31.5 30.5 31.5 79.5t-31.5 79.5t-90.5 30.5h-146v-220h146q59 0 90.5 30.5z" />
    <glyph glyph-name="uni0412" unicode="&#x412;" horiz-adv-x="646"
d="M572.5 301.5q25.5 -42.5 25.5 -98.5q0 -61 -28 -107t-78 -71t-114 -25h-292v700h283q61 0 109 -23.5t75 -67t27 -100.5q0 -46 -20.5 -81.5t-58.5 -58.5q46 -25 71.5 -67.5zM200 590v-175h167q48 0 73.5 24.5t25.5 63.5q0 38 -25.5 62.5t-73.5 24.5h-167zM456.5 137.5
q28.5 27.5 28.5 70.5t-28.5 70t-80.5 27h-176v-195h176q52 0 80.5 27.5z" />
    <glyph glyph-name="uni0413" unicode="&#x413;" horiz-adv-x="551"
d="M86 700h435v-110h-321v-590h-114v700z" />
    <glyph glyph-name="uni0414" unicode="&#x414;" horiz-adv-x="724"
d="M699 110v-250h-110v140h-454v-140h-110v250h55q32 27 54 121t30 290l7 179h435v-590h93zM493 110v480h-217l-3 -71q-7 -158 -21.5 -256t-42.5 -153h284z" />
    <glyph glyph-name="uni0415" unicode="&#x415;" horiz-adv-x="599"
d="M543 110v-110h-457v700h455v-110h-341v-173h309v-110h-309v-197h343z" />
    <glyph glyph-name="uni0416" unicode="&#x416;" horiz-adv-x="943"
d="M805 0l-277 341v-341h-113v341l-278 -341h-146l301 365l-285 335h147l261 -317v317h113v-317l261 317h147l-285 -335l301 -365h-147z" />
    <glyph glyph-name="uni0417" unicode="&#x417;" horiz-adv-x="584"
d="M501.5 299.5q26.5 -41.5 26.5 -96.5q0 -101 -69.5 -158t-184.5 -57q-71 0 -131 15t-94 38v116q94 -59 223 -59q70 0 105.5 29t35.5 78q0 45 -34.5 71.5t-102.5 26.5h-102v108h98q64 0 95 26.5t31 68.5q0 45 -37 71t-101 26q-106 0 -187 -44v113q33 19 83 29.5t107 10.5
q115 0 182.5 -50.5t67.5 -143.5q0 -52 -23 -91t-69 -63q54 -23 80.5 -64.5z" />
    <glyph glyph-name="uni0418" unicode="&#x418;" horiz-adv-x="715"
d="M629 700v-700h-114v535l-304 -535h-125v700h114v-535l304 535h125z" />
    <glyph glyph-name="uni0419" unicode="&#x419;" horiz-adv-x="715"
d="M629 700v-700h-114v535l-304 -535h-125v700h114v-535l304 535h125zM238 787.5q-42 40.5 -47 101.5h91q2 -29 19.5 -51t56.5 -22q38 0 55.5 21.5t20.5 51.5h91q-5 -61 -47 -101.5t-120 -40.5t-120 40.5z" />
    <glyph glyph-name="uni041A" unicode="&#x41a;" horiz-adv-x="654"
d="M511 0l-311 333v-333h-114v700h114v-315l293 315h149l-318 -337l340 -363h-153z" />
    <glyph glyph-name="uni041B" unicode="&#x41b;" horiz-adv-x="672"
d="M586 700v-700h-114v590h-203l-4 -87q-9 -214 -23 -314.5t-52.5 -148t-120.5 -47.5q-29 0 -52 5v108q13 -3 27 -3q39 0 59.5 24.5t33.5 110t20 267.5l7 195h422z" />
    <glyph glyph-name="uni041C" unicode="&#x41c;" horiz-adv-x="835"
d="M749 700v-700h-114v549l-178 -405h-83l-178 406v-550h-110v700h150l182 -418l182 418h149z" />
    <glyph glyph-name="uni041D" unicode="&#x41d;" horiz-adv-x="690"
d="M604 700v-700h-114v307h-290v-307h-114v700h114v-283h290v283h114z" />
    <glyph glyph-name="uni041E" unicode="&#x41e;" horiz-adv-x="715"
d="M526.5 669q68.5 -44 102.5 -122t34 -179v-36q0 -101 -34 -179t-102.5 -122t-168.5 -44t-168.5 44t-102.5 122t-34 179v36q0 101 34 179t102.5 122t168.5 44t168.5 -44zM500 538.5q-47 64.5 -142 64.5t-142.5 -64.5t-47.5 -171.5v-34q0 -106 47.5 -171t142.5 -65t142 64.5
t47 171.5v34q0 107 -47 171.5z" />
    <glyph glyph-name="uni041F" unicode="&#x41f;" horiz-adv-x="680"
d="M86 700h508v-700h-114v590h-280v-590h-114v700z" />
    <glyph glyph-name="uni0420" unicode="&#x420;" horiz-adv-x="616"
d="M473.5 673q52.5 -27 82 -76.5t29.5 -115.5t-29.5 -115.5t-82 -76.5t-119.5 -27h-154v-262h-114v700h268q67 0 119.5 -27zM440 402.5q31 30.5 31 78.5t-31 78.5t-88 30.5h-152v-218h152q57 0 88 30.5z" />
    <glyph glyph-name="uni0421" unicode="&#x421;" horiz-adv-x="608"
d="M220 160q52 -63 160 -63q91 0 170 42v-112q-27 -18 -73 -29t-99 -11q-108 0 -181 45t-108.5 122t-35.5 173v46q0 96 35.5 173t108.5 122t181 45q53 0 99 -11t73 -29v-112q-79 42 -170 42q-108 0 -160 -63t-52 -170v-40q0 -107 52 -170z" />
    <glyph glyph-name="uni0422" unicode="&#x422;" horiz-adv-x="597"
d="M242 -1v591h-212v110h537v-110h-211v-591h-114z" />
    <glyph glyph-name="uni0423" unicode="&#x423;" horiz-adv-x="622"
d="M606 700l-206 -502q-32 -78 -60.5 -122.5t-67 -66.5t-94.5 -22q-48 0 -69 9v106q18 -6 52 -6q69 0 103 52l-248 552h121l184 -417l165 417h120z" />
    <glyph glyph-name="uni0424" unicode="&#x424;" horiz-adv-x="793"
d="M608 596q65 -39 98.5 -100.5t33.5 -137.5v-16q0 -76 -33.5 -137.5t-98.5 -101t-155 -48.5v-72h-113v72q-90 10 -155 49t-98.5 100.5t-33.5 137.5v16q0 76 33.5 137.5t98.5 100.5t155 48v73h113v-73q90 -9 155 -48zM625 357q0 72 -45 122.5t-129 62.5v-385q84 13 129 63.5
t45 122.5v14zM213 220.5q45 -50.5 129 -63.5v385q-84 -13 -129 -63t-45 -122v-14q0 -72 45 -122.5z" />
    <glyph glyph-name="uni0425" unicode="&#x425;" horiz-adv-x="671"
d="M513 0l-178 275l-178 -275h-131l235 358l-225 342h131l168 -259l168 259h131l-223 -342l233 -358h-131z" />
    <glyph glyph-name="uni0426" unicode="&#x426;" horiz-adv-x="705"
d="M679 110v-250h-110v140h-483v700h114v-590h275v590h114v-590h90z" />
    <glyph glyph-name="uni0427" unicode="&#x427;" horiz-adv-x="650"
d="M563 700v-700h-113v292q-67 -27 -149 -27q-117 0 -178 56.5t-61 169.5v209h113v-197q0 -67 31.5 -97.5t104.5 -30.5q75 0 139 27v298h113z" />
    <glyph glyph-name="uni0428" unicode="&#x428;" horiz-adv-x="958"
d="M871 700v-700h-785v700h114v-590h222v590h114v-590h222v590h113z" />
    <glyph glyph-name="uni0429" unicode="&#x429;" horiz-adv-x="988"
d="M962 110v-250h-110v140h-766v700h114v-590h222v590h114v-590h222v590h113v-590h91z" />
    <glyph glyph-name="uni042A" unicode="&#x42a;" horiz-adv-x="724"
d="M571.5 413q53.5 -27 83.5 -77t30 -116t-30 -116t-83.5 -77t-120.5 -27h-262v590h-159v110h273v-260h148q67 0 120.5 -27zM539.5 140.5q31.5 30.5 31.5 79.5t-31.5 79.5t-90.5 30.5h-146v-220h146q59 0 90.5 30.5z" />
    <glyph glyph-name="uni042B" unicode="&#x42b;" horiz-adv-x="836"
d="M447.5 413q53.5 -27 83.5 -77t30 -116t-30 -116t-83.5 -77t-120.5 -27h-241v700h114v-260h127q67 0 120.5 -27zM749 700v-700h-113v700h113zM415.5 140.5q31.5 30.5 31.5 79.5t-31.5 79.5t-90.5 30.5h-125v-220h125q59 0 90.5 30.5z" />
    <glyph glyph-name="uni042C" unicode="&#x42c;" horiz-adv-x="621"
d="M468.5 413q53.5 -27 83.5 -77t30 -116t-30 -116t-83.5 -77t-120.5 -27h-262v700h114v-260h148q67 0 120.5 -27zM436.5 140.5q31.5 30.5 31.5 79.5t-31.5 79.5t-90.5 30.5h-146v-220h146q59 0 90.5 30.5z" />
    <glyph glyph-name="uni042D" unicode="&#x42d;" horiz-adv-x="608"
d="M411 668q73 -45 108.5 -122t35.5 -173v-46q0 -96 -35.5 -173t-108.5 -122t-181 -45q-53 0 -99 11t-74 29v112q81 -42 172 -42q103 0 155 55.5t58 151.5h-298v110h297q-10 89 -62 139t-150 50q-91 0 -172 -42v112q28 18 74 29t99 11q108 0 181 -45z" />
    <glyph glyph-name="uni042E" unicode="&#x42e;" horiz-adv-x="946"
d="M760.5 669q66.5 -44 99.5 -122t33 -179v-36q0 -101 -33 -179t-99.5 -122t-162.5 -44q-137 0 -212.5 86.5t-81.5 230.5h-104v-304h-114v700h114v-286h105q11 136 86 217.5t207 81.5q96 0 162.5 -44zM732.5 538.5q-44.5 64.5 -134.5 64.5t-135 -64.5t-45 -171.5v-34
q0 -106 45 -171t135 -65t134.5 64.5t44.5 171.5v34q0 107 -44.5 171.5z" />
    <glyph glyph-name="uni042F" unicode="&#x42f;" horiz-adv-x="660"
d="M574 0h-114v277h-92l-220 -277h-137l228 283q-77 16 -123.5 70.5t-46.5 134.5q0 63 29.5 111.5t82 74.5t118.5 26h275v-700zM460 387v203h-159q-57 0 -87.5 -28.5t-30.5 -73.5t30.5 -73t87.5 -28h159z" />
    <glyph glyph-name="uni0430" unicode="&#x430;" horiz-adv-x="570"
d="M492 507v-507h-101v52q-24 -29 -59 -45t-79 -16q-68 0 -116 33t-73 89t-25 125v31q0 69 25 125t73 89t116 33q44 0 79 -16t59 -45v52h101zM382 158v191q-39 60 -114 60q-58 0 -87.5 -39t-29.5 -104v-25q0 -65 29.5 -104t87.5 -39q75 0 114 60z" />
    <glyph glyph-name="uni0431" unicode="&#x431;" horiz-adv-x="548"
d="M451.5 427q56.5 -62 56.5 -162v-32q0 -108 -59 -176.5t-173 -68.5q-111 0 -170.5 67.5t-59.5 178.5v33q0 131 13 212t51 133q31 44 83 67t128 30q53 5 90.5 10t59.5 11v-109q-17 -7 -46.5 -11.5t-80.5 -8.5q-57 -5 -91.5 -16t-57.5 -39q-25 -30 -32 -99q23 18 57 30
t75 12q100 0 156.5 -62zM396 257q0 61 -31 93.5t-87 32.5q-36 0 -68 -13.5t-52 -34.5v-78v-20q0 -68 29 -106.5t90 -38.5q62 0 90.5 38.5t28.5 106.5v20z" />
    <glyph glyph-name="uni0432" unicode="&#x432;" horiz-adv-x="543"
d="M479.5 216q18.5 -30 18.5 -67q0 -70 -47 -109.5t-128 -39.5h-246v507h243q73 0 120 -37.5t47 -100.5q0 -34 -15.5 -60.5t-43.5 -43.5q33 -19 51.5 -49zM184 409v-108h132q30 0 45.5 15.5t15.5 38.5t-15.5 38.5t-45.5 15.5h-132zM371 114q18 16 18 43t-18 43t-52 16h-135
v-118h135q34 0 52 16z" />
    <glyph glyph-name="uni0433" unicode="&#x433;" horiz-adv-x="440"
d="M77 507h336v-97h-226v-410h-110v507z" />
    <glyph glyph-name="uni0434" unicode="&#x434;" horiz-adv-x="606"
d="M582 97v-222h-106v125h-346v-125h-107v222h48q25 17 40 78.5t21 193.5l6 138h367v-410h77zM395 97v307h-156l-2 -35q-5 -101 -17 -166.5t-35 -105.5h210z" />
    <glyph glyph-name="uni0435" unicode="&#x435;" horiz-adv-x="517"
d="M475 218h-325q12 -124 154 -124q77 0 140 38v-106q-22 -17 -61.5 -27.5t-83.5 -10.5q-121 0 -190.5 67t-69.5 183v31q0 72 26.5 129t77.5 89.5t120 32.5q102 0 157 -61t55 -170v-71zM186.5 390q-27.5 -29 -34.5 -82h215q-6 111 -106 111q-47 0 -74.5 -29z" />
    <glyph glyph-name="uni0436" unicode="&#x436;" horiz-adv-x="759"
d="M617 0l-183 248v-248h-110v247l-183 -247h-141l208 270l-195 237h138l173 -223v223h110v-224l174 224h138l-195 -237l208 -270h-142z" />
    <glyph glyph-name="uni0437" unicode="&#x437;" horiz-adv-x="467"
d="M404.5 214.5q17.5 -29.5 17.5 -65.5q0 -73 -53.5 -117t-145.5 -44q-55 0 -100.5 10t-70.5 27v107q70 -41 167 -41q96 0 96 61q0 27 -23 41.5t-66 14.5h-82v99h78q43 0 63.5 15t20.5 39q0 26 -24.5 41.5t-69.5 15.5q-74 0 -145 -33v105q26 14 64.5 22t81.5 8
q96 0 147.5 -39.5t51.5 -109.5q0 -74 -61 -110q36 -17 53.5 -46.5z" />
    <glyph glyph-name="uni0438" unicode="&#x438;" horiz-adv-x="588"
d="M511 507v-507h-110v364l-204 -364h-120v507h110v-364l204 364h120z" />
    <glyph glyph-name="uni0439" unicode="&#x439;" horiz-adv-x="588"
d="M511 507v-507h-110v364l-204 -364h-120v507h110v-364l204 364h120zM174 617.5q-42 40.5 -47 101.5h91q2 -29 19.5 -51t56.5 -22q38 0 55.5 21.5t20.5 51.5h91q-5 -61 -47 -101.5t-120 -40.5t-120 40.5z" />
    <glyph glyph-name="uni043A" unicode="&#x43a;" horiz-adv-x="529"
d="M387 0l-200 251v-251h-110v507h110v-218l189 218h138l-208 -232l222 -275h-141z" />
    <glyph glyph-name="uni043B" unicode="&#x43b;"
d="M482 507v-507h-110v404h-146l-2 -48q-6 -144 -19 -217.5t-46 -108.5t-99 -35q-25 0 -41 4v105q12 -2 19 -2q26 0 41.5 16.5t26 71t14.5 166.5l6 151h356z" />
    <glyph glyph-name="uni043C" unicode="&#x43c;" horiz-adv-x="695"
d="M617 507v-507h-104v382l-132 -283h-71l-133 285v-384h-100v507h142l128 -277l129 277h141z" />
    <glyph glyph-name="uni043D" unicode="&#x43d;" horiz-adv-x="574"
d="M497 507v-507h-110v215h-200v-215h-110v507h110v-194h200v194h110z" />
    <glyph glyph-name="uni043E" unicode="&#x43e;" horiz-adv-x="551"
d="M146.5 20q-53.5 33 -80.5 90t-27 128v31q0 71 27 128t80.5 90t128.5 33q76 0 129 -33t80 -90t27 -128v-31q0 -71 -27 -128t-80 -90t-129 -33q-75 0 -128.5 33zM368 132q31 41 31 109v25q0 68 -31 109t-93 41t-93 -41t-31 -109v-25q0 -68 31 -109t93 -41t93 41z" />
    <glyph glyph-name="uni043F" unicode="&#x43f;" horiz-adv-x="565"
d="M77 507h411v-507h-110v410h-191v-410h-110v507z" />
    <glyph glyph-name="uni0440" unicode="&#x440;" horiz-adv-x="570"
d="M433 483q48 -33 73 -89t25 -125v-31q0 -69 -25 -125t-73 -89t-116 -33q-40 0 -73 13.5t-57 38.5v-223h-110v687h101v-53q24 29 59.5 45.5t79.5 16.5q68 0 116 -33zM419 266q0 65 -29.5 104t-87.5 39q-76 0 -115 -62v-187q39 -62 115 -62q58 0 87.5 39t29.5 104v25z" />
    <glyph glyph-name="uni0441" unicode="&#x441;" horiz-adv-x="452"
d="M148 21q-54 33 -81.5 90t-27.5 127v31q0 70 27.5 127t81.5 90t130 33q38 0 73 -8t55 -20v-107q-25 13 -56.5 21t-62.5 8q-70 0 -103 -39.5t-33 -107.5v-25q0 -68 33 -107.5t103 -39.5q31 0 62.5 8t56.5 21v-107q-20 -12 -55 -20t-73 -8q-76 0 -130 33z" />
    <glyph glyph-name="uni0442" unicode="&#x442;" horiz-adv-x="464"
d="M176 410h-149v97h409v-97h-150v-410h-110v410z" />
    <glyph glyph-name="uni0443" unicode="&#x443;" horiz-adv-x="523"
d="M504 507l-176 -489q-28 -77 -54.5 -121.5t-63.5 -66.5t-93 -22q-45 0 -68 10v103q19 -8 51 -8q39 0 65 19t42 61l-188 514h118l126 -355l124 355h117z" />
    <glyph glyph-name="uni0444" unicode="&#x444;" horiz-adv-x="654"
d="M508 476.5q53 -34.5 80 -88.5t27 -119v-31q0 -65 -27 -119t-80 -88.5t-129 -42.5v-178h-104v178q-76 8 -129 42.5t-80 88.5t-27 119v31q0 65 27 119t80 88.5t129 42.5v211h104v-211q76 -8 129 -42.5zM182.5 143q31.5 -39 94.5 -49v319q-63 -10 -94.5 -49t-31.5 -98v-25
q0 -59 31.5 -98zM503 266q0 59 -31.5 98t-94.5 49v-319q63 10 94.5 49t31.5 98v25z" />
    <glyph glyph-name="uni0445" unicode="&#x445;" horiz-adv-x="555"
d="M398 0l-121 183l-121 -183h-129l177 260l-168 247h129l112 -171l112 171h130l-167 -247l176 -260h-130z" />
    <glyph glyph-name="uni0446" unicode="&#x446;" horiz-adv-x="586"
d="M564 97v-222h-106v125h-381v507h110v-410h191v410h110v-410h76z" />
    <glyph glyph-name="uni0447" unicode="&#x447;" horiz-adv-x="552"
d="M474 507v-507h-107v190q-50 -22 -116 -22q-103 0 -151 45t-48 134v160h106v-149q0 -45 23 -66t81 -21q59 0 105 22v214h107z" />
    <glyph glyph-name="uni0448" unicode="&#x448;" horiz-adv-x="811"
d="M734 507v-507h-657v507h110v-410h164v410h110v-410h163v410h110z" />
    <glyph glyph-name="uni0449" unicode="&#x449;" horiz-adv-x="832"
d="M810 97v-222h-106v125h-627v507h110v-410h164v410h110v-410h163v410h110v-410h76z" />
    <glyph glyph-name="uni044A" unicode="&#x44a;" horiz-adv-x="593"
d="M473.5 324.5q42.5 -21.5 66.5 -61t24 -90.5t-24 -90.5t-66.5 -61t-95.5 -21.5h-218v410h-133v97h243v-161h108q53 0 95.5 -21.5zM438 119.5q21 20.5 21 53.5q0 32 -21 53t-61 21h-107v-148h107q40 0 61 20.5z" />
    <glyph glyph-name="uni044B" unicode="&#x44b;" horiz-adv-x="708"
d="M371 324.5q42 -21.5 66 -61t24 -90.5t-24 -90.5t-66 -61t-95 -21.5h-199v507h110v-161h89q53 0 95 -21.5zM631 507v-507h-110v507h110zM335.5 120.5q21.5 19.5 21.5 52.5q0 32 -21.5 52t-61.5 20h-87v-144h87q40 0 61.5 19.5z" />
    <glyph glyph-name="uni044C" unicode="&#x44c;" horiz-adv-x="510"
d="M391 324.5q42 -21.5 66 -61t24 -90.5t-24 -90.5t-66 -61t-95 -21.5h-219v507h110v-161h109q53 0 95 -21.5zM355.5 119.5q21.5 20.5 21.5 53.5q0 32 -21.5 53t-61.5 21h-107v-148h107q40 0 61.5 20.5z" />
    <glyph glyph-name="uni044D" unicode="&#x44d;" horiz-adv-x="450"
d="M301 486q54 -33 81.5 -90t27.5 -127v-31q0 -70 -27.5 -127t-81.5 -90t-130 -33q-37 0 -72 8t-56 20v107q25 -13 56.5 -21t62.5 -8q61 0 94 30.5t40 84.5h-192v95h191q-8 51 -40.5 80t-92.5 29q-31 0 -62.5 -8t-56.5 -21v107q21 12 56 20t72 8q76 0 130 -33z" />
    <glyph glyph-name="uni044E" unicode="&#x44e;" horiz-adv-x="752"
d="M609.5 487q50.5 -33 76.5 -90t26 -128v-31q0 -71 -26 -128t-76.5 -90t-122.5 -33q-101 0 -159.5 62.5t-65.5 162.5h-75v-212h-110v507h110v-198h76q11 94 69 152.5t155 58.5q72 0 122.5 -33zM602 266q0 68 -28.5 109t-86.5 41t-87 -41t-29 -109v-25q0 -68 29 -109t87 -41
t86.5 41t28.5 109v25z" />
    <glyph glyph-name="uni044F" unicode="&#x44f;" horiz-adv-x="535"
d="M458 0h-108v180h-68l-129 -180h-127l139 188q-54 16 -86 57t-32 98q0 74 50.5 119t129.5 45h231v-507zM350 282v122h-114q-38 0 -58.5 -17t-20.5 -44q0 -28 20.5 -44.5t58.5 -16.5h114z" />
    <glyph glyph-name="uni0451" unicode="&#x451;" horiz-adv-x="517"
d="M475 218h-325q12 -124 154 -124q77 0 140 38v-106q-22 -17 -61.5 -27.5t-83.5 -10.5q-121 0 -190.5 67t-69.5 183v31q0 72 26.5 129t77.5 89.5t120 32.5q102 0 157 -61t55 -170v-71zM186.5 390q-27.5 -29 -34.5 -82h215q-6 111 -106 111q-47 0 -74.5 -29zM123 614.5
q-20 19.5 -20 46.5t20 46.5t47 19.5q28 0 48 -19.5t20 -46.5q0 -28 -20 -47t-48 -19q-27 0 -47 19.5zM323 614.5q-20 19.5 -20 46.5t20 46.5t47 19.5q28 0 48 -19.5t20 -46.5q0 -28 -20 -47t-48 -19q-27 0 -47 19.5z" />
    <glyph glyph-name="uni0452" unicode="&#x452;" horiz-adv-x="570"
d="M458 471.5q45 -46.5 45 -126.5v-369q0 -87 -41.5 -128t-115.5 -41q-51 0 -76 11v100q18 -9 51 -9q37 0 54.5 18t17.5 62v329q0 47 -19.5 70.5t-65.5 23.5q-33 0 -64.5 -14t-56.5 -41v-357h-110v568h-61v83h61v79h110v-79h119v-83h-119v-103q27 24 64 38.5t80 14.5
q82 0 127 -46.5z" />
    <glyph glyph-name="uni0453" unicode="&#x453;" horiz-adv-x="440"
d="M77 507h336v-97h-226v-410h-110v507zM279 730h122l-99 -132h-108z" />
    <glyph glyph-name="uni0454" unicode="&#x454;" horiz-adv-x="450"
d="M195 384q-33 -29 -41 -80h191v-95h-192q7 -54 40 -84.5t94 -30.5q31 0 62.5 8t56.5 21v-107q-20 -12 -55 -20t-73 -8q-76 0 -130 33t-81.5 90t-27.5 127v31q0 70 27.5 127t81.5 90t130 33q38 0 73 -8t55 -20v-107q-25 13 -56.5 21t-62.5 8q-59 0 -92 -29z" />
    <glyph glyph-name="uni0455" unicode="&#x455;" horiz-adv-x="441"
d="M117 0.5q-45 12.5 -71 31.5v107q82 -50 169 -50q43 0 63 14t20 38q0 22 -15 34.5t-50 24.5l-41 15q-75 26 -109.5 58.5t-34.5 91.5q0 71 52 112.5t141 41.5q40 0 76 -7.5t59 -20.5v-107q-64 34 -138 34q-39 0 -59.5 -13t-20.5 -36q0 -20 15.5 -31t53.5 -24l39 -14
q72 -24 107 -57.5t35 -96.5q0 -72 -50.5 -115t-143.5 -43q-52 0 -97 12.5z" />
    <glyph glyph-name="uni0456" unicode="&#x456;" horiz-adv-x="265"
d="M77 507h110v-507h-110v507zM83.5 612q-20.5 20 -20.5 48t20.5 48t48.5 20q29 0 49 -20t20 -48t-20 -48t-49 -20q-28 0 -48.5 20z" />
    <glyph glyph-name="uni0457" unicode="&#x457;" horiz-adv-x="265"
d="M77 507h110v-507h-110v507zM-15 614.5q-20 19.5 -20 46.5t20 46.5t47 19.5q28 0 48 -19.5t20 -46.5q0 -28 -20 -47t-48 -19q-27 0 -47 19.5zM185 614.5q-20 19.5 -20 46.5t20 46.5t47 19.5q28 0 48 -19.5t20 -46.5q0 -28 -20 -47t-48 -19q-27 0 -47 19.5z" />
    <glyph glyph-name="uni0458" unicode="&#x458;" horiz-adv-x="265"
d="M187 507v-531q0 -87 -41.5 -128t-115.5 -41q-49 0 -76 11v100q18 -9 51 -9q37 0 54.5 18t17.5 62v518h110zM83.5 612q-20.5 20 -20.5 48t20.5 48t48.5 20q29 0 49 -20t20 -48t-20 -48t-49 -20q-28 0 -48.5 20z" />
    <glyph glyph-name="uni0459" unicode="&#x459;" horiz-adv-x="805"
d="M686 324.5q42 -21.5 66 -61t24 -90.5t-24 -90.5t-66 -61t-95 -21.5h-219v404h-146l-2 -48q-6 -144 -19 -217.5t-46 -108t-99 -34.5q-25 0 -41 4v105q12 -2 19 -2q26 0 41 16t25 70t14 167l6 151h358v-161h109q53 0 95 -21.5zM650.5 119.5q21.5 20.5 21.5 53.5
q0 32 -21.5 53t-61.5 21h-107v-148h107q40 0 61.5 20.5z" />
    <glyph glyph-name="uni045A" unicode="&#x45a;" horiz-adv-x="822"
d="M742 284.5q51 -43.5 51 -119.5q0 -77 -51 -121t-132 -44h-223v231h-200v-231h-110v507h110v-179h200v179h110v-179h113q81 0 132 -43.5zM687 163q0 32 -19.5 50t-59.5 18h-111v-133h111q79 0 79 65z" />
    <glyph glyph-name="uni045B" unicode="&#x45b;" horiz-adv-x="570"
d="M458 471.5q45 -46.5 45 -126.5v-345h-110v318q0 47 -19.5 70.5t-65.5 23.5q-33 0 -64.5 -14t-56.5 -41v-357h-110v568h-61v83h61v79h110v-79h119v-83h-119v-103q27 24 64 38.5t80 14.5q82 0 127 -46.5z" />
    <glyph glyph-name="uni045C" unicode="&#x45c;" horiz-adv-x="529"
d="M387 0l-200 251v-251h-110v507h110v-218l189 218h138l-208 -232l222 -275h-141zM302 730h122l-99 -132h-108z" />
    <glyph glyph-name="uni045E" unicode="&#x45e;" horiz-adv-x="523"
d="M504 507l-176 -489q-28 -77 -54.5 -121.5t-63.5 -66.5t-93 -22q-45 0 -68 10v103q19 -8 51 -8q39 0 65 19t42 61l-188 514h118l126 -355l124 355h117zM142 617.5q-42 40.5 -47 101.5h91q2 -29 19.5 -51t56.5 -22q38 0 55.5 21.5t20.5 51.5h91q-5 -61 -47 -101.5
t-120 -40.5t-120 40.5z" />
    <glyph glyph-name="uni045F" unicode="&#x45f;" horiz-adv-x="565"
d="M488 0h-152v-125h-107v125h-152v507h110v-410h191v410h110v-507z" />
    <glyph glyph-name="uni0462" unicode="&#x462;" horiz-adv-x="697"
d="M544.5 405.5q53.5 -26.5 83.5 -75.5t30 -114t-30 -114t-83.5 -75.5t-120.5 -26.5h-262v519h-136v92h136v89h114v-89h167v-92h-167v-87h148q67 0 120.5 -26.5zM513 139q31 29 31 77q0 47 -31.5 76.5t-90.5 29.5h-146v-212h146q60 0 91 29z" />
    <glyph glyph-name="uni0463" unicode="&#x463;" horiz-adv-x="558"
d="M438.5 324.5q42.5 -21.5 66.5 -61t24 -90.5t-24 -90.5t-66.5 -61t-95.5 -21.5h-218v474h-105v84h105v142h110v-142h122v-84h-122v-128h108q53 0 95.5 -21.5zM403 119.5q21 20.5 21 53.5q0 32 -21 53t-61 21h-107v-148h107q40 0 61 20.5z" />
    <glyph glyph-name="uni0472" unicode="&#x472;" horiz-adv-x="715"
d="M526.5 669q68.5 -44 102.5 -122t34 -179v-36q0 -101 -34 -179t-102.5 -122t-168.5 -44t-168.5 44t-102.5 122t-34 179v36q0 101 34 179t102.5 122t168.5 44t168.5 -44zM227.5 553q-46.5 -50 -56.5 -136h373q-10 86 -56.5 136t-129.5 50q-84 0 -130.5 -50zM493.5 154
q46.5 57 52.5 153h-377q6 -96 53 -153t136 -57t135.5 57z" />
    <glyph glyph-name="uni0473" unicode="&#x473;" horiz-adv-x="551"
d="M404 487q53 -33 80 -90t27 -128v-31q0 -71 -27 -128t-80 -90t-129 -33q-75 0 -128.5 33t-80.5 90t-27 128v31q0 71 27 128t80.5 90t128.5 33q76 0 129 -33zM191.5 385.5q-30.5 -30.5 -38.5 -84.5h244q-7 53 -37.5 84t-84.5 31q-53 0 -83.5 -30.5zM361 123.5
q30 32.5 36 88.5h-244q5 -56 36 -88.5t86 -32.5q56 0 86 32.5z" />
    <glyph glyph-name="uni0474" unicode="&#x474;" horiz-adv-x="717"
d="M16 700h123l198 -574l159 461q23 66 60 96t87 30q37 0 56 -5v-107q-14 3 -32 3q-22 0 -39.5 -16t-32.5 -56l-186 -532h-146z" />
    <glyph glyph-name="uni0475" unicode="&#x475;" horiz-adv-x="555"
d="M19 507h117l132 -402l97 298q21 64 50 89.5t74 25.5q27 0 47 -3v-99q-7 2 -21 2q-17 0 -28.5 -11.5t-21.5 -41.5l-126 -365h-145z" />
    <glyph glyph-name="uni0490" unicode="&#x490;" horiz-adv-x="562"
d="M532 830v-240h-332v-590h-114v700h332v130h114z" />
    <glyph glyph-name="uni0491" unicode="&#x491;" horiz-adv-x="444"
d="M417 627v-217h-230v-410h-110v507h233v120h107z" />
    <glyph glyph-name="uni04D8" unicode="&#x4d8;" horiz-adv-x="702"
d="M484 670.5q78 -41.5 118.5 -118t40.5 -179.5v-46q0 -99 -36 -175.5t-104 -120t-161 -43.5q-138 0 -210 82.5t-72 228.5v88h465q-5 100 -62.5 155.5t-169.5 55.5q-109 0 -193 -54v117q30 23 84 37t114 14q108 0 186 -41.5zM466 144.5q45 47.5 56 132.5h-346
q8 -180 168 -180q77 0 122 47.5z" />
    <glyph glyph-name="uni04D9" unicode="&#x4d9;" horiz-adv-x="517"
d="M408 452q69 -67 69 -183v-31q0 -72 -26.5 -129t-77.5 -89.5t-120 -32.5q-102 0 -156.5 61t-54.5 170v71h325q-12 124 -154 124q-77 0 -140 -38v106q22 17 61.5 27.5t83.5 10.5q121 0 190 -67zM329.5 117q27.5 29 35.5 82h-215q5 -111 105 -111q47 0 74.5 29z" />
    <glyph glyph-name="Wgrave" unicode="&#x1e80;" horiz-adv-x="998"
d="M966 700l-177 -700h-152l-139 532l-139 -532h-149l-178 700h120l139 -584l150 584h118l150 -584l139 584h118zM359 893h122l85 -132h-108z" />
    <glyph glyph-name="wgrave" unicode="&#x1e81;" horiz-adv-x="817"
d="M785 507l-132 -507h-142l-102 345l-103 -345h-143l-132 507h120l93 -387l113 387h105l114 -388l93 388h116zM266 730h122l85 -132h-108z" />
    <glyph glyph-name="Wacute" unicode="&#x1e82;" horiz-adv-x="998"
d="M966 700l-177 -700h-152l-139 532l-139 -532h-149l-178 700h120l139 -584l150 584h118l150 -584l139 584h118zM521 893h122l-99 -132h-108z" />
    <glyph glyph-name="wacute" unicode="&#x1e83;" horiz-adv-x="817"
d="M785 507l-132 -507h-142l-102 345l-103 -345h-143l-132 507h120l93 -387l113 387h105l114 -388l93 388h116zM428 730h122l-99 -132h-108z" />
    <glyph glyph-name="Wdieresis" unicode="&#x1e84;" horiz-adv-x="998"
d="M966 700l-177 -700h-152l-139 532l-139 -532h-149l-178 700h120l139 -584l150 584h118l150 -584l139 584h118zM342 774.5q-20 19.5 -20 46.5t20 46.5t47 19.5q28 0 48 -19.5t20 -46.5q0 -28 -20 -47t-48 -19q-27 0 -47 19.5zM565 774q-20 19 -20 47q0 27 20 46.5t48 19.5
q27 0 47 -19.5t20 -46.5t-20 -46.5t-47 -19.5q-28 0 -48 19z" />
    <glyph glyph-name="wdieresis" unicode="&#x1e85;" horiz-adv-x="817"
d="M785 507l-132 -507h-142l-102 345l-103 -345h-143l-132 507h120l93 -387l113 387h105l114 -388l93 388h116zM261 614.5q-20 19.5 -20 46.5t20 46.5t47 19.5q28 0 48 -19.5t20 -46.5q0 -28 -20 -47t-48 -19q-27 0 -47 19.5zM461 614.5q-20 19.5 -20 46.5t20 46.5t47 19.5
q28 0 48 -19.5t20 -46.5q0 -28 -20 -47t-48 -19q-27 0 -47 19.5z" />
    <glyph glyph-name="uni1E9E" unicode="&#x1e9e;" horiz-adv-x="731"
d="M635.5 325q53.5 -49 53.5 -132q0 -95 -64 -150.5t-172 -55.5q-48 0 -93.5 10.5t-73.5 25.5v114q32 -18 76 -30t90 -12q61 0 91.5 24.5t30.5 66.5q0 48 -42 78.5t-126 52.5l-71 18v78l159 177h-294v-590h-114v700h557v-101l-175 -190q114 -35 167.5 -84z" />
    <glyph glyph-name="Ygrave" unicode="&#x1ef2;" horiz-adv-x="615"
d="M364 304v-304h-113v304l-240 396h129l169 -281l168 281h127zM166 893h122l85 -132h-108z" />
    <glyph glyph-name="ygrave" unicode="&#x1ef3;" horiz-adv-x="523"
d="M504 507l-176 -489q-28 -77 -54.5 -121.5t-63.5 -66.5t-93 -22q-45 0 -68 10v103q19 -8 51 -8q39 0 65 19t42 61l-188 514h118l126 -355l124 355h117zM120 730h122l85 -132h-108z" />
    <glyph glyph-name="endash" unicode="&#x2013;" horiz-adv-x="697"
d="M56 360h585v-99h-585v99z" />
    <glyph glyph-name="emdash" unicode="&#x2014;" horiz-adv-x="967"
d="M56 360h855v-99h-855v99z" />
    <glyph glyph-name="quoteleft" unicode="&#x2018;" horiz-adv-x="219"
d="M133 485h-111l72 215h103z" />
    <glyph glyph-name="quoteright" unicode="&#x2019;" horiz-adv-x="219"
d="M85 700h112l-72 -215h-103z" />
    <glyph glyph-name="quotesinglbase" unicode="&#x201a;" horiz-adv-x="235"
d="M77 122h112l-72 -215h-103z" />
    <glyph glyph-name="quotedblleft" unicode="&#x201c;" horiz-adv-x="403"
d="M133 485h-111l72 215h103zM317 485h-111l72 215h103z" />
    <glyph glyph-name="quotedblright" unicode="&#x201d;" horiz-adv-x="403"
d="M85 700h112l-72 -215h-103zM269 700h112l-72 -215h-103z" />
    <glyph glyph-name="quotedblbase" unicode="&#x201e;" horiz-adv-x="403"
d="M85 122h112l-72 -215h-103zM269 122h112l-72 -215h-103z" />
    <glyph glyph-name="dagger" unicode="&#x2020;" horiz-adv-x="709"
d="M622 359h-211v-489h-114v489h-211v110h211v231h114v-231h211v-110z" />
    <glyph glyph-name="daggerdbl" unicode="&#x2021;" horiz-adv-x="709"
d="M411 390v-190h211v-110h-211v-220h-114v220h-211v110h211v190h-211v110h211v200h114v-200h211v-110h-211z" />
    <glyph glyph-name="bullet" unicode="&#x2022;" horiz-adv-x="472"
d="M173 241q-29 17 -46 46t-17 63t17 63t46 46t63 17t63 -17t46 -46t17 -63t-17 -63t-46 -46t-63 -17t-63 17z" />
    <glyph glyph-name="ellipsis" unicode="&#x2026;" horiz-adv-x="686"
d="M64.5 11.5q-21.5 21.5 -21.5 52.5t21.5 52.5t52.5 21.5t53 -21.5t22 -52.5t-22 -52.5t-53 -21.5t-52.5 21.5zM290.5 11.5q-21.5 21.5 -21.5 52.5t21.5 52.5t52.5 21.5t53 -21.5t22 -52.5t-22 -52.5t-53 -21.5t-52.5 21.5zM515.5 11.5q-21.5 21.5 -21.5 52.5t21.5 52.5
t52.5 21.5t53 -21.5t22 -52.5t-22 -52.5t-53 -21.5t-52.5 21.5z" />
    <glyph glyph-name="perthousand" unicode="&#x2030;" horiz-adv-x="1215"
d="M125.5 410.5q-37.5 20.5 -58.5 57t-21 83.5t21 83.5t58.5 57t83.5 20.5t83 -20.5t58 -57t21 -83.5t-21 -83.5t-58 -57t-83 -20.5t-83.5 20.5zM613 700h98l-485 -700h-98zM265.5 490.5q21.5 24.5 21.5 60.5t-21.5 60.5t-57.5 24.5t-57 -24t-21 -61t21 -61t57 -24
t57.5 24.5zM546.5 7.5q-37.5 20.5 -58.5 57t-21 83.5t21 83.5t58.5 57t83.5 20.5t83 -20.5t58 -57t21 -83.5t-21 -83.5t-58 -57t-83 -20.5t-83.5 20.5zM923.5 2.5q-37.5 20.5 -58.5 57t-21 83.5t21 83.5t58.5 57t83.5 20.5t83 -20.5t58 -57t21 -83.5t-21 -83.5t-58 -57
t-83 -20.5t-83.5 20.5zM686.5 87.5q21.5 24.5 21.5 60.5t-21.5 60.5t-57.5 24.5t-57 -24t-21 -61t21 -61t57 -24t57.5 24.5zM1063.5 82.5q21.5 24.5 21.5 60.5t-21.5 60.5t-57.5 24.5t-57 -24t-21 -61t21 -61t57 -24t57.5 24.5z" />
    <glyph glyph-name="guilsinglleft" unicode="&#x2039;" horiz-adv-x="366"
d="M51 258v9l159 192h105l-162 -197l162 -197h-105z" />
    <glyph glyph-name="guilsinglright" unicode="&#x203a;" horiz-adv-x="366"
d="M213 262l-162 197h105l159 -192v-9l-159 -193h-105z" />
    <glyph glyph-name="fraction" unicode="&#x2044;" horiz-adv-x="259"
d="M323 700h98l-485 -700h-98z" />
    <glyph glyph-name="Euro" unicode="&#x20ac;"
d="M228 472h193v-77h-203q-1 -8 -1 -25v-40v-7h204v-77h-197q14 -74 56 -116t115 -42q75 0 140 43v-104q-24 -18 -63.5 -29t-83.5 -11q-115 0 -185.5 71t-89.5 188h-78v77h72v4v46v22h-72v77h81q22 109 91.5 175t180.5 66q44 0 83.5 -11t63.5 -29v-104q-65 43 -140 43
q-132 0 -167 -140z" />
    <glyph glyph-name="uni20BA" unicode="&#x20ba;"
d="M538 278q-17 -141 -105 -209.5t-230 -68.5h-67v275l-97 -32v80l97 33v82l-97 -32v80l97 33v181h110v-145l145 49v-81l-145 -48v-83l145 49v-81l-145 -48v-218q87 7 133.5 52t63.5 132h95z" />
    <glyph glyph-name="uni20BD" unicode="&#x20bd;"
d="M234 295v-63h146v-77h-146v-155h-110v155h-91v77h91v63h-91v86h91v319h195q98 0 157 -54.5t59 -147.5t-58 -148t-158 -55h-85zM234 381h79q57 0 85 30t28 79q0 50 -28 80t-85 30h-79v-219z" />
    <glyph glyph-name="uni2116" unicode="&#x2116;" horiz-adv-x="1013"
d="M948.5 664.5q43.5 -45.5 43.5 -116.5v-23q0 -71 -43.5 -116.5t-120.5 -45.5t-121 45.5t-44 116.5v23q0 71 44 116.5t121 45.5t120.5 -45.5zM491 700h110v-700h-121l-284 516v-516h-110v700h125l280 -509v509zM897 546q0 36 -17.5 56.5t-51.5 20.5q-35 0 -53 -20.5
t-18 -56.5v-19q0 -36 18 -57t53 -21q34 0 51.5 21t17.5 57v19z" />
    <glyph glyph-name="trademark" unicode="&#x2122;" horiz-adv-x="880"
d="M10 700h330v-83h-122v-297h-86v297h-122v83zM837 700v-379h-86v266l-97 -193h-64l-97 191v-264h-83v379h111l103 -203l102 203h111z" />
    <glyph glyph-name="oneeighth" unicode="&#x215b;" horiz-adv-x="975"
d="M345 351v-68h-290v68h105v254l-100 -27v78l142 46h42v-351h101zM686 700h98l-485 -700h-98zM940 178.5q15 -26.5 15 -57.5q0 -58 -42 -94.5t-119 -36.5t-119 36.5t-42 94.5q0 31 14.5 57.5t43.5 44.5q-42 32 -42 84t39 87.5t106 35.5t106 -35.5t39 -87.5q0 -25 -11 -46.5
t-31 -37.5q28 -18 43 -44.5zM748 341.5q-16 -14.5 -16 -35.5t16 -35.5t46 -14.5t45.5 14.5t15.5 35.5t-15.5 35.5t-45.5 14.5t-46 -14.5zM851 80.5q20 16.5 20 42.5q0 28 -19 44t-58 16q-38 0 -58 -16.5t-20 -43.5q0 -26 20 -42.5t58 -16.5q37 0 57 16.5z" />
    <glyph glyph-name="threeeighths" unicode="&#x215c;" horiz-adv-x="946"
d="M294.5 498q31.5 -32 31.5 -85q0 -61 -45 -100.5t-118 -39.5q-75 0 -126 30v84q53 -33 124 -33q38 0 59.5 16.5t21.5 41.5q0 23 -18.5 37t-52.5 14q-30 0 -47 -7l-38 53l117 117h-162v77h263v-75l-93 -92q52 -6 83.5 -38zM657 700h98l-485 -700h-98zM911 178.5
q15 -26.5 15 -57.5q0 -58 -42 -94.5t-119 -36.5t-119 36.5t-42 94.5q0 31 14.5 57.5t43.5 44.5q-42 32 -42 84t39 87.5t106 35.5t106 -35.5t39 -87.5q0 -25 -11 -46.5t-31 -37.5q28 -18 43 -44.5zM719 341.5q-16 -14.5 -16 -35.5t16 -35.5t46 -14.5t45.5 14.5t15.5 35.5
t-15.5 35.5t-45.5 14.5t-46 -14.5zM822 80.5q20 16.5 20 42.5q0 28 -19 44t-58 16q-38 0 -58 -16.5t-20 -43.5q0 -26 20 -42.5t58 -16.5q37 0 57 16.5z" />
    <glyph glyph-name="fiveeighths" unicode="&#x215d;" horiz-adv-x="955"
d="M290.5 513.5q39.5 -34.5 39.5 -95.5q0 -65 -45 -105t-121 -40q-72 0 -123 30v84q27 -17 61 -25t62 -8q41 0 61.5 16.5t20.5 43.5q0 25 -17.5 39.5t-53.5 14.5q-32 0 -59 -12l-66 24l28 223h233v-77h-163l-12 -85q28 7 50 7q65 0 104.5 -34.5zM666 700h98l-485 -700h-98z
M920 178.5q15 -26.5 15 -57.5q0 -58 -42 -94.5t-119 -36.5t-119 36.5t-42 94.5q0 31 14.5 57.5t43.5 44.5q-42 32 -42 84t39 87.5t106 35.5t106 -35.5t39 -87.5q0 -25 -11 -46.5t-31 -37.5q28 -18 43 -44.5zM728 341.5q-16 -14.5 -16 -35.5t16 -35.5t46 -14.5t45.5 14.5
t15.5 35.5t-15.5 35.5t-45.5 14.5t-46 -14.5zM831 80.5q20 16.5 20 42.5q0 28 -19 44t-58 16q-38 0 -58 -16.5t-20 -43.5q0 -26 20 -42.5t58 -16.5q37 0 57 16.5z" />
    <glyph glyph-name="seveneighths" unicode="&#x215e;" horiz-adv-x="895"
d="M330 703v-76q-119 -161 -144 -344h-96q7 78 47.5 172t96.5 171h-194v77h290zM606 700h98l-485 -700h-98zM860 178.5q15 -26.5 15 -57.5q0 -58 -42 -94.5t-119 -36.5t-119 36.5t-42 94.5q0 31 14.5 57.5t43.5 44.5q-42 32 -42 84t39 87.5t106 35.5t106 -35.5t39 -87.5
q0 -25 -11 -46.5t-31 -37.5q28 -18 43 -44.5zM668 341.5q-16 -14.5 -16 -35.5t16 -35.5t46 -14.5t45.5 14.5t15.5 35.5t-15.5 35.5t-45.5 14.5t-46 -14.5zM771 80.5q20 16.5 20 42.5q0 28 -19 44t-58 16q-38 0 -58 -16.5t-20 -43.5q0 -26 20 -42.5t58 -16.5q37 0 57 16.5z
" />
    <glyph glyph-name="arrowleft" unicode="&#x2190;" horiz-adv-x="856"
d="M813 295h-572l263 -261h-142l-319 317l319 317h142l-264 -262h573v-111z" />
    <glyph glyph-name="arrowup" unicode="&#x2191;" horiz-adv-x="720"
d="M677 309l-261 263v-572h-111v573l-262 -264v142l317 319l317 -319v-142z" />
    <glyph glyph-name="arrowright" unicode="&#x2192;" horiz-adv-x="856"
d="M813 351l-319 -317h-142l263 261h-572v111h573l-264 262h142z" />
    <glyph glyph-name="arrowdown" unicode="&#x2193;" horiz-adv-x="720"
d="M677 391l-261 -263v572h-111v-573l-262 264v-142l317 -319l317 319v142z" />
    <glyph glyph-name="uni2196" unicode="&#x2196;" horiz-adv-x="698"
d="M61 700v-441l97 -98v361l416 -416l81 81l-415 415h360l-98 98h-441z" />
    <glyph glyph-name="uni2197" unicode="&#x2197;" horiz-adv-x="698"
d="M637 700v-441l-97 -98v361l-416 -416l-81 81l415 415h-360l98 98h441z" />
    <glyph glyph-name="uni2198" unicode="&#x2198;" horiz-adv-x="698"
d="M637 0v441l-97 98v-361l-416 416l-81 -81l415 -415h-360l98 -98h441z" />
    <glyph glyph-name="uni2199" unicode="&#x2199;" horiz-adv-x="698"
d="M61 0v441l97 98v-361l416 416l81 -81l-415 -415h360l-98 -98h-441z" />
    <glyph glyph-name="partialdiff" unicode="&#x2202;" horiz-adv-x="541"
d="M451.5 527.5q49.5 -107.5 49.5 -260.5v-33q0 -116 -61 -181.5t-169 -65.5q-107 0 -169.5 66t-62.5 180v30q0 67 27.5 118t77.5 79.5t115 28.5q57 0 104 -26q-25 67 -79.5 132t-144.5 135h148q115 -95 164.5 -202.5zM389 257q0 53 -5 85q-18 20 -48.5 31.5t-64.5 11.5
q-57 0 -88.5 -33.5t-31.5 -94.5v-20q0 -71 30.5 -108t88.5 -37t88.5 37t30.5 108v20z" />
    <glyph glyph-name="emptyset" unicode="&#x2205;" horiz-adv-x="674"
d="M600 411q21 -51 21 -107q0 -77 -38 -142.5t-103.5 -103.5t-142.5 -38q-87 0 -160 49l-61 -73l-49 34l65 77q-37 39 -58 90t-21 107q0 77 38 142.5t103.5 103.5t142.5 38q88 0 159 -49l61 72l49 -34l-64 -76q37 -39 58 -90zM148 231.5q13 -34.5 36 -62.5l261 309
q-50 32 -108 32q-55 0 -101.5 -27.5t-73.5 -75t-27 -103.5q0 -38 13 -72.5zM438 125.5q46 27.5 73 75t27 103.5q0 78 -49 135l-260 -309q50 -32 108 -32q55 0 101 27.5z" />
    <glyph glyph-name="product" unicode="&#x220f;" horiz-adv-x="742"
d="M153 590h-100v110h636v-110h-100v-720h-114v720h-208v-720h-114v720z" />
    <glyph glyph-name="summation" unicode="&#x2211;" horiz-adv-x="596"
d="M53 -25l238 310l-238 310v105h491v-110h-344l206 -262v-85l-206 -263h344v-110h-491v105z" />
    <glyph glyph-name="minus" unicode="&#x2212;"
d="M71 392h418v-90h-418v90z" />
    <glyph glyph-name="radical" unicode="&#x221a;" horiz-adv-x="663"
d="M647 590h-111l-192 -690h-175l-138 428h124l102 -330l187 702h203v-110z" />
    <glyph glyph-name="infinity" unicode="&#x221e;" horiz-adv-x="779"
d="M120.5 148.5q-37.5 20.5 -59.5 56.5t-22 79q0 45 22 81.5t61 57t87 20.5q52 0 95.5 -26.5t88.5 -75.5q48 50 89 76t98 26q71 0 115 -43t44 -111v-1q0 -47 -23 -83.5t-61.5 -56.5t-81.5 -20q-46 0 -87.5 23.5t-94.5 78.5q-45 -49 -89 -75.5t-100 -26.5q-44 0 -81.5 20.5z
M277 220q30 22 66 61q-39 48 -68.5 71t-71.5 23q-38 0 -60 -26t-22 -66q0 -37 25 -61t63 -24t68 22zM635 224q22 26 22 60q0 44 -22.5 67.5t-59.5 23.5q-33 0 -62 -19.5t-72 -67.5q44 -50 73 -70t62 -20q37 0 59 26z" />
    <glyph glyph-name="integral" unicode="&#x222b;"
d="M501.5 736.5q20.5 -3.5 32.5 -9.5v-99q-19 8 -52 8q-34 0 -53.5 -19t-29.5 -65l-130 -582q-19 -85 -58 -124t-109 -39q-23 0 -43.5 3.5t-32.5 9.5v99q19 -8 51 -8q35 0 54.5 18.5t29.5 63.5l130 584q19 85 58 124t109 39q23 0 43.5 -3.5z" />
    <glyph glyph-name="approxequal" unicode="&#x2248;"
d="M346.5 362q-26.5 7 -66.5 21t-66.5 21t-53.5 7q-52 0 -90 -39v90q31 33 90 33q27 0 53.5 -7t66.5 -21t66.5 -21t53.5 -7q52 0 90 39v-90q-31 -33 -90 -33q-27 0 -53.5 7zM346.5 185q-26.5 7 -66.5 21t-66.5 21t-53.5 7q-52 0 -90 -39v90q31 33 90 33q27 0 53.5 -7
t66.5 -21t66.5 -21t53.5 -7q52 0 90 39v-90q-31 -33 -90 -33q-27 0 -53.5 7z" />
    <glyph glyph-name="notequal" unicode="&#x2260;"
d="M336 391l-44 -88h197v-89h-242l-42 -84h-67l42 84h-109v89h154l44 88h-198v89h242l42 84h67l-42 -84h109v-89h-153z" />
    <glyph glyph-name="lessequal" unicode="&#x2264;"
d="M71 387v-89l418 -150v99l-298 95l298 96v99zM489 94h-418v-90h418v90z" />
    <glyph glyph-name="greaterequal" unicode="&#x2265;"
d="M489 387v-89l-418 -150v99l298 95l-298 96v99zM71 94h418v-90h-418v90z" />
    <glyph glyph-name="lozenge" unicode="&#x25ca;"
d="M23 350l202 350h110l202 -350l-202 -350h-110zM421 350l-141 247l-141 -247l141 -247z" />
    <glyph glyph-name="i.loclTRK" horiz-adv-x="265"
d="M77 507h110v-507h-110v507zM83.5 612q-20.5 20 -20.5 48t20.5 48t48.5 20q29 0 49 -20t20 -48t-20 -48t-49 -20q-28 0 -48.5 20z" />
    <glyph glyph-name="zero.dnom" horiz-adv-x="363"
d="M298.5 375q36.5 -55 36.5 -150v-30q0 -95 -36.5 -150t-116.5 -55t-117 55.5t-37 149.5v30q0 94 37 149.5t117 55.5t116.5 -55zM109 194v-9l131 131q-18 39 -58 39q-41 0 -57 -34.5t-16 -94.5v-32zM254 226v11l-132 -131q18 -41 60 -41q40 0 56 34.5t16 94.5v32z" />
    <glyph glyph-name="one.dnom" horiz-adv-x="363"
d="M345 68v-68h-290v68h105v254l-100 -27v78l142 46h42v-351h101z" />
    <glyph glyph-name="two.dnom" horiz-adv-x="363"
d="M152 103.5q-13 -13.5 -20 -26.5h190v-77h-289v28q0 46 21.5 82t76.5 79l34 27q42 34 57.5 51t15.5 40q0 20 -18 31t-50 11q-65 0 -116 -44v85q17 16 47.5 28t77.5 12q68 0 105.5 -35t37.5 -86q0 -40 -21 -71.5t-79 -76.5l-31 -24q-26 -20 -39 -33.5z" />
    <glyph glyph-name="three.dnom" horiz-adv-x="363"
d="M294.5 215q31.5 -32 31.5 -85q0 -61 -45 -100.5t-118 -39.5q-75 0 -126 30v84q53 -33 124 -33q38 0 59.5 16.5t21.5 41.5q0 23 -18.5 37t-52.5 14q-30 0 -47 -7l-38 53l117 117h-162v77h263v-75l-93 -92q52 -6 83.5 -38z" />
    <glyph glyph-name="four.dnom" horiz-adv-x="363"
d="M352 155v-78h-58v-77h-83v77h-194v74l153 269h124v-265h58zM211 155v189l-108 -189h108z" />
    <glyph glyph-name="five.dnom" horiz-adv-x="363"
d="M290.5 230.5q39.5 -34.5 39.5 -95.5q0 -65 -45 -105t-121 -40q-72 0 -123 30v84q27 -17 61 -25t62 -8q41 0 61.5 16.5t20.5 43.5q0 25 -17.5 39.5t-53.5 14.5q-32 0 -59 -12l-66 24l28 223h233v-77h-163l-12 -85q28 7 50 7q65 0 104.5 -34.5z" />
    <glyph glyph-name="six.dnom" horiz-adv-x="363"
d="M303 242q35 -35 35 -101q0 -63 -39.5 -107t-111.5 -44q-74 0 -115 41.5t-41 109.5v18q0 79 46 149t102 112h119q-51 -38 -89 -74t-63 -79q27 10 52 10q70 0 105 -35zM237.5 87q17.5 18 17.5 50q0 33 -17.5 48.5t-52.5 15.5q-43 0 -70 -27q-1 -6 -1 -18v-12q0 -35 19 -55
t54 -20q33 0 50.5 18z" />
    <glyph glyph-name="seven.dnom" horiz-adv-x="363"
d="M330 420v-76q-119 -161 -144 -344h-96q7 78 47.5 172t96.5 171h-194v77h290z" />
    <glyph glyph-name="eight.dnom" horiz-adv-x="363"
d="M328 178.5q15 -26.5 15 -57.5q0 -58 -42 -94.5t-119 -36.5t-119 36.5t-42 94.5q0 31 14.5 57.5t43.5 44.5q-42 32 -42 84t39 87.5t106 35.5t106 -35.5t39 -87.5q0 -25 -11 -46.5t-31 -37.5q28 -18 43 -44.5zM136 341.5q-16 -14.5 -16 -35.5t16 -35.5t46 -14.5t45.5 14.5
t15.5 35.5t-15.5 35.5t-45.5 14.5t-46 -14.5zM239 80.5q20 16.5 20 42.5q0 28 -19 44t-58 16q-38 0 -58 -16.5t-20 -43.5q0 -26 20 -42.5t58 -16.5q37 0 57 16.5z" />
    <glyph glyph-name="nine.dnom" horiz-adv-x="363"
d="M291 388.5q41 -41.5 41 -109.5v-18q0 -79 -46 -148.5t-102 -112.5h-116q49 37 87 73.5t63 79.5q-28 -10 -58 -10q-61 0 -98 37t-37 99q0 64 38.5 107.5t114.5 43.5q72 0 113 -41.5zM248 245q1 6 1 19v12q0 35 -19 55t-54 20q-34 0 -51 -18t-17 -50q0 -64 69 -64
q44 0 71 26z" />
    <glyph glyph-name="zero.numr" horiz-adv-x="363"
d="M298.5 658q36.5 -55 36.5 -150v-30q0 -95 -36.5 -150t-116.5 -55t-117 55.5t-37 149.5v30q0 94 37 149.5t117 55.5t116.5 -55zM109 477v-9l131 131q-18 39 -58 39q-41 0 -57 -34.5t-16 -94.5v-32zM254 509v11l-132 -131q18 -41 60 -41q40 0 56 34.5t16 94.5v32z" />
    <glyph glyph-name="one.numr" horiz-adv-x="363"
d="M345 351v-68h-290v68h105v254l-100 -27v78l142 46h42v-351h101z" />
    <glyph glyph-name="two.numr" horiz-adv-x="363"
d="M152 386.5q-13 -13.5 -20 -26.5h190v-77h-289v28q0 46 21.5 82t76.5 79l34 27q42 34 57.5 51t15.5 40q0 20 -18 31t-50 11q-65 0 -116 -44v85q17 16 47.5 28t77.5 12q68 0 105.5 -35t37.5 -86q0 -40 -21 -71.5t-79 -76.5l-31 -24q-26 -20 -39 -33.5z" />
    <glyph glyph-name="three.numr" horiz-adv-x="363"
d="M294.5 498q31.5 -32 31.5 -85q0 -61 -45 -100.5t-118 -39.5q-75 0 -126 30v84q53 -33 124 -33q38 0 59.5 16.5t21.5 41.5q0 23 -18.5 37t-52.5 14q-30 0 -47 -7l-38 53l117 117h-162v77h263v-75l-93 -92q52 -6 83.5 -38z" />
    <glyph glyph-name="four.numr" horiz-adv-x="363"
d="M352 438v-78h-58v-77h-83v77h-194v74l153 269h124v-265h58zM211 438v189l-108 -189h108z" />
    <glyph glyph-name="five.numr" horiz-adv-x="363"
d="M290.5 513.5q39.5 -34.5 39.5 -95.5q0 -65 -45 -105t-121 -40q-72 0 -123 30v84q27 -17 61 -25t62 -8q41 0 61.5 16.5t20.5 43.5q0 25 -17.5 39.5t-53.5 14.5q-32 0 -59 -12l-66 24l28 223h233v-77h-163l-12 -85q28 7 50 7q65 0 104.5 -34.5z" />
    <glyph glyph-name="six.numr" horiz-adv-x="363"
d="M303 525q35 -35 35 -101q0 -63 -39.5 -107t-111.5 -44q-74 0 -115 41.5t-41 109.5v18q0 79 46 149t102 112h119q-51 -38 -89 -74t-63 -79q27 10 52 10q70 0 105 -35zM237.5 370q17.5 18 17.5 50q0 33 -17.5 48.5t-52.5 15.5q-43 0 -70 -27q-1 -6 -1 -18v-12q0 -35 19 -55
t54 -20q33 0 50.5 18z" />
    <glyph glyph-name="seven.numr" horiz-adv-x="363"
d="M330 703v-76q-119 -161 -144 -344h-96q7 78 47.5 172t96.5 171h-194v77h290z" />
    <glyph glyph-name="eight.numr" horiz-adv-x="363"
d="M328 461.5q15 -26.5 15 -57.5q0 -58 -42 -94.5t-119 -36.5t-119 36.5t-42 94.5q0 31 14.5 57.5t43.5 44.5q-42 32 -42 84t39 87.5t106 35.5t106 -35.5t39 -87.5q0 -25 -11 -46.5t-31 -37.5q28 -18 43 -44.5zM136 624.5q-16 -14.5 -16 -35.5t16 -35.5t46 -14.5t45.5 14.5
t15.5 35.5t-15.5 35.5t-45.5 14.5t-46 -14.5zM239 363.5q20 16.5 20 42.5q0 28 -19 44t-58 16q-38 0 -58 -16.5t-20 -43.5q0 -26 20 -42.5t58 -16.5q37 0 57 16.5z" />
    <glyph glyph-name="nine.numr" horiz-adv-x="363"
d="M291 671.5q41 -41.5 41 -109.5v-18q0 -79 -46 -148.5t-102 -112.5h-116q49 37 87 73.5t63 79.5q-28 -10 -58 -10q-61 0 -98 37t-37 99q0 64 38.5 107.5t114.5 43.5q72 0 113 -41.5zM248 528q1 6 1 19v12q0 35 -19 55t-54 20q-34 0 -51 -18t-17 -50q0 -64 69 -64
q44 0 71 26z" />
    <glyph glyph-name="caroncomb.alt" horiz-adv-x="0"
d="M-146 730h104l-58 -181h-91z" />
    <glyph glyph-name="uni0328.alt" horiz-adv-x="0"
d="M-177.5 -178q-31.5 27 -31.5 73q0 47 31 87t81 69l54 -25q-29 -19 -51.5 -49t-22.5 -59q0 -22 12 -32.5t33 -10.5q16 0 28 3v-77q-18 -6 -50 -6q-52 0 -83.5 27z" />
    <glyph glyph-name="uni0308.case" horiz-adv-x="0"
d="M-381 804.5q-20 19.5 -20 46.5t20 46.5t47 19.5q28 0 48 -19.5t20 -46.5q0 -28 -20 -47t-48 -19q-27 0 -47 19.5zM-158 804q-20 19 -20 47q0 27 20 46.5t48 19.5q27 0 47 -19.5t20 -46.5t-20 -46.5t-47 -19.5q-28 0 -48 19z" />
    <glyph glyph-name="uni030A.case" horiz-adv-x="0"
d="M-258 731.5q-36 35.5 -36 84.5t36 84.5t89 35.5t89.5 -35.5t36.5 -84.5t-36.5 -84.5t-89.5 -35.5t-89 35.5zM-123.5 771.5q17.5 17.5 17.5 44.5t-17.5 44.5t-45.5 17.5t-45.5 -17.5t-17.5 -44.5q0 -26 17.5 -44t45.5 -18t45.5 17.5z" />
    <glyph glyph-name="uni0335.case" horiz-adv-x="0"
d="M-388 410h345v-102h-345v102z" />
    <glyph glyph-name="uni0337.case" horiz-adv-x="0"
d="M-42 464v-111l-327 -170v111z" />
    <glyph glyph-name="uni0338.case" horiz-adv-x="0"
d="M-43 670l-482 -688l-69 48l482 688z" />
    <glyph glyph-name="tonos.case" horiz-adv-x="231"
d="M78 700h111l-58 -202h-88z" />
    <glyph glyph-name="brevecombcy" horiz-adv-x="0"
d="M-329 624.5q-42 40.5 -47 101.5h91q2 -29 19.5 -51t56.5 -22q38 0 55.5 21.5t20.5 51.5h91q-5 -61 -47 -101.5t-120 -40.5t-120 40.5z" />
    </font>
</defs>
</svg>
