<?xml version="1.0" standalone="no"?>
<!DOCTYPE svg PUBLIC "-//W3C//DTD SVG 1.1//EN" "http://www.w3.org/Graphics/SVG/1.1/DTD/svg11.dtd" >
<svg xmlns="http://www.w3.org/2000/svg">
<metadata>
<json>
<![CDATA[
{
	"fontFamily": "Ericsson Icons",
	"majorVersion": 1,
	"minorVersion": 5,
	"fontURL": "https://www.ericsson.com",
	"copyright": "Ericsson 2018, All Rights Reserved",
	"designer": "Matts Sjöberg",
	"version": "Version 1.5",
	"fontId": "Ericsson-Icons",
	"psName": "Ericsson-Icons",
	"subFamily": "Regular",
	"fullName": "Ericsson-Icons",
	"description": "Font generated by IcoMoon."
}
]]>
</json>
</metadata>
<defs>
<font id="Ericsson-Icons" horiz-adv-x="1024">
<font-face units-per-em="1024" ascent="960" descent="-64" />
<missing-glyph horiz-adv-x="1024" />
<glyph unicode="&#x20;" horiz-adv-x="512" d="" />
<glyph unicode="&#xe900;" glyph-name="abs-brakes" data-tags="abs-brakes" d="M512.25 832c-212.077 0-384-171.923-384-384s171.923-384 384-384c212.077 0 384 171.923 384 384v0c0 212.077-171.923 384-384 384v0zM512.25 128c-176.731 0-320 143.269-320 320s143.269 320 320 320c176.731 0 320-143.269 320-320v0c-0.211-176.646-143.354-319.789-319.979-320h-0.021zM318.419 553.357l-73.402-210.688h50.022l16.717 49.216h68.403l16.717-49.216h50.842l-73.421 210.688zM327.827 438.483l18.221 53.562 18.093-53.562zM609.28 492.23c0 0.025 0 0.054 0 0.083 0 33.844-27.436 61.28-61.28 61.28-1.893 0-3.765-0.086-5.614-0.254l0.238 0.017h-86.733v-210.688h89.184c1.555-0.134 3.366-0.211 5.194-0.211 35.346 0 64 28.654 64 64 0 0.227-0.001 0.454-0.004 0.681v-0.035c0.014 0.476 0.022 1.036 0.022 1.597 0 18.082-8.241 34.24-21.171 44.922l-0.098 0.079c10.026 9.412 16.272 22.75 16.272 37.547 0 0.345-0.003 0.689-0.010 1.032l0.001-0.051zM503.61 506.733h38.4c12.627 0 19.565-5.76 19.565-16.192s-7.13-16.467-19.565-16.467h-38.4zM544.518 389.229h-40.909v38.291h40.909c14.182 0 22.31-6.938 22.31-19.002 0-12.256-8.109-19.29-22.31-19.29zM717.517 469.12l-14.285 5.062c-22.842 7.872-28.749 12.16-28.749 20.845 0 10.56 9.939 15.904 29.504 15.904 0.284 0.003 0.62 0.004 0.955 0.004 17.168 0 33.362-4.173 47.622-11.56l-0.578 0.272 11.744-6.278v48.954l-3.84 2.342c-14.6 7.809-31.936 12.396-50.343 12.396-1.749 0-3.488-0.041-5.216-0.123l0.244 0.009c-46.56 0-77.843-25.344-77.843-63.091 0-38.938 28.192-52.064 59.565-63.091l15.123-5.376c23.187-7.814 27.098-13.158 27.098-22.157 0-15.034-17.408-18.189-32-18.189-0.056 0-0.122 0-0.188 0-22.071 0-42.649 6.393-59.983 17.428l0.453-0.27-12.282 7.718v-50.374l3.341-2.381c18.815-11.413 41.556-18.168 65.874-18.168 1.166 0 2.328 0.016 3.487 0.046l-0.171-0.004c48.122 0 79.219 25.6 79.219 65.28 0 39.162-28.256 54.285-58.752 64.8zM907.123 785.216l-50.125-39.75c64.38-80.361 103.318-183.527 103.318-295.787 0-0.601-0.001-1.203-0.003-1.803v0.093c-0.126-115.023-40.564-220.576-107.944-303.317l0.693 0.878 49.626-40.378c75.635 92.772 121.491 212.429 121.6 342.793v0.023c0.002 0.602 0.004 1.315 0.004 2.028 0 127.238-44.16 244.162-117.991 336.281l0.822-1.061zM167.002 745.53l-50.125 39.75c-73.024-91.069-117.194-208.010-117.194-335.268 0-0.719 0.001-1.437 0.004-2.155v0.111c0.089-130.39 45.949-250.052 122.381-343.804l-0.781 0.988 49.626 40.378c-66.704 81.852-107.141 187.415-107.226 302.42v0.019c-0.002 0.536-0.003 1.171-0.003 1.805 0 112.25 38.939 215.406 104.046 296.696l-0.727-0.94z" />
<glyph unicode="&#xe901;" glyph-name="airbag" data-tags="airbag" d="M870.541 438.291c6.45 12.558 10.231 27.401 10.231 43.126 0 53.025-42.985 96.010-96.010 96.010-37.299 0-69.631-21.27-85.527-52.342l-0.252-0.542-99.469-197.76-269.875 115.072-222.656-285.376c-12.666-16.115-20.314-36.695-20.314-59.062 0-53.029 42.988-96.017 96.017-96.017 30.662 0 57.967 14.372 75.545 36.747l0.157 0.207 131.84 168.998 299.808-127.936 55.533 110.374 128.39-59.565 26.816 58.125-126.451 58.688zM659.84 161.92l-289.83 123.558-162.061-207.75c-6.061-7.351-15.168-12.001-25.362-12.001-7.388 0-14.205 2.442-19.689 6.564l0.084-0.061c-7.511 5.917-12.289 15.013-12.289 25.225 0 7.445 2.54 14.296 6.8 19.735l-0.053-0.070 192.384 246.611 252.083-107.565 85.466-39.501zM716.16 273.92l-58.099 26.842 98.067 195.066c5.526 10.484 16.351 17.509 28.816 17.509 5.162 0 10.042-1.204 14.375-3.348l-0.19 0.085c10.537-5.4 17.623-16.186 17.623-28.628 0-5.24-1.257-10.187-3.486-14.555l0.084 0.182zM416.346 480c114.875 0 208 93.125 208 208s-93.125 208-208 208c-114.875 0-208-93.125-208-208v0c0-114.875 93.125-208 208-208v0zM416.346 833.446c80.328 0 145.446-65.119 145.446-145.446s-65.119-145.446-145.446-145.446c-80.328 0-145.446 65.119-145.446 145.446v0c0.098 80.287 65.159 145.345 145.437 145.44h0.009zM831.219 863.936c-0.010 0-0.021 0-0.032 0-71.728 0-129.875-58.147-129.875-129.875s58.147-129.875 129.875-129.875c71.728 0 129.875 58.147 129.875 129.875 0 0.007 0 0.014 0 0.020v-0.001c-0.087 71.678-58.166 129.761-129.834 129.856h-0.009zM831.219 668.186c-0.010 0-0.021 0-0.032 0-36.382 0-65.875 29.493-65.875 65.875s29.493 65.875 65.875 65.875c36.375 0 65.864-29.482 65.875-65.855v-0.001c-0.025-36.369-29.48-65.851-65.837-65.92h-0.007z" />
<glyph unicode="&#xe902;" glyph-name="alarm-level1" data-tags="alarm-level1" d="M704 448c0-106.039-85.961-192-192-192s-192 85.961-192 192c0 106.039 85.961 192 192 192s192-85.961 192-192z" />
<glyph unicode="&#xe903;" glyph-name="alarm-level2" data-tags="alarm-level2" d="M768.525 448c0-141.385-114.615-256-256-256s-256 114.615-256 256c0 141.385 114.615 256 256 256s256-114.615 256-256z" />
<glyph unicode="&#xe904;" glyph-name="alarm-level3" data-tags="alarm-level3" d="M832 448c0-176.731-143.269-320-320-320s-320 143.269-320 320c0 176.731 143.269 320 320 320s320-143.269 320-320z" />
<glyph unicode="&#xe905;" glyph-name="alarm-level4" data-tags="alarm-level4" d="M899.277 448c0-212.077-171.923-384-384-384s-384 171.923-384 384c0 212.077 171.923 384 384 384s384-171.923 384-384z" />
<glyph unicode="&#xe906;" glyph-name="alarm-level5" data-tags="alarm-level5" d="M960.154 448c0-247.508-200.645-448.154-448.154-448.154s-448.154 200.645-448.154 448.154c0 247.508 200.645 448.154 448.154 448.154s448.154-200.645 448.154-448.154z" />
<glyph unicode="&#xe907;" glyph-name="alarm-level6" data-tags="alarm-level6" d="M1024 448c0-282.77-229.23-512-512-512s-512 229.23-512 512c0 282.77 229.23 512 512 512s512-229.23 512-512z" />
<glyph unicode="&#xe908;" glyph-name="antenna" data-tags="antenna" d="M936.467 950.4l-53.050-35.75c47.773-70.010 76.282-156.476 76.282-249.6s-28.509-179.59-77.276-251.146l0.994 1.546 53.050-35.75c54.634 80.035 87.239 178.89 87.239 285.36s-32.605 205.325-88.374 287.125l1.136-1.765zM751.277 825.568c30.703-45.023 49.024-100.622 49.024-160.499s-18.322-115.476-49.665-161.495l0.64 0.996 53.050-35.782c37.558 55.052 59.971 123.042 59.971 196.266s-22.413 141.214-60.753 197.482l0.782-1.217zM87.546 950.4c-54.634-80.035-87.239-178.89-87.239-285.36s32.605-205.325 88.374-287.125l-1.136 1.765 53.050 35.75c-47.773 70.010-76.282 156.476-76.282 249.6s28.509 179.59 77.276 251.146l-0.994-1.546zM219.686 861.318c-37.558-55.052-59.971-123.042-59.971-196.266s22.413-141.214 60.753-197.482l-0.782 1.217 53.056 35.75c-30.703 45.023-49.024 100.622-49.024 160.499s18.322 115.476 49.665 161.495l-0.64-0.996zM544.314 957.562h-64v-155.123h-128v-256h128v-608h64v608h128v256h-128zM608.314 738.438v-128h-192v128z" />
<glyph unicode="&#xe909;" glyph-name="app-launcher" data-tags="app-launcher" d="M194.086 768.915h128v-128h-128v128zM446.426 768.915h128v-128h-128v128zM701.914 768.915h128v-128h-128v128zM194.086 512h128v-128h-128v128zM446.426 512h128v-128h-128v128zM701.914 512h128v-128h-128v128zM701.914 255.085h128v-128h-128v128zM194.086 255.085h128v-128h-128v128zM446.426 255.085h128v-128h-128v128z" />
<glyph unicode="&#xe90a;" glyph-name="arrow-down" data-tags="arrow-down" d="M808.256 470.272l-265.344-279.168v640.256h-63.872v-639.936l-263.168 278.784-46.4-43.84 341.44-361.728 343.616 361.664-46.272 43.968z" />
<glyph unicode="&#xe90b;" glyph-name="arrow-left" data-tags="arrow-left" d="M895.36 480.96h-639.936l278.784 263.104-43.84 46.528-361.728-341.504 361.664-343.68 43.968 46.272-279.232 265.408h640.32v63.872z" />
<glyph unicode="&#xe90c;" glyph-name="arrow-right" data-tags="arrow-right" d="M533.696 790.592l-44.032-46.272 279.296-265.408h-640.32v-63.872h639.936l-278.848-263.104 43.904-46.528 361.728 341.504-361.664 343.68z" />
<glyph unicode="&#xe90d;" glyph-name="arrow-up" data-tags="arrow-up" d="M854.528 469.632l-341.44 361.728-343.616-361.664 46.272-43.968 265.344 279.168v-640.256h63.872v639.936l263.168-278.784 46.4 43.84z" />
<glyph unicode="&#xe90e;" glyph-name="attach" data-tags="attach" d="M512-64c-2.704-0.106-5.879-0.166-9.068-0.166-136.436 0-247.040 110.604-247.040 247.040 0 2.572 0.039 5.136 0.117 7.689l-0.009-0.374v578.496c-0.122 2.501-0.192 5.432-0.192 8.38 0 101.044 81.913 182.957 182.957 182.957s182.957-81.913 182.957-182.957c0-2.947-0.070-5.878-0.208-8.792l0.016 0.412v-565.933c0.149-2.168 0.234-4.7 0.234-7.251 0-62.209-50.431-112.64-112.64-112.64s-112.64 50.431-112.64 112.64c0 2.551 0.085 5.082 0.252 7.591l-0.018-0.341v565.933h64v-565.933c0-42.374 26.067-57.44 48.41-57.44s48.403 15.066 48.403 57.44v565.933c0.34 3.334 0.533 7.205 0.533 11.121 0 64.185-52.032 116.218-116.218 116.218-0.824 0-1.647-0.009-2.467-0.026l0.123 0.002c-0.502 0.008-1.094 0.012-1.687 0.012-65.263 0-118.17-52.906-118.17-118.17 0-3.223 0.129-6.416 0.382-9.574l-0.027 0.416v-578.496c-0.090-2.144-0.141-4.659-0.141-7.187 0-101.189 82.030-183.219 183.219-183.219 3.138 0 6.258 0.079 9.357 0.235l-0.435-0.017c2.664-0.138 5.784-0.217 8.922-0.217 101.189 0 183.219 82.030 183.219 183.219 0 2.528-0.051 5.043-0.153 7.546l0.012-0.359v450.061h64v-450.061c0.069-2.18 0.108-4.743 0.108-7.315 0-136.436-110.604-247.040-247.040-247.040-3.189 0-6.364 0.060-9.524 0.18l0.456-0.014z" />
<glyph unicode="&#xe90f;" glyph-name="automotive-battery" data-tags="automotive-battery" d="M255.936 447.981h192v-64h-192v64zM768.32 448.064h-64v64h-64v-64h-64v-64h64v-64h64v64h64v64zM959.917 704h-223.61v64h-128v-64h-192.371v64h-128v-64h-224v-576h896.166zM127.917 192v448h768l0.128-448z" />
<glyph unicode="&#xe910;" glyph-name="avatar" data-tags="avatar" d="M702.157 192.685h-384c-141.324-0.153-255.847-114.677-256-255.986v-0.014h64c0.12 105.99 86.010 191.88 191.989 192h384.011c105.99-0.12 191.88-86.010 192-191.989v-0.011h64c-0.153 141.324-114.677 255.847-255.986 256h-0.014zM493.53 256.685h33.28c132.132 0.157 239.204 107.228 239.36 239.345v161.25c-0.153 132.133-107.226 239.207-239.345 239.36h-33.295c-132.133-0.153-239.207-107.226-239.36-239.345v-161.295c0.182-132.113 107.244-239.159 239.345-239.315h0.015zM318.17 657.325c0.131 96.796 78.564 175.229 175.347 175.36h33.293c96.796-0.131 175.229-78.564 175.36-175.347v-161.293c-0.131-96.796-78.564-175.229-175.347-175.36h-33.293c-96.796 0.131-175.229 78.564-175.36 175.347v0.013z" />
<glyph unicode="&#xe911;" glyph-name="battery-charging" data-tags="battery-charging" d="M1024 604.096h-128v132.749h-896v-577.69h896v132.749h128zM832 223.155h-768v449.69h768v-449.69zM960 355.904h-64v184.192h64zM384 345.536l-149.696 137.984 43.392 47.040 106.304-98.048 128 118.016 149.696-137.984-43.392-47.040-106.304 98.048-128-118.016z" />
<glyph unicode="&#xe912;" glyph-name="battery-empty" data-tags="battery-empty" d="M1024 604.096h-128v132.749h-896v-577.69h896v132.749h128zM832 223.155h-768v449.69h768v-449.69zM960 355.904h-64v184.192h64z" />
<glyph unicode="&#xe913;" glyph-name="battery-full" data-tags="battery-full" d="M1024 604.096h-128v132.749h-896v-577.69h896v132.749h128zM832 223.155h-768v449.69h768v-449.69zM960 355.904h-64v184.192h64zM120.122 608h655.757v-320h-655.757v320z" />
<glyph unicode="&#xe914;" glyph-name="blog" data-tags="blog" d="M128.595 896v-194.317h-66.867v-64h66.867v-165.434h-66.867v-64h66.867v-158.72h-66.867v-64h66.867v-185.53h833.677v896zM898.272 64h-705.677v121.562h64v64h-64v158.688h64v64h-64v165.434h64v64h-64v130.317h705.677zM714.291 369.408c0.033 0.978 0.051 2.128 0.051 3.282 0 34.939-17.124 65.879-43.437 84.884l-0.307 0.211c20.407 17.881 33.222 43.995 33.222 73.101 0 0.864-0.011 1.726-0.034 2.584l0.003-0.127c0.052 1.244 0.082 2.704 0.082 4.171 0 58.41-47.35 105.76-105.76 105.76-2.826 0-5.627-0.111-8.398-0.329l0.366 0.023h-148.73v-389.933h153.248c2.026-0.13 4.393-0.203 6.777-0.203 62.393 0 112.973 50.58 112.973 112.973 0 1.267-0.021 2.528-0.062 3.785l0.005-0.183zM508.448 575.661h80.64c1.201 0.116 2.596 0.182 4.006 0.182 24.35 0 44.090-19.74 44.090-44.090s-19.74-44.090-44.090-44.090c-1.411 0-2.806 0.066-4.182 0.196l0.176-0.013h-80.64zM508.448 320.301v100.358h85.152c0.989 0.069 2.143 0.109 3.306 0.109 27.779 0 50.298-22.519 50.298-50.298s-22.519-50.298-50.298-50.298c-1.163 0-2.318 0.039-3.461 0.117l0.155-0.008z" />
<glyph unicode="&#xe915;" glyph-name="bluetooth" data-tags="bluetooth" d="M447.622 895.93v-369.21l-205.997 140.090-36-52.877 241.997-164.57v-0.928l-252.218-165.318 35.066-53.498 217.152 142.33v-372.768l330.47 255.501-217.28 193.126 229.312 194.246zM677.907 258.054l-166.285-128.499v276.314zM511.622 489.997v278.81l175.565-130.125z" />
<glyph unicode="&#xe916;" glyph-name="bookmark-solid" data-tags="bookmark-solid" d="M192.192 896v-896l319.36 192 320.256-192v896h-639.616z" />
<glyph unicode="&#xe917;" glyph-name="bookmark" data-tags="bookmark" d="M767.827 832v-719.027l-256.307 153.658-255.328-153.491v718.861h511.654zM831.846 896h-639.674v-896l319.36 192 320.282-192v896z" />
<glyph unicode="&#xe918;" glyph-name="brakes" data-tags="brakes" d="M512.25 768c176.731 0 320-143.269 320-320s-143.269-320-320-320c-176.731 0-320 143.269-320 320v0c0.211 176.646 143.354 319.789 319.979 320h0.021zM512.25 832c-212.077 0-384-171.923-384-384s171.923-384 384-384c212.077 0 384 171.923 384 384v0c0 212.077-171.923 384-384 384v0zM902.688 105.152l-49.626 40.378c66.686 81.861 107.124 187.412 107.251 302.404v0.028c0.002 0.51 0.003 1.113 0.003 1.717 0 112.26-38.939 215.426-104.046 296.728l0.728-0.941 50.125 39.75c73.024-91.065 117.194-208.001 117.194-335.255 0-0.712-0.001-1.424-0.004-2.136v0.111c-0.125-130.379-45.988-250.023-122.407-343.773l0.781 0.989zM121.312 105.152c-75.65 92.762-121.51 212.421-121.6 342.789v0.020c-0.003 0.618-0.004 1.349-0.004 2.080 0 127.244 44.161 244.175 117.992 336.301l-0.823-1.062 50.125-39.75c-64.38-80.351-103.319-183.507-103.319-295.759 0-0.647 0.001-1.294 0.004-1.941v0.1c0.093-115.024 40.539-220.584 107.942-303.307l-0.691 0.875zM556.781 295.552c0-24.163-19.937-43.75-44.531-43.75s-44.531 19.588-44.531 43.75c0 24.163 19.937 43.75 44.531 43.75s44.531-19.588 44.531-43.75zM480.25 619.661h64v-213.478h-64v213.478z" />
<glyph unicode="&#xe919;" glyph-name="bug" data-tags="bug" d="M960 416v64h-161.277c-1.816 26.414-5.68 52.098-11.703 76.613l128.637 128.637-45.25 45.25-106.25-106.25c-49.105 112.707-143.683 189.251-252.156 189.251-105.836 0-198.266-73.020-248.32-181.25l-98.274 98.25-45.25-45.25 119.476-119.449c-7.359-27.328-12.308-56.012-14.355-85.801h-161.277v-64h161.277c2.047-29.789 6.996-58.473 14.355-85.801l-119.476-119.449 45.25-45.25 98.274 98.25c50.054-108.23 142.484-181.25 248.32-181.25 108.473 0 203.051 76.543 252.156 189.25l106.25-106.25 45.25 45.25-128.637 128.637c6.024 24.516 9.887 50.2 11.703 76.614h161.277zM512 749.5c80.906 0 151.293-58.598 190.668-145.375h-381.336c39.375 86.777 109.762 145.375 190.668 145.375zM512 146.5c-123.5 0-224 135.25-224 301.5 0 32.332 4.793 62.906 11.824 92.125h424.351c7.032-29.219 11.825-59.793 11.825-92.125 0-166.25-100.5-301.5-224-301.5z" />
<glyph unicode="&#xe91a;" glyph-name="calendar" data-tags="calendar" d="M192.403 444.877h128v-64h-128v64zM448.403 444.877h128v-64h-128v64zM704.403 444.877h128v-64h-128v64zM192.403 252.877h128v-64h-128v64zM448.403 252.877h128v-64h-128v64zM704.403 252.877h128v-64h-128v64zM832.467 830.56v66.88h-64v-66.88h-515.405v66.88h-64v-66.88h-189.062v-832h1024v832zM960 62.56h-896v510.317h896zM960 636.877h-896v129.683h125.062v-64h64v64h515.405v-64h64v64h127.533z" />
<glyph unicode="&#xe91b;" glyph-name="camera-cctv" data-tags="camera-cctv" d="M214.861 868.269l-159.52-476.909 126.72-42.24-47.597-92.589h-134.464v-207.942h260.986l120.576 234.067 276.288-92.064 20.589 61.779 170.669-56.877 74.976 225.005-151.834 50.624 224.288 136.653zM221.984 112.608h-157.984v79.942h109.485l69.99 136.122 76.634-25.53zM843.29 380.128l-34.56-103.808-110.080 36.685 34.56 103.814zM692.678 497.632l-75.309-226.086-481.050 160.314 119.040 355.469 590.080-196.653zM301.487 608.36l20.243 60.755 153.623-51.187-20.243-60.755-153.623 51.187z" />
<glyph unicode="&#xe91c;" glyph-name="camera-classic" data-tags="camera-classic" d="M150.432 596.672h153.626v-64h-153.626v64zM768.294 750.816h-772v-570.381h772v133.875l257.626-126.31v555.251l-257.626-126.291zM704.294 585.562v-341.12h-644v442.374h644zM961.92 640.64v-350.016l-193.626 94.938v160.128z" />
<glyph unicode="&#xe91d;" glyph-name="camera-photo" data-tags="camera-photo" d="M664.448 798.541l64-128h231.552v-573.069h-896v573.056h232.589l17.28 36.71 43.046 91.302h307.533zM704 862.541h-387.642l-60.358-128.013h-256v-701.069h1024v701.069h-256l-64 128zM512 584.32c93.756 0 169.76-76.004 169.76-169.76s-76.004-169.76-169.76-169.76c-93.749 0-169.749 75.993-169.76 169.74v0.001c0.098 93.72 76.041 169.67 169.75 169.779h0.010zM512 648.32c-129.102 0-233.76-104.658-233.76-233.76s104.658-233.76 233.76-233.76c129.102 0 233.76 104.658 233.76 233.76v0c0 129.102-104.658 233.76-233.76 233.76v0z" />
<glyph unicode="&#xe91e;" glyph-name="check-small" data-tags="check-small" d="M790.656 616.96l-47.808 42.368-314.24-354.88-148.8 148.8-45.184-45.12 196.8-196.8 359.232 405.632z" />
<glyph unicode="&#xe91f;" glyph-name="check" data-tags="check" d="M924.672 712.96l-47.808 42.368-484.224-546.816-236.096 235.968-45.184-45.12 284.096-283.968 529.216 597.568z" />
<glyph unicode="&#xe920;" glyph-name="chevron-down" data-tags="chevron-down" d="M790.592 564.736l-45.184 45.12-233.408-233.344-233.408 233.344-45.184-45.12 278.592-278.592 278.592 278.592z" />
<glyph unicode="&#xe921;" glyph-name="chevron-left" data-tags="chevron-left" d="M628.736 169.408l45.12 45.184-233.344 233.408 233.344 233.408-45.12 45.184-278.592-278.592 278.592-278.592z" />
<glyph unicode="&#xe922;" glyph-name="chevron-right" data-tags="chevron-right" d="M395.264 726.592l-45.12-45.184 233.344-233.408-233.344-233.408 45.12-45.184 278.592 278.592-278.592 278.592z" />
<glyph unicode="&#xe923;" glyph-name="chevron-up" data-tags="chevron-up" d="M233.408 331.264l45.184-45.12 233.408 233.344 233.408-233.344 45.184 45.12-278.592 278.592-278.592-278.592z" />
<glyph unicode="&#xe924;" glyph-name="circle-dashed" data-tags="circle-dashed" d="M112.685 249.6q-6.086 12-11.437 24.25l-58.624-25.747q6.093-13.786 12.998-27.52c36.18-70.671 85.864-129.617 146.097-175.402l1.25-0.911 38.56 51.123c-53.77 40.838-97.217 92.395-127.682 151.715l-1.163 2.493zM63.936 452.154c0.121 76.676 19.327 148.84 53.12 212.031l-1.184-2.424-56.621 29.894c-37.262-69.431-59.2-151.891-59.315-239.464v-0.037l0.16-13.062 64 1.504zM844.8 841.658c-64.216 55.007-143.14 94.709-230.048 112.496l-3.315 0.567-12.499-62.72c78.987-16.059 148.086-50.801 204.928-99.451l-0.614 0.513zM416.032 955.469c-51.175-9.898-96.723-26.012-138.833-47.838l2.833 1.335c-37.387-19.185-69.621-40.792-99.040-65.63l0.768 0.632 41.254-48.998c56.449 47.785 125.78 82.116 202.039 97.157l2.85 0.469zM967.846 685.594l-29.907-11.814-26.624-18.182c30.724-58.732 48.749-128.29 48.749-202.058 0-0.201 0-0.403 0-0.604v0.032c0-6.4-0.16-12.749-0.41-19.2l63.942-2.624c0.307 7.315 0.467 14.566 0.467 21.811 0 0.122 0 0.266 0 0.41 0 84.805-20.79 164.754-57.551 235.028l1.333-2.798zM513.094 4.531h-0.691c-41.702 0.023-82.068 5.703-120.385 16.314l3.169-0.749-16.685-61.754c40.132-11.285 86.223-17.785 133.828-17.811h0.828c0.031 0 0.067 0 0.103 0 44.304 0 87.272 5.723 128.204 16.469l-3.507-0.782-15.814 62.003c-32.727-8.682-70.302-13.675-109.041-13.69h-0.009zM776.909 91.219l37.811-51.622c70.244 51.921 125.874 119.712 162.186 198.262l1.315 3.171-58.317 26.374c-32.9-71.482-81.555-130.778-141.779-175.326l-1.217-0.86z" />
<glyph unicode="&#xe925;" glyph-name="circle" data-tags="circle" d="M757.075 897.357c-70.803 39.355-155.286 62.522-245.18 62.522-282.77 0-512-229.23-512-512s229.23-512 512-512c192.949 0 360.969 106.731 448.243 264.374l1.334 2.627c39.863 70.959 63.344 155.749 63.344 246.023 0 192.813-107.117 360.608-265.088 447.123l-2.653 1.331zM905.28 233.504c-77.528-140.162-224.49-233.495-393.252-233.495-247.371 0-447.904 200.533-447.904 447.904s200.533 447.904 447.904 447.904c202.294 0 373.265-134.109 428.858-318.27l0.823-3.172c11.556-37.858 18.209-81.372 18.209-126.44 0-78.614-20.245-152.501-55.806-216.729l1.168 2.299z" />
<glyph unicode="&#xe926;" glyph-name="cloud" data-tags="cloud" d="M843.386 573.44c-10.94 142.716-127.63 254.861-271.295 258.553l-0.359 0.007c-124.066-2.344-227.9-86.291-260.22-200.297l-0.471-1.943c-20.255 6.496-43.556 10.24-67.731 10.24-0.038 0-0.076 0-0.115 0h0.006c-135.16-3.825-243.271-114.306-243.271-250.037 0-2.097 0.026-4.187 0.077-6.272l-0.006 0.309c-0.045-1.775-0.071-3.866-0.071-5.963 0-135.731 108.111-246.212 242.919-250.029l0.352-0.008h567.469c118.524 3.194 213.389 100.036 213.389 219.036 0 1.766-0.021 3.527-0.062 5.283l0.005-0.261c0.022 1.156 0.034 2.52 0.034 3.886 0 107.837-77.147 197.656-179.261 217.275l-1.387 0.222zM810.669 192.070h-567.469c-99.795 3.672-179.303 85.458-179.303 185.815 0 2.175 0.037 4.342 0.111 6.499l-0.009-0.314c-0.066 1.846-0.103 4.014-0.103 6.192 0 100.355 79.508 182.14 178.969 185.799l0.334 0.010c47.521-0.377 90.39-19.984 121.268-51.412l0.025-0.025c-0.525 6.496-1.824 12.749-1.824 19.398-0.076 2.143-0.119 4.662-0.119 7.191 0 117.079 92.757 212.494 208.792 216.766l0.39 0.011c116.429-4.283 209.189-99.701 209.189-216.784 0-2.538-0.044-5.065-0.13-7.582l0.010 0.366c-0.233-12.985-1.464-25.506-3.622-37.708l0.211 1.439c9.961 2.644 21.416 4.21 33.22 4.307h0.060c83.161-3.058 149.417-71.211 149.417-154.839 0-1.808-0.031-3.609-0.092-5.402l0.007 0.26c0.055-1.537 0.086-3.342 0.086-5.155 0-83.63-66.255-151.784-149.139-154.837l-0.278-0.008z" />
<glyph unicode="&#xe927;" glyph-name="code" data-tags="code" d="M393.059 206.972l163.633 511.877 60.998-19.499-163.633-511.877-60.998 19.499zM739.008 174.080l-44.352 46.144 236.992 227.776-236.992 227.776 44.352 46.144 284.992-273.92-284.992-273.92zM284.992 174.080l-284.992 273.92 284.992 273.92 44.352-46.144-236.992-227.776 236.992-227.776-44.352-46.144z" />
<glyph unicode="&#xe928;" glyph-name="copy" data-tags="copy" d="M746.438 960h-425.798v-172.358h-256v-851.642h638.72v172.365h256v638.515zM639.36 0h-510.72v723.642h192v-615.277h318.72zM895.36 172.365h-510.72v723.635h335.283l175.437-175.584z" />
<glyph unicode="&#xe929;" glyph-name="cpu" data-tags="cpu" d="M832 767.923v-640h-640v640h640zM768 959.968h-64v-128.045h-160.064v128.045h-64v-128.045h-159.936v128.045h-64v-128.045h-128v-127.923h-128v-64h128v-160h-128v-64h128v-160.070h-128v-64h128v-128.032h128v-128h64v128h159.936v-128h64v128h160.064v-128h64v128h128v128.058h128.038v64h-128.038v159.744h128.038v64h-128.038v160.301h128.038v64h-128.038v127.923h-128v128.045zM704 639.942v-384.038h-384v384.038h384zM768 703.942h-512v-512.038h512v512.038z" />
<glyph unicode="&#xe92a;" glyph-name="creditcard" data-tags="creditcard" d="M926.4 800h-828.8c-53.11 0-96.166-43.051-96.173-96.159v-511.675c0.004-53.112 43.060-96.166 96.173-96.166h828.8c53.115 0 96.173 43.058 96.173 96.173 0 0.002 0 0.004 0 0.007v0 511.661c-0.007 53.109-43.063 96.16-96.173 96.16v0zM958.573 192.154c-0.018-17.763-14.411-32.157-32.171-32.179h-828.802c-17.762 0.022-32.155 14.417-32.173 32.177v388.61h893.146zM958.573 644.749h-893.146v59.091c0.029 17.754 14.418 32.138 32.171 32.16h828.802c17.76-0.022 32.151-14.413 32.173-32.171v-0.002zM151.405 323.635h128.032v-64h-128.032v64z" />
<glyph unicode="&#xe92b;" glyph-name="crop" data-tags="crop" d="M1023.91 200.749h-188v527.059l146.72 145.92-45.312 44.934-147.635-146.822h-542.003v188.16h-64v-188.16h-183.77v-63.552h183.77v-584.128h588.218v-188.16h64v201.203h188zM247.68 232.768v475.52h478.080zM771.898 664.128v-476.442h-479.014z" />
<glyph unicode="&#xe92c;" glyph-name="cross-small" data-tags="cross-small" d="M310.592 201.216l201.728 201.664 201.024-201.728 45.312 45.12-201.152 201.792 200.512 200.576-45.248 45.248-200.448-200.448-200.768 201.408-45.312-45.12 200.896-201.536-201.792-201.728 45.248-45.248z" />
<glyph unicode="&#xe92d;" glyph-name="cross" data-tags="cross" d="M151.936 42.368l360.576 360.64 359.488-360.832 45.312 45.12-359.552 360.896 358.592 358.592-45.248 45.248-358.528-358.528-358.976 360.32-45.312-45.12 359.040-360.384-360.64-360.704 45.248-45.248z" />
<glyph unicode="&#xe92e;" glyph-name="crown" data-tags="crown" d="M511.795 688.090l256.275-319.994 191.93 239.974 0.064-393.549h-896.102v393.568l192.038-240.038 255.789 320.038zM1023.936 790.534l-255.936-320.006-256.275 320-255.725-320-256 320v-640h1024.038l-0.102 640z" />
<glyph unicode="&#xe92f;" glyph-name="dashboard" data-tags="dashboard" d="M530.483 561.030c-5.255 0.846-11.313 1.33-17.485 1.33-20.428 0-39.619-5.299-56.273-14.597l0.587 0.301-116.966 116.998-46.234-46.253 116.448-116.48c-9.264-16.363-14.723-35.935-14.723-56.783 0-64.542 52.322-116.864 116.864-116.864s116.864 52.322 116.864 116.864c0 58.266-42.641 106.572-98.418 115.417l-0.664 0.087zM543.194 403.469c-8.471-6.296-19.137-10.080-30.686-10.080-28.581 0-51.75 23.169-51.75 51.75 0 2.817 0.225 5.582 0.658 8.277l-0.039-0.296c3.997 24.963 25.324 43.824 51.079 43.936h0.012c0.088 0.001 0.192 0.001 0.296 0.001 2.717 0 5.379-0.233 7.968-0.681l-0.277 0.040c13.993-2.156 25.905-9.707 33.756-20.42l0.1-0.144v-0.064c6.238-8.45 9.985-19.071 9.985-30.567 0-17.053-8.243-32.18-20.962-41.616l-0.139-0.099zM512.749 960c-0.001 0-0.002 0-0.004 0-284.321 0-514.81-230.488-514.81-514.81 0-154.783 68.309-293.612 176.425-387.985l0.609-0.52 21.043 24.192 71.91 71.904-46.234 46.221-48.986-48.973c-61.468 70.513-101.446 161.195-108.908 260.94l-0.090 1.498h69.075v65.408h-69.184c7.445 100.892 47.211 191.286 108.86 262.137l-0.463-0.543 48.858-48.877 46.24 46.253-48.851 48.877c70.269 61.254 160.643 101.085 260.047 108.5l1.489 0.089v-69.312h65.395v69.344c100.971-7.373 191.453-47.142 262.355-108.834l-0.543 0.463-49.062-49.062 46.234-46.221 49.088 49.062c61.32-70.32 101.185-160.777 108.577-260.275l0.089-1.485h-69.613v-65.408h69.517c-7.511-100.733-47.1-191.003-108.461-261.912l0.481 0.568-49.606 49.626-46.24-46.253 72.877-72.877 20.986-23.936c107.961 94.85 175.736 233.2 175.736 387.379 0 284.329-230.494 514.822-514.822 514.822-0.004 0-0.008 0-0.012 0h0.001z" />
<glyph unicode="&#xe930;" glyph-name="dial" data-tags="dial" d="M874.317 176.858c-11.577 11.553-27.558 18.698-45.207 18.698-35.346 0-64-28.654-64-64s28.654-64 64-64c17.694 0 33.711 7.18 45.296 18.786l0.001 0.001c11.557 11.578 18.703 27.561 18.703 45.213 0 17.697-7.183 33.716-18.792 45.301l-0.001 0.001zM391.174 568.55c-30.806-30.872-49.856-73.486-49.856-120.549 0-94.258 76.411-170.669 170.669-170.669s170.669 76.411 170.669 170.669c0 47.194-19.155 89.914-50.115 120.809l-0.003 0.003c-30.872 30.807-73.486 49.857-120.55 49.857-47.194 0-89.915-19.156-120.81-50.117l-0.003-0.003zM642.829 818.726c28.149 7.129 48.646 32.236 48.646 62.131 0 35.346-28.654 64-64 64s-64-28.654-64-64c0-5.451 0.682-10.743 1.964-15.796l-0.095 0.442c7.129-28.15 32.236-48.647 62.131-48.647 5.451 0 10.744 0.682 15.796 1.964l-0.443-0.095zM859.341 709.082c19.877 11.118 33.093 32.037 33.093 56.043 0 35.346-28.654 64-64 64s-64-28.654-64-64c0-11.344 2.952-22 8.129-31.239l-0.166 0.323c11.12-19.871 32.036-33.084 56.037-33.084 11.341 0 21.992 2.95 31.23 8.124l-0.323-0.166zM412.205 818.81c27.506 7.577 47.374 32.37 47.374 61.803 0 35.346-28.654 64-64 64s-64-28.654-64-64c0-5.909 0.801-11.63 2.299-17.062l-0.106 0.45c7.573-27.513 32.369-47.388 61.806-47.388 5.913 0 11.639 0.802 17.075 2.303l-0.45-0.106zM141.178 348.218c-7.579 27.504-32.37 47.371-61.802 47.371-35.346 0-64-28.654-64-64s28.654-64 64-64c5.913 0 11.638 0.802 17.074 2.303l-0.45-0.106c27.507 7.577 47.376 32.37 47.376 61.803 0 5.915-0.802 11.642-2.304 17.079l0.106-0.45zM111.187 508.102c19.231 11.28 31.94 31.851 31.94 55.391 0 35.346-28.654 64-64 64s-64-28.654-64-64c0-11.808 3.198-22.868 8.774-32.364l-0.163 0.301c11.28-19.23 31.851-31.937 55.389-31.937 11.807 0 22.866 3.197 32.361 8.773l-0.301-0.163zM150.24 176.083c-11.555-11.577-18.701-27.559-18.701-45.21 0-35.346 28.654-64 64-64s64 28.654 64 64c0 17.699-7.184 33.72-18.796 45.305l-0.001 0.001c-11.577 11.551-27.556 18.694-45.203 18.694-17.695 0-33.713-7.181-45.298-18.789l-0.001-0.001zM240.166 719.238c11.553 11.577 18.698 27.558 18.698 45.207 0 35.346-28.654 64-64 64s-64-28.654-64-64c0-17.697 7.183-33.717 18.793-45.302l0.001-0.001c11.577-11.553 27.557-18.697 45.206-18.697 17.697 0 33.716 7.183 45.301 18.792l0.001 0.001zM412.992 76.979c-4.947 1.373-10.628 2.162-16.493 2.162-35.346 0-64-28.654-64-64s28.654-64 64-64c29.479 0 54.304 19.931 61.732 47.053l0.105 0.449c1.374 4.949 2.163 10.631 2.163 16.498 0 29.481-19.933 54.306-47.058 61.733l-0.449 0.105zM611.77 77.19c-27.507-7.577-47.376-32.37-47.376-61.803 0-35.346 28.654-64 64-64s64 28.654 64 64c0 5.916-0.803 11.644-2.305 17.082l0.106-0.45c-7.58 27.503-32.371 47.368-61.801 47.368-5.913 0-11.639-0.802-17.074-2.303l0.45 0.106z" />
<glyph unicode="&#xe931;" glyph-name="diamond" data-tags="diamond" d="M757.76 828.8h-487.68l-237.44-289.28 479.36-475.52 479.36 472.32zM377.6 576l92.16 192h84.48l92.16-192zM648.96 512l-136.96-320-136.96 320zM305.28 512l112.64-259.84-263.68 259.84zM718.72 512h151.68l-263.68-261.76zM881.28 576h-163.2l-92.8 192h101.76zM300.8 768h97.92l-92.16-192h-162.56z" />
<glyph unicode="&#xe932;" glyph-name="document" data-tags="document" d="M896 703.782l-256 256.218h-512v-1024h768zM832 0h-640v896h421.459l218.541-218.714zM261.338 705.267h255.571v-63.891h-255.571v63.891zM261.338 513.594h447.245v-63.891h-447.245v63.891zM261.338 321.914h447.245v-63.891h-447.245v63.891z" />
<glyph unicode="&#xe933;" glyph-name="door" data-tags="door" d="M192 960v-1024h640v1024zM768 0h-512v896h512zM316.8 448h136.96v-64h-136.96v64z" />
<glyph unicode="&#xe934;" glyph-name="download-save" data-tags="download-save" d="M768.64 384v-64h190.976v-256.384h-895.232v256.384h192.192v64h-256.192v-384.384h1023.232v384.384h-254.976zM854.592 553.792l-45.184 45.12-265.472-265.408v562.88h-63.872v-562.88l-265.472 265.408-45.184-45.12 342.592-342.592 342.592 342.592z" />
<glyph unicode="&#xe935;" glyph-name="drag-handle" data-tags="drag-handle" d="M414.637 777.869c0-35.346-28.654-64-64-64s-64 28.654-64 64c0 35.346 28.654 64 64 64s64-28.654 64-64zM414.637 448c0-35.346-28.654-64-64-64s-64 28.654-64 64c0 35.346 28.654 64 64 64s64-28.654 64-64zM414.637 118.131c0-35.346-28.654-64-64-64s-64 28.654-64 64c0 35.346 28.654 64 64 64s64-28.654 64-64zM737.363 777.869c0-35.346-28.654-64-64-64s-64 28.654-64 64c0 35.346 28.654 64 64 64s64-28.654 64-64zM737.363 448c0-35.346-28.654-64-64-64s-64 28.654-64 64c0 35.346 28.654 64 64 64s64-28.654 64-64zM737.363 118.131c0-35.346-28.654-64-64-64s-64 28.654-64 64c0 35.346 28.654 64 64 64s64-28.654 64-64z" />
<glyph unicode="&#xe936;" glyph-name="duplicate" data-tags="duplicate" d="M320.115 896.166v-256h-256.282v-640.499h640.314v256.16h256v640.339zM640.147 63.667h-512.314v512.486h192.282v-320.326h320.032zM896.147 319.827h-512.032v512.339h512.051z" />
<glyph unicode="&#xe937;" glyph-name="econ" data-tags="econ" d="M885.856 892.064c-8.821 25.694-26.908 46.261-50.176 58.115l-0.576 0.266c-13.879 6.172-30.072 9.766-47.105 9.766-17.857 0-34.791-3.95-49.977-11.025l0.729 0.305-517.421-172.474c-33.474-7.445-61.056-28.274-77.347-56.448l-0.304-0.57c-6.769-13.154-10.738-28.704-10.738-45.181 0-11.414 1.904-22.383 5.412-32.607l-0.211 0.706c8.821-25.694 26.908-46.261 50.176-58.115l0.576-0.266c13.887-6.18 30.090-9.779 47.133-9.779 17.846 0 34.77 3.945 49.948 11.012l-0.73-0.305 517.421 172.474c33.453 7.513 61.015 28.334 77.346 56.481l0.305 0.569c6.769 13.153 10.737 28.702 10.737 45.177 0 11.413-1.904 22.381-5.412 32.604l0.211-0.706zM885.856 572.685c-8.825 25.692-26.911 46.257-50.176 58.115l-0.576 0.266c-13.88 6.171-30.072 9.764-47.104 9.764-17.857 0-34.791-3.949-49.977-11.022l0.73 0.305-517.421-172.512c-33.479-7.449-61.062-28.287-77.347-56.473l-0.304-0.57c-6.769-13.154-10.738-28.704-10.738-45.181 0-11.414 1.904-22.383 5.412-32.607l-0.211 0.706c8.825-25.692 26.911-46.257 50.176-58.115l0.576-0.266c13.879-6.172 30.072-9.766 47.105-9.766 17.857 0 34.791 3.95 49.977 11.025l-0.729-0.305 517.421 172.474c33.452 7.515 61.014 28.335 77.346 56.481l0.305 0.569c6.773 13.157 10.744 28.712 10.744 45.194 0 11.421-1.907 22.397-5.419 32.626l0.211-0.706zM885.856 253.107c-8.821 25.694-26.908 46.261-50.176 58.115l-0.576 0.266c-13.879 6.172-30.072 9.766-47.105 9.766-17.857 0-34.791-3.95-49.977-11.025l0.729 0.305-517.421-172.474c-33.48-7.45-61.063-28.291-77.347-56.479l-0.304-0.57c-6.769-13.153-10.737-28.702-10.737-45.177 0-11.413 1.904-22.381 5.412-32.604l-0.211 0.706c8.821-25.694 26.908-46.261 50.176-58.115l0.576-0.266c13.879-6.172 30.072-9.766 47.105-9.766 17.857 0 34.791 3.95 49.977 11.025l-0.729-0.305 517.421 172.474c33.448 7.507 61.008 28.316 77.347 56.449l0.305 0.568c6.773 13.156 10.743 28.71 10.743 45.191 0 11.42-1.906 22.394-5.418 32.623l0.211-0.706z" />
<glyph unicode="&#xe938;" glyph-name="edit" data-tags="edit" d="M940.403 638.938l-237.152 237.126-541.062-540.877-78.592-315.251 315.718 72.442zM170.88 105.69l49.094 196.749 483.251 483.123 146.842-146.874-483.2-488.064z" />
<glyph unicode="&#xe939;" glyph-name="email" data-tags="email" d="M0.864 767.456v-638.912h1022.272v638.912zM904.186 703.456l-392.186-280.954-392.749 280.96zM64.864 703.456h0.128l-0.128-0.179zM959.136 192.544h-894.272v471.174l447.136-319.968 447.13 320.384z" />
<glyph unicode="&#xe93a;" glyph-name="engine" data-tags="engine" d="M896 576v-64h-128v128h-320v64h64v64h-192v-64h64v-64h-192v-192h-64v128h-64v-320h64v128h64v-192h256v-64h384v64h64v-64h64v448zM896 256h-128v-64h-256v64h-256v320h448v-128h192z" />
<glyph unicode="&#xe93b;" glyph-name="eraser" data-tags="eraser" d="M590.682 128.077l341.6 342.054c16.987 17.093 27.486 40.65 27.486 66.659 0 26.025-10.512 49.595-27.522 66.695l0.004-0.004-265.414 265.766c-17.265 16.556-40.745 26.75-66.605 26.75s-49.339-10.194-66.639-26.782l0.034 0.032-442.157-442.675c-17.043-17.073-27.581-40.644-27.581-66.675s10.539-49.602 27.583-66.677l228.888-229.221h639.546v64.077zM578.899 823.942c5.536 5.286 13.052 8.539 21.328 8.539s15.792-3.253 21.34-8.55l-0.012 0.011 265.421-265.766c5.46-5.479 8.836-13.038 8.836-21.386 0-8.332-3.363-15.878-8.806-21.355l0.002 0.002-198.278-198.554-308.128 308.531zM346.88 128.077l-210.138 210.451c-5.461 5.472-8.839 13.027-8.839 21.37s3.377 15.897 8.839 21.37l-0.001-0.001 198.618 198.842 308.134-308.538-143.309-143.494z" />
<glyph unicode="&#xe93c;" glyph-name="eula" data-tags="eula" d="M493.44 457.997h-90.72c-76.114-0.091-137.794-61.758-137.907-137.858v-0.011h64c0.055 40.788 33.116 73.836 73.904 73.869h90.723c40.804-0.015 73.882-33.070 73.933-73.864v-0.005h64c-0.113 76.12-61.808 137.792-137.925 137.869h-0.007zM448.096 499.2c63.724 0.080 115.363 51.704 115.469 115.414v47.696c0 63.772-51.697 115.469-115.469 115.469s-115.469-51.697-115.469-115.469v-47.686c0.105-63.72 51.745-115.344 115.461-115.424h0.008zM396.627 662.31c0 28.425 23.043 51.469 51.469 51.469s51.469-23.043 51.469-51.469v-47.686c0-28.425-23.043-51.469-51.469-51.469s-51.469 23.043-51.469 51.469v0zM640 959.226h-512v-1024h768v767.776zM832-0.774h-640v896h421.459l218.541-218.746z" />
<glyph unicode="&#xe93d;" glyph-name="eye-solid" data-tags="eye-solid" d="M512 784.64c-273.53 0-501.19-244.48-501.19-336.64s227.661-336.64 501.19-336.64c275.686 0 501.19 254.125 501.19 336.64s-225.504 336.64-501.19 336.64zM672.685 448c0-88.366-71.634-160-160-160s-160 71.634-160 160c0 88.366 71.634 160 160 160v0c88.319-0.116 159.884-71.681 160-159.989v-0.011z" />
<glyph unicode="&#xe93e;" glyph-name="eye" data-tags="eye" d="M512 111.36c275.686 0 501.19 254.125 501.19 336.64s-225.504 336.64-501.19 336.64c-273.53 0-501.19-244.48-501.19-336.64s227.661-336.64 501.19-336.64zM512 720.64c239.469 0 433.53-228.314 437.19-272.64-3.661-44.314-197.722-272.64-437.19-272.64-250.656 0-437.19 228.826-437.19 272.64s186.534 272.64 437.19 272.64zM512 246.003c111.56 0 201.997 90.437 201.997 201.997s-90.437 201.997-201.997 201.997c-111.56 0-201.997-90.437-201.997-201.997v0c0.138-111.504 90.493-201.859 201.984-201.997h0.013zM512 585.997c76.214 0 137.997-61.783 137.997-137.997s-61.783-137.997-137.997-137.997c-76.214 0-137.997 61.783-137.997 137.997v0c0.098 76.174 61.823 137.899 137.987 137.997h0.009z" />
<glyph unicode="&#xe93f;" glyph-name="favorite-solid" data-tags="favorite-solid" d="M225.491 12.109l289.523 152.211 289.523-152.211-55.302 322.387 234.24 228.32-323.699 47.034-144.762 293.325-144.762-293.325-323.699-47.034 234.24-228.32z" />
<glyph unicode="&#xe940;" glyph-name="favorite" data-tags="favorite" d="M225.491 12.109l289.523 152.211 289.523-152.211-55.302 322.387 234.24 228.32-323.699 47.034-144.762 293.325-144.762-293.325-323.699-47.034 234.24-228.32zM184.083 518.125l228.653 33.229 102.278 207.206 102.259-207.206 228.646-33.222-165.446-161.293 5.69-33.158 33.37-194.56-204.499 107.526-204.506-107.526 39.059 227.718-24.096 23.488z" />
<glyph unicode="&#xe941;" glyph-name="fika" data-tags="fika" d="M813.062 418.874h-108.314v92.064h-639.654v-346.458c0.113-91.368 74.159-165.403 165.521-165.498h308.79c65.009 0.217 121.149 37.969 147.902 92.707l0.431 0.976h125.325c81.707 5.082 146.049 72.591 146.049 155.129 0 2.814-0.075 5.611-0.223 8.388l0.016-0.388c0.132 2.392 0.207 5.192 0.207 8.010 0 82.525-64.349 150.020-145.608 155.047l-0.442 0.022zM640.749 164.314c-0.069-55.937-45.405-101.261-101.339-101.312h-308.786c-56.026 0.073-101.428 45.457-101.53 101.469v282.468h511.654zM813.062 156.685h-109.062c0.122 2.56 0.774 5.018 0.774 7.629v190.56h108.314c46.387-5.036 82.172-43.986 82.172-91.295 0-2.733-0.119-5.438-0.353-8.111l0.024 0.346c0.212-2.339 0.333-5.060 0.333-7.808 0-47.324-35.799-86.287-81.794-91.285l-0.408-0.036zM357.843 709.875c36.893 42.718 59.366 98.786 59.366 160.104 0 9.519-0.542 18.912-1.596 28.149l0.105-1.13h-64c1.098-7.587 1.726-16.348 1.726-25.255 0-46.509-17.101-89.023-45.358-121.599l0.195 0.23c-35.037-39.968-56.411-92.676-56.411-150.375 0-8.101 0.421-16.103 1.243-23.986l-0.083 0.985h64c-0.852 6.373-1.338 13.74-1.338 21.221 0 42.887 15.979 82.042 42.308 111.836l-0.157-0.181zM549.843 709.875c36.893 42.718 59.366 98.786 59.366 160.104 0 9.519-0.542 18.912-1.596 28.149l0.105-1.13h-64c1.098-7.587 1.726-16.348 1.726-25.255 0-46.509-17.101-89.023-45.358-121.599l0.195 0.23c-35.037-39.968-56.411-92.676-56.411-150.375 0-8.101 0.421-16.103 1.243-23.986l-0.083 0.985h64c-0.852 6.373-1.338 13.74-1.338 21.221 0 42.887 15.979 82.042 42.308 111.836l-0.157-0.181z" />
<glyph unicode="&#xe942;" glyph-name="file" data-tags="file" d="M896 703.002l-256 256.224h-512v-1024h768zM832-0.774h-640v896h421.459l218.541-218.746z" />
<glyph unicode="&#xe943;" glyph-name="filter" data-tags="filter" d="M101.376 915.936l290.624-452.122 0.378-483.75 240.058 239.936-0.403 243.84 290.592 452.096zM568.378 246.496l-112.128-112.064-0.25 348.256-237.376 369.28h586.752l-237.408-369.344z" />
<glyph unicode="&#xe944;" glyph-name="floor" data-tags="floor" d="M640.096 895.795h-576.096v-447.878h0.096v-448.122h896v896zM896.096 511.917h-192v126.394h-64v-190.394h256v-127.917h-320.096v-64h320v-192.058h-447.904v192.058h63.904v64h-127.904v-256.179h-256v384.096h127.558v64h-127.558v319.878h319.904v-319.878h-128.346v-64h192.346v383.878h128.096v-129.485h64v129.485h192z" />
<glyph unicode="&#xe945;" glyph-name="flow" data-tags="flow" d="M801.158 416h-186.374v64h186.374c0.915-0.019 1.993-0.030 3.074-0.030 84.678 0 153.557 67.645 155.546 151.845l0.003 0.185c-1.992 84.385-70.871 152.030-155.55 152.030-1.081 0-2.159-0.011-3.235-0.033l0.161 0.003h-577.44v64h577.44c0.9 0.013 1.961 0.021 3.025 0.021 120.029 0 217.57-96.285 219.597-215.831l0.003-0.19c-2.030-119.736-99.57-216.021-219.599-216.021-1.064 0-2.126 0.008-3.186 0.023l0.161-0.002zM974.56 47.75h-751.654c-0.899-0.013-1.961-0.021-3.024-0.021-120.023 0-217.556 96.289-219.565 215.832l-0.003 0.189c2.012 119.732 99.545 216.021 219.568 216.021 1.063 0 2.125-0.008 3.185-0.023l-0.16 0.002h186.406v-64h-186.406c-0.907 0.019-1.977 0.030-3.049 0.030-84.677 0-153.554-67.646-155.54-151.845l-0.003-0.185c1.989-84.384 70.866-152.030 155.543-152.030 1.072 0 2.141 0.011 3.208 0.032l-0.16-0.003h751.654zM512 304c-79.529 0-144 64.471-144 144s64.471 144 144 144c79.529 0 144-64.471 144-144v0c-0.102-79.488-64.512-143.898-143.99-144h-0.010zM512 528c-44.183 0-80-35.817-80-80s35.817-80 80-80c44.183 0 80 35.817 80 80v0c-0.044 44.165-35.835 79.956-79.996 80h-0.004zM144 896c44.183 0 80-35.817 80-80s-35.817-80-80-80c-44.183 0-80 35.817-80 80v0c0.051 44.162 35.838 79.949 79.995 80h0.005zM144 960c-79.529 0-144-64.471-144-144s64.471-144 144-144c79.529 0 144 64.471 144 144v0c0 79.529-64.471 144-144 144v0zM891.584-54.144l-45.504 44.992 88.128 89.024-88.064 88.64 45.376 45.12 132.8-133.632-132.736-134.144z" />
<glyph unicode="&#xe946;" glyph-name="folder" data-tags="folder" d="M319.808 863.488l-319.808 2.298v-835.571h1024v704h-576zM960 94.214h-896v707.11l228.96-1.645 128.378-129.459h538.662z" />
<glyph unicode="&#xe947;" glyph-name="fuel" data-tags="fuel" d="M640.077 767.885h-320v-256h320zM576.077 575.885h-192v128h192zM854.72 790.445l-45.254-45.248 118.63-118.566v-338.746h-5.76l-64 320h-90.24v288h-576v-832h-64v-64h704v64h-64v480h37.798l64-320h122.24v429.248zM704.077 63.821h-448v768.064h448z" />
<glyph unicode="&#xe948;" glyph-name="globe" data-tags="globe" d="M512 958.963c-280.975-2.356-507.84-230.676-507.84-511.983 0-281.12 226.564-509.324 507.057-511.977l0.251-0.002 0.39-0.051h0.211c282.758 0.020 511.971 229.245 511.971 512.006 0 282.773-229.233 512.006-512.006 512.006-0.012 0-0.025 0-0.037 0h0.002zM384.416 478.963c1.185 61.626 6.646 120.978 16.111 178.985l-0.969-7.196c34.039-5.335 73.43-8.483 113.518-8.678l0.203-0.001c39.337 0.205 77.783 3.256 115.359 8.955l-4.37-0.545c8.467-50.732 13.908-109.993 15.066-170.302l0.018-1.218zM639.309 414.963c-1.173-61.233-6.563-120.21-15.903-177.863l0.959 7.175c-33.669 5.22-72.642 8.303-112.299 8.498l-0.207 0.001c-39.865-0.208-78.822-3.339-116.883-9.191l4.403 0.557c-8.388 50.514-13.785 109.536-14.945 169.597l-0.019 1.226zM513.28 706.074c-35.945 0.184-71.086 2.942-105.442 8.098l4.008-0.494c26.829 114.835 67.904 181.274 100.058 181.274s73.318-66.56 100.147-181.6c-29.542-4.456-63.767-7.095-98.573-7.276l-0.198-0.001zM617.798 881.824c77.941-19.415 145.313-57.054 199.844-108.217l-0.241 0.224c-40.715-20.225-88.11-37.157-137.67-48.386l-4.321-0.823c-12.137 59.243-32.075 111.846-59.042 159.98l1.429-2.777zM348.454 725.12c-53.523 12.107-100.591 29.106-144.744 51.085l3.695-1.665c54.057 50.49 121.032 87.836 195.412 106.543l3.084 0.657c-25.432-45.188-45.31-97.591-56.828-153.057l-0.619-3.564zM336.454 662.010c-8.957-54.079-14.749-117.319-16.042-181.662l-0.022-1.378h-254.72c6.807 94.301 41.994 179.266 96.962 247.657l-0.674-0.867c50.296-27.31 108.577-49.291 170.001-62.919l4.495-0.837zM320.39 414.97c1.31-65.388 7.050-128.304 16.943-189.83l-1.026 7.738c-66.19-14.615-124.671-36.551-178.861-65.472l3.731 1.818c-53.85 67.317-88.752 151.906-95.455 244.315l-0.084 1.445zM348.198 169.85c12.135-59.405 32.1-112.159 59.116-160.432l-1.433 2.787c-77.919 19.478-145.259 57.17-199.748 108.378l0.234-0.218c40.669 20.311 88 37.332 137.504 48.652l4.327 0.832zM411.558 181.261c30.009 4.593 64.765 7.313 100.12 7.5l0.2 0.001c35.557-0.179 70.325-2.877 104.328-7.922l-3.982 0.485c-26.803-115.405-67.981-182.189-100.224-182.349h-0.32c-32.224 0.282-73.357 67.021-100.128 182.285zM675.59 169.984c53.89-12.095 101.311-29.175 145.777-51.303l-3.697 1.665c-54.336-51.059-121.792-88.781-196.758-107.57l-3.082-0.654c25.63 45.549 45.621 98.378 57.14 154.301l0.613 3.562zM687.488 233.126c8.845 53.709 14.57 116.533 15.857 180.446l0.022 1.378h255.034c-6.789-93.832-41.68-178.4-96.2-246.591l0.686 0.888c-50.563 27.409-109.157 49.438-170.91 63.047l-4.495 0.831zM703.366 478.95c-1.31 65.587-7.079 128.7-17.030 190.414l1.030-7.746c66.271 14.535 124.837 36.352 179.151 65.128l-3.791-1.832c53.937-67.357 88.892-152.022 95.59-244.521l0.084-1.444z" />
<glyph unicode="&#xe949;" glyph-name="graph-circle" data-tags="graph-circle" d="M448 704v64c-212.077 0-384-171.923-384-384s171.923-384 384-384c212.077 0 384 171.923 384 384v0h-64c0-176.731-143.269-320-320-320s-320 143.269-320 320c0 176.731 143.269 320 320 320v0zM576 896h-32v-416h416v32c-0.24 211.981-172.019 383.76-383.977 384h-0.023zM608 544v286.47c151.367-15.913 270.528-135.096 286.288-285.081l0.118-1.389z" />
<glyph unicode="&#xe94a;" glyph-name="graph-line" data-tags="graph-line" d="M128.576 832.896v-769.792h766.848v64h-126.336v382.336h-64v-382.336h-128v491.136h-64v-491.136h-129.6v254.336h-64v-254.336h-126.912v705.792h-64z" />
<glyph unicode="&#xe94b;" glyph-name="graph-plot" data-tags="graph-plot" d="M895.332 128.416h-702.698v127.996h62.993c181.114 0 236.498 129.276 285.431 243.308 47.064 109.744 87.677 204.557 226.617 204.557h63.998v63.998h-63.998c-181.114 0-236.524-129.276-285.431-243.308-47.064-109.75-87.677-204.557-226.591-204.557h-63.019v511.171h-63.998v-767.163h766.696z" />
<glyph unicode="&#xe94c;" glyph-name="group" data-tags="group" d="M411.066 313.466h-238.906c-94.566-0.117-171.195-76.744-171.315-171.297v-48.011h64v48c0.073 59.238 48.077 107.24 107.309 107.309h238.912c59.247-0.058 107.262-48.064 107.334-107.302v-47.367h64v47.36c-0.12 94.572-76.76 171.203-171.324 171.309h-0.010zM292.186 379.469c94.593 0.12 171.242 76.778 171.347 171.363v79.639c0 94.64-76.72 171.36-171.36 171.36s-171.36-76.72-171.36-171.36v0-79.629c0.109-94.603 76.77-171.264 171.362-171.373h0.011zM184.813 630.47c0 59.293 48.067 107.36 107.36 107.36s107.36-48.067 107.36-107.36v0-79.629c0-59.293-48.067-107.36-107.36-107.36s-107.36 48.067-107.36 107.36v0zM851.84 265.53h-211.904v-64h211.904c59.253-0.102 107.257-48.117 107.341-107.365v-0.008h64c-0.102 94.594-76.749 171.253-171.329 171.373h-0.012zM904.25 502.842v79.693c-0.594 94.181-77.080 170.3-171.344 170.3s-170.75-76.119-171.344-170.244v-79.749c0.594-94.181 77.080-170.3 171.344-170.3s170.75 76.119 171.344 170.244v0.056zM625.562 502.842v79.693c0.47 58.929 48.349 106.518 107.344 106.518s106.874-47.59 107.344-106.474v-79.738c-0.47-58.929-48.349-106.518-107.344-106.518s-106.874 47.59-107.344 106.474v0.045z" />
<glyph unicode="&#xe94d;" glyph-name="heart-solid" data-tags="heart-solid" d="M713.6 861.536c-80.64-0.687-152.678-36.936-201.293-93.808l-0.307-0.368c-48.922 57.24-120.96 93.489-201.481 94.175l-0.119 0.001c-0.497 0.004-1.084 0.006-1.672 0.006-135.171 0-244.749-109.578-244.749-244.749 0-1.109 0.007-2.217 0.022-3.322l-0.002 0.168c0-170.374 152.32-309.19 383.040-519.68l64.96-59.52 64.96 59.040c230.72 210.97 383.040 349.786 383.040 520.16 0.013 0.938 0.020 2.045 0.020 3.155 0 135.171-109.578 244.749-244.749 244.749-0.588 0-1.175-0.002-1.762-0.006h0.090z" />
<glyph unicode="&#xe94e;" glyph-name="heart" data-tags="heart" d="M713.6 797.536c0.361 0.003 0.789 0.004 1.217 0.004 100.076 0 181.203-81.127 181.203-181.203 0-0.949-0.007-1.896-0.022-2.841l0.002 0.143c0-141.734-143.392-272.832-362.086-472.774l-21.76-19.77-22.554 20.666c-217.747 198.656-361.6 329.92-361.6 471.878-0.013 0.803-0.020 1.75-0.020 2.698 0 100.076 81.127 181.203 181.203 181.203 0.428 0 0.855-0.001 1.283-0.004h-0.066c61.125-0.582 115.706-28.112 152.513-71.263l0.235-0.283 48.851-57.715 48.851 57.715c37.043 43.434 91.624 70.964 152.649 71.545l0.1 0.001zM713.6 861.536c-80.64-0.687-152.678-36.936-201.293-93.808l-0.307-0.368c-48.922 57.24-120.96 93.489-201.481 94.175l-0.119 0.001c-0.497 0.004-1.084 0.006-1.672 0.006-135.171 0-244.749-109.578-244.749-244.749 0-1.109 0.007-2.217 0.022-3.322l-0.002 0.168c0-170.374 152.32-309.19 383.040-519.68l64.96-59.52 64.96 59.040c230.72 210.97 383.040 349.786 383.040 520.16 0.013 0.938 0.020 2.045 0.020 3.155 0 135.171-109.578 244.749-244.749 244.749-0.588 0-1.175-0.002-1.762-0.006h0.090z" />
<glyph unicode="&#xe94f;" glyph-name="heatmap" data-tags="heatmap" d="M756.275 574.458c0-56.162-45.528-101.69-101.69-101.69s-101.69 45.528-101.69 101.69c0 56.162 45.528 101.69 101.69 101.69s101.69-45.528 101.69-101.69zM511.994 329.37c0-56.162-45.528-101.69-101.69-101.69s-101.69 45.528-101.69 101.69c0 56.162 45.528 101.69 101.69 101.69s101.69-45.528 101.69-101.69zM658.72 839.853c0.247 0.001 0.539 0.001 0.831 0.001 143.244 0 259.366-116.122 259.366-259.366 0-51.945-15.27-100.323-41.567-140.891l0.614 1.011c39.247-12.984 67.063-49.341 67.063-92.194 0-1.084-0.018-2.164-0.053-3.24l0.004 0.157c-2.113-52.51-45.173-94.283-97.999-94.323h-0.004c-1.28 0-2.56 0-3.885 0.070-47.81 2.318-86.382 38.967-91.69 85.706l-0.041 0.444c-27.448-11.063-59.266-17.568-92.579-17.766h-0.081c-8.32 0-16.115 1.677-24.211 2.438 0-0.832 0.25-1.6 0.25-2.438 0.001-0.216 0.001-0.472 0.001-0.728 0-124.401-100.847-225.248-225.248-225.248-49.955 0-96.113 16.262-133.466 43.782l0.62-0.436c0.509-1.861 1.007-4.255 1.379-6.692l0.049-0.387c0-40.648-32.952-73.6-73.6-73.6s-73.6 32.952-73.6 73.6c0 40.648 32.952 73.6 73.6 73.6v0c4.765-0.514 9.092-1.415 13.254-2.692l-0.499 0.132c-21.601 33.436-34.439 74.292-34.439 118.146 0 37.136 9.206 72.121 25.461 102.798l-0.577-1.193c-1.133-0.032-2.067-0.64-3.2-0.64-69.325 0-125.523 56.199-125.523 125.523s56.199 125.523 125.523 125.523c69.325 0 125.523-56.199 125.523-125.523 0-0.004 0-0.009 0-0.013v0.001c-0.809-6.102-1.929-11.476-3.4-16.703l0.2 0.831c22.239 8.919 47.989 14.44 74.926 15.224l0.325 0.008c-1.834 10.201-3.098 22.223-3.509 34.461l-0.011 0.426c0.004 143.701 116.497 260.192 260.198 260.192v0zM658.726 903.853c-146.853-0.189-270.854-97.812-310.841-231.685l-0.59-2.299c-34.921 39.923-85.958 64.999-142.853 64.999-104.646 0-189.478-84.832-189.478-189.478 0-75.498 44.155-140.682 108.050-171.138l1.145-0.491c-3.425-16.321-5.387-35.077-5.389-54.29v-0.001c0.018-26.615 3.702-52.362 10.573-76.774l-0.48 1.996c-37.684-24.953-62.196-67.164-62.196-115.1 0-75.994 61.606-137.6 137.6-137.6 44.327 0 83.758 20.96 108.923 53.509l0.236 0.317c28.335-10.352 61.047-16.339 95.157-16.339 0.071 0 0.142 0 0.214 0h-0.011c138.076 0.189 253.563 96.677 282.911 225.894l0.372 1.946q10.413 1.152 20.832 3.002c27.616-42.635 74.136-70.99 127.406-73.155l0.313-0.010 6.4-0.122c0.124 0 0.271-0.001 0.418-0.001 87.23 0 158.323 69.096 161.532 155.542l0.009 0.293c0.084 1.929 0.132 4.192 0.132 6.466 0 44.665-18.456 85.020-48.157 113.855l-0.039 0.038c13.927 34.522 22.019 74.552 22.048 116.469v0.011c-0.237 178.96-145.275 323.965-324.225 324.147h-0.018z" />
<glyph unicode="&#xe950;" glyph-name="help" data-tags="help" d="M515.18 953.64c-279.851 0-508.82-228.969-508.82-508.82s228.969-508.82 508.82-508.82c279.851 0 508.82 228.969 508.82 508.82-6.36 279.851-228.969 508.82-508.82 508.82 0 0 0 0 0 0zM515.18-0.398c-248.050 0-445.217 197.168-445.217 445.217s197.168 445.217 445.217 445.217c248.050 0 445.217-197.168 445.217-445.217-6.36-241.689-203.528-445.217-445.217-445.217zM470.658 203.13c0 25.441 19.081 44.522 44.522 44.522s44.522-19.081 44.522-44.522-19.081-44.522-44.522-44.522c-25.441 0-44.522 19.081-44.522 44.522zM546.981 317.615h-63.602c0 50.882 82.683 165.366 89.043 171.727 19.081 25.441 31.801 44.522 31.801 69.963 0 31.801-25.441 76.323-95.404 76.323-89.043 0-89.043-63.602-89.043-76.323h-63.602c0 69.963 50.882 139.925 152.646 139.925 108.124 0 159.006-69.963 159.006-139.925 0-50.882-25.441-82.683-50.882-114.484 0 0-69.963-101.764-69.963-127.205z" />
<glyph unicode="&#xe951;" glyph-name="home" data-tags="home" d="M512.352 895.955l-448.256-191.686v-704.314h896v704.314zM896.096 63.955h-768v598.074l384.243 164.314 383.757-164.294z" />
<glyph unicode="&#xe952;" glyph-name="image" data-tags="image" d="M-6.534 217.376v-281.459h1024v1024.038h-1024zM57.466-0.083v122.406l896 298.714v-421.12zM57.466 895.955h896v-407.558l-896-298.72v706.278zM345.862 452.48c87.132 0 157.766 70.634 157.766 157.766s-70.634 157.766-157.766 157.766c-87.132 0-157.766-70.634-157.766-157.766 0-0.009 0-0.018 0-0.027v0.001c0.015-87.121 70.643-157.741 157.766-157.741v0zM345.862 704c51.786 0 93.766-41.981 93.766-93.766s-41.981-93.766-93.766-93.766c-51.781 0-93.759 41.973-93.766 93.753v0.001c0.051 51.768 42 93.721 93.761 93.779h0.005z" />
<glyph unicode="&#xe953;" glyph-name="info" data-tags="info" d="M512-62.976c0.002 0 0.004 0 0.006 0 282.208 0 510.982 228.775 510.982 510.982s-228.775 510.982-510.982 510.982c-282.208 0-510.982-228.775-510.982-510.982 0-0.002 0-0.004 0-0.007v0c0.004-282.203 228.773-510.972 510.976-510.976v0zM512 894.982c0.002 0 0.004 0 0.006 0 246.862 0 446.982-200.121 446.982-446.982s-200.121-446.982-446.982-446.982c-246.862 0-446.982 200.121-446.982 446.982 0 0 0 0 0 0v0c0.291 246.742 200.234 446.687 446.947 446.982h0.029zM556.531 660.23c0-24.163-19.937-43.75-44.531-43.75s-44.531 19.588-44.531 43.75c0 24.163 19.937 43.75 44.531 43.75s44.531-19.588 44.531-43.75zM480 530.291h64v-369.734h-64v369.734z" />
<glyph unicode="&#xe954;" glyph-name="invoice" data-tags="invoice" d="M640 959.226h-512v-1024h768v767.776zM832-0.774h-640v896h421.459l218.541-218.746zM448.64 576.499h-64.39c-17.548 0.256-31.675 14.54-31.675 32.125s14.127 31.869 31.651 32.125h128.491v64h-64.282v63.936h-64v-63.936h-0.186c-52.752-0.444-95.344-43.311-95.344-96.125s42.592-95.681 95.301-96.125h64.432c17.548-0.256 31.675-14.54 31.675-32.125s-14.127-31.869-31.651-32.125h-128.51v-64h64.282v-63.936h64v63.936h0.205c52.752 0.444 95.344 43.311 95.344 96.125s-42.592 95.681-95.301 96.125h-0.042z" />
<glyph unicode="&#xe955;" glyph-name="language" data-tags="language" d="M774.4 576h-12.8c-12.8 198.4-179.2 352-377.6 352-211.2 0-384-172.8-384-384s172.8-384 384-384c25.6 0 51.2 6.4 76.8 6.4 38.4-25.6 83.2-44.8 134.4-51.2v-153.6l192 153.6c140.8 6.4 236.8 102.4 236.8 230.4 0 134.4-102.4 230.4-249.6 230.4zM697.6 576h-166.4c-6.4 108.8-25.6 204.8-57.6 275.2 121.6-38.4 211.2-140.8 224-275.2zM377.6 864c25.6 0 76.8-108.8 83.2-281.6h-166.4c6.4 172.8 57.6 281.6 83.2 281.6zM70.4 512h166.4c6.4-102.4 19.2-204.8 57.6-268.8-128 38.4-211.2 140.8-224 268.8zM230.4 576h-160c12.8 128 102.4 230.4 217.6 268.8-32-64-51.2-160-57.6-268.8zM377.6 230.4c-25.6 0-76.8 108.8-83.2 281.6h153.6c-44.8-38.4-76.8-96-76.8-166.4 0-38.4 12.8-70.4 25.6-102.4-6.4-6.4-12.8-12.8-19.2-12.8zM774.4 185.6h-12.8l-108.8-83.2v83.2h-25.6c-108.8 0-185.6 70.4-185.6 166.4-6.4 96 70.4 160 185.6 160h147.2c108.8 0 185.6-64 185.6-166.4 0-96-76.8-160-185.6-160z" />
<glyph unicode="&#xe956;" glyph-name="launch" data-tags="launch" d="M618.752 509.498l277.28 277.312v-210.81h64v320h-320v-64h210.688l-277.222-277.248zM896.032 832h-0.032zM896 64h-256v-64h320v320h-64v-256zM384 64h-256v256h-64v-320h320v64zM128 832h256v64h-320v-320h64v256z" />
<glyph unicode="&#xe957;" glyph-name="layers" data-tags="layers" d="M768.102 319.968l255.898 127.949-256.083 128.038 256.083 128.045-512 256-512-256 256.083-128.045-256.083-128.038 256-128-255.904-127.917 512-256 512 256zM143.11 704l368.89 184.448 368.89-184.448-368.89-184.448zM327.642 540.16l184.358-92.16 184.358 92.16 184.531-92.262-368.89-184.429-368.89 184.448zM143.2 192l184.32 92.16 184.48-92.243 184.55 92.243 184.435-92.16-368.89-184.448z" />
<glyph unicode="&#xe958;" glyph-name="lightbulb" data-tags="lightbulb" d="M577.722 889.178c-19.749 4.319-42.44 6.803-65.708 6.822h-0.014c-0.253 0.001-0.553 0.001-0.852 0.001-167.119 0-302.653-135.229-303.147-302.232v-0.047c0-91.071 40.679-172.64 104.858-227.53l0.41-0.342c43.713-37.387 71.29-92.545 71.45-154.148v-211.702h254.566v211.661c0.335 61.863 28.098 117.174 71.736 154.44l0.283 0.236c64.268 55.557 104.693 137.195 104.693 228.275 0 144.062-101.134 264.503-236.278 294.198l-1.996 0.368zM448.717 64v127.872h126.566v-127.872zM669.517 414.803c-46.111-40.044-78.331-95.013-89.127-157.327l-0.23-1.605h-136.282c-10.81 63.786-42.923 118.662-88.627 158.271l-0.333 0.282c-50.775 43.503-82.784 107.648-82.918 179.273v0.023c0.654 131.738 107.599 238.279 239.428 238.279 0.201 0 0.403 0 0.604-0.001h-0.031c18.673-0.036 36.858-2.039 54.385-5.812l-1.706 0.308c107.839-23.801 187.321-118.573 187.321-231.909 0-71.744-31.849-136.049-82.18-179.547l-0.302-0.255zM1.53 608h125.062v-64h-125.062v64zM61.217 853.621l45.25 45.25 88.437-88.437-45.25-45.25-88.437 88.437zM61.204 298.39l88.469 88.469 45.25-45.25-88.469-88.469-45.25 45.25zM900.218 607.501h125.062v-64h-125.062v64zM831.902 341.122l45.25 45.25 88.437-88.437-45.25-45.25-88.437 88.437zM831.909 809.939l88.437 88.437 45.25-45.25-88.437-88.437-45.25 45.25z" />
<glyph unicode="&#xe959;" glyph-name="link" data-tags="link" d="M992.954 658.81l-158.842 158.848c-17.313 17.319-41.235 28.031-67.658 28.031s-50.344-10.712-67.657-28.031l-126.407-126.407 45.261-45.248 126.413 126.4c5.729 5.742 13.649 9.294 22.4 9.294s16.671-3.552 22.399-9.293l158.836-158.843c5.718-5.739 9.254-13.657 9.254-22.4s-3.536-16.661-9.255-22.401l-317.228-317.241c-5.741-5.714-13.658-9.246-22.4-9.246s-16.659 3.532-22.401 9.247l-158.847 158.821c-5.726 5.736-9.267 13.654-9.267 22.4s3.541 16.664 9.268 22.4v0l55.072 55.040-45.254 45.248-55.040-55.040c-17.311-17.316-28.017-41.235-28.017-67.654s10.706-50.338 28.017-67.655l158.848-158.841c17.319-17.301 41.236-28.001 67.651-28.001s50.332 10.7 67.652 28.002l317.202 317.279c17.305 17.315 28.008 41.23 28.008 67.645s-10.703 50.33-28.008 67.645v0zM279.776 123.565c-5.741-5.715-13.658-9.249-22.4-9.249s-16.659 3.533-22.401 9.25l-158.815 158.841c-5.729 5.734-9.272 13.653-9.272 22.4s3.543 16.666 9.273 22.4l317.216 317.273c5.716 5.733 13.621 9.28 22.355 9.28 0.016 0 0.032 0 0.048 0h-0.002c7.9-0.28 15.042-3.309 20.549-8.153l-0.037 0.031c0.64-0.531 1.28-0.563 1.882-1.158l158.822-158.854c5.718-5.739 9.254-13.657 9.254-22.4s-3.536-16.661-9.255-22.401l-60.101-60.101 45.248-45.248 5.037 5.005 55.078 55.098c17.311 17.316 28.017 41.235 28.017 67.654s-10.706 50.338-28.017 67.655l-158.841 158.835c-17.313 17.315-41.231 28.025-67.651 28.025s-50.338-10.71-67.651-28.024l-317.248-317.242c-17.314-17.314-28.022-41.234-28.022-67.654s10.709-50.34 28.022-67.654l158.842-158.848c17.322-17.3 41.24-27.999 67.658-27.999s50.336 10.699 67.659 28l126.405 126.405-45.254 45.254z" />
<glyph unicode="&#xe95a;" glyph-name="lock-locked" data-tags="lock-locked" d="M704 606.080v64.256c0 106.039-85.961 192-192 192s-192-85.961-192-192v0-64.256h-192v-572.416h768v572.416zM384 670.336c0 70.692 57.308 128 128 128s128-57.308 128-128v0-64.256h-256zM832 97.664h-640v444.416h640zM479.987 409.773h64v-186.938h-64v186.938z" />
<glyph unicode="&#xe95b;" glyph-name="lock-unlocked" data-tags="lock-unlocked" d="M832 922.88c-105.99-0.12-191.88-86.010-192-191.989v-124.811h-512v-572.416h768v572.416h-192v124.8c0.084 70.659 57.341 127.916 127.992 128h0.008c0.871 0.022 1.896 0.034 2.925 0.034 68.992 0 124.938-55.861 125.075-124.821v-64.013h64v64c0 0.128 0 0.28 0 0.431 0 104.052-84.351 188.403-188.403 188.403-1.265 0-2.527-0.012-3.786-0.037l0.189 0.003zM832 97.664h-640v444.416h640zM479.821 409.517h64v-186.938h-64v186.938z" />
<glyph unicode="&#xe95c;" glyph-name="logout" data-tags="logout" d="M448 191.36h-64v-190.976h-256.384v895.232h256.384v-192.192h64v256.192h-384.384v-1023.232h384.384v254.976zM617.728 790.592l-45.12-45.184 265.472-265.472h-562.88v-63.872h562.88l-265.472-265.472 45.12-45.184 342.656 342.592-342.656 342.592z" />
<glyph unicode="&#xe95d;" glyph-name="loudspeaker" data-tags="loudspeaker" d="M833.037 607.482c-0.704 0-1.363-0.186-2.074-0.218v256.25s-287.693-219.437-576-219.437h-192v-320.966h99.494l-99.046-192.55 183.123-98.061 142.080 275.782c169.335-43.008 317.368-116.452 445.191-214.857l-2.842 2.102v256.179c0.71-0.032 1.37-0.224 2.074-0.224 70.692 0 128 57.308 128 128s-57.308 128-128 128v0zM219.411 119.61l-70.253 37.69 85.28 165.811h22.291c23.077-0.042 45.793-1.38 68.135-3.945l-2.772 0.259zM766.963 217.53c-144.004 96.89-318.927 158.684-507.511 169.476l-2.723 0.124h-129.766v192.947h128c191.281 10.792 366.62 70.612 516.196 166.973l-4.196-2.531zM833.037 415.494c-0.736 0-1.344 0.41-2.074 0.41v127.174c0.73 0 1.338 0.403 2.074 0.403 35.346 0 64-28.654 64-64s-28.654-64-64-64v0z" />
<glyph unicode="&#xe95e;" glyph-name="magnet" data-tags="magnet" d="M960.282 320.179h-0.038v130.432h-0.141c-1.359 246.318-201.352 445.471-447.859 445.471s-446.5-199.154-447.859-445.342l-0.001-0.13h-0.141v-130.432h-0.339v-64h0.339v-256h256.256v449.184h0.058c0.629 105.529 86.322 190.834 191.939 190.834s191.31-85.305 191.939-190.774v-0.060h0.064v-129.184h-0.218v-64h0.218v-256h255.744v256h0.038zM128.243 64.179v192h128.256v-192zM768.435 449.766c-2.384 139.55-116.070 251.762-255.965 251.762-140.032 0-253.804-112.432-255.969-251.949l-0.002-0.204v-129.197h-128.256v107.117l0.141 22.925c1.258 211.048 172.636 381.649 383.859 381.649s382.602-170.601 383.859-381.53l0.001-0.119 0.141-16.806v-113.235h-127.789zM896.243 64.179h-127.757v192h127.776z" />
<glyph unicode="&#xe95f;" glyph-name="manual" data-tags="manual" d="M810.579 855.040c-22.669 4.754-48.719 7.476-75.404 7.476-43.463 0-85.239-7.221-124.194-20.528l2.703 0.802-95.354-31.763-95.194 31.731c-36.209 12.477-77.934 19.681-121.342 19.681-26.624 0-52.616-2.71-77.713-7.87l2.479 0.426-220.115-43.981v-768l220.16 43.987c22.617 4.733 48.607 7.443 75.23 7.443 43.392 0 85.103-7.199 124.004-20.468l-2.703 0.801 95.36-31.744 95.213 31.77c36.263 12.513 78.052 19.738 121.528 19.738 26.684 0 52.732-2.722 77.882-7.903l-2.482 0.427 219.936-44.051v768zM486.4 121.146l-43.059 14.336c-42.243 14.551-90.92 22.953-141.559 22.953-31.048 0-61.357-3.158-90.626-9.171l2.892 0.497-143.603-28.698v637.472l168.659 33.696c18.854 3.948 40.519 6.208 62.712 6.208 36.165 0 70.928-6.002 103.348-17.064l-2.252 0.668 83.488-27.808zM966.541 121.088l-143.36 28.71c-26.449 5.547-56.843 8.723-87.978 8.723-50.722 0-99.475-8.429-144.936-23.964l3.153 0.936-43.021-14.355v633.101l83.533 27.84c30.229 10.432 65.065 16.455 101.307 16.455 22.214 0 43.899-2.263 64.837-6.571l-2.067 0.355 168.525-33.754zM799.635 639.264c0-24.163-19.937-43.75-44.531-43.75s-44.531 19.588-44.531 43.75c0 24.163 19.937 43.75 44.531 43.75s44.531-19.588 44.531-43.75zM723.104 531.52h64v-256.006h-64v256.006z" />
<glyph unicode="&#xe960;" glyph-name="map" data-tags="map" d="M351.066 895.514l-349.037-105.626-3.437-834.816 352.499 105.69 320.032-96.064 348.941 105.754v834.752l-348.998-105.754zM383.034 819.2l256.122-76.902v-701.267l-256.122 76.89zM65.722 742.4l253.44 76.698v-701.165l-256.32-76.858zM956.16 117.824l-253.152-76.691v701.235l253.152 76.704z" />
<glyph unicode="&#xe961;" glyph-name="maximize" data-tags="maximize" d="M640 895.936v-64h256v-256h64v320h-320zM896 63.936h-256v-64h320v320h-64v-256zM128 319.936h-64v-320h320v64h-256v256zM96 895.936h-32v-320h64v256h256v64h-288z" />
<glyph unicode="&#xe962;" glyph-name="medal" data-tags="medal" d="M512 955.123c-0.083 0-0.181 0-0.279 0-195.352 0-353.715-158.364-353.715-353.715 0-111.254 51.363-210.511 131.67-275.352l0.673-0.526v-384.64l224.211 149.299 224.224-149.312v388.774c77.979 65.344 127.212 162.775 127.212 271.706 0 195.38-158.387 353.766-353.766 353.766-0.081 0-0.162 0-0.243 0h0.013zM514.56 167.040l-160.218-106.688v224.256c45.945-23.652 100.261-37.517 157.816-37.517 59.456 0 115.456 14.796 164.519 40.907l-1.894-0.92v-226.733zM512 311.123c-0.002 0-0.004 0-0.006 0-160.164 0-290.003 129.839-290.003 290.003s129.839 290.003 290.003 290.003c160.164 0 290.003-129.839 290.003-290.003v0c-0.175-160.092-129.905-289.825-289.979-290.003h-0.017z" />
<glyph unicode="&#xe963;" glyph-name="message-contact-us" data-tags="message-contact-us" d="M287.642 550.125h64v-64h-64v64zM479.994 550.125h64v-64h-64v64zM672.352 550.125h64v-64h-64v64zM960 192.64v640h-896v-835.546l256 195.546zM281.146 243.526l-153.146-116.998v642.112h768v-512h-597.651z" />
<glyph unicode="&#xe964;" glyph-name="message-double" data-tags="message-double" d="M320.64 379.386v-229.037h456.198l183.802-187.91v640.378h-190.010v254.080h-707.27v-726.822l207.802 249.312zM896.64 134.099v-14.72l-92.87 94.95h-419.13v324.486h512zM127.36 306.822v486.067h579.283v-190.080h-386.003v-159.424h-79.418z" />
<glyph unicode="&#xe965;" glyph-name="message-single" data-tags="message-single" d="M960 192.64v640h-896v-835.546l256 195.546zM281.146 243.526l-153.146-116.998v642.112h768v-512h-597.651z" />
<glyph unicode="&#xe966;" glyph-name="message-smiley" data-tags="message-smiley" d="M320 625.062h128v-64h-128v64zM576 625.062h128v-64h-128v64zM323.782 437.376c50.374-42.978 116.242-69.126 188.218-69.126s137.844 26.148 188.623 69.464l-0.406-0.338-41.498 48.749c-39.27-33.496-90.615-53.876-146.72-53.876s-107.45 20.379-147.036 54.139l0.316-0.263zM960 192.64v640h-896v-835.546l256 195.546zM281.146 243.526l-153.146-116.998v642.112h768v-512h-597.651z" />
<glyph unicode="&#xe967;" glyph-name="mic-off" data-tags="mic-off" d="M384.435 450.195v319.725c0 70.692 57.308 128 128 128s128-57.308 128-128v0-18.234l56.858 66.963c-22.856 82.204-97.040 141.529-185.081 141.529-105.383 0-190.913-84.997-191.776-190.176l-0.001-0.082v-340.73c0.213-16.702 2.57-32.763 6.809-48.041l-0.313 1.321zM514.189 303.002h-2.874l-48.518-57.146c14.3-4.136 30.758-6.623 47.76-6.853l0.131-0.001h3.501c105.008 0.106 190.108 85.186 190.246 190.176v101.274l-64-75.379v-25.882c-0.098-69.673-56.569-126.123-126.24-126.189h-0.006zM363.648 227.968l523.648 616.704-48.832 41.408-705.408-830.848 48.832-41.344 181.76 214.080zM768 435.437c0.002-0.363 0.003-0.792 0.003-1.221 0-140.438-113.847-254.285-254.285-254.285-33.174 0-64.863 6.352-93.92 17.907l1.718-0.603-42.342-49.869c29.474-14.122 63.705-24.105 99.742-28.101l1.442-0.13-0.326-117.946h-96.096v-64h256v64h-95.904l0.326 118.016c161.747 16.445 286.992 151.61 287.641 316.164v76.693h-64zM280.608 327.904c-15.365 31.452-24.424 68.413-24.608 107.471v76.689h-64v-76.627c0.134-59.006 16.563-114.146 45.023-161.195l-0.786 1.4z" />
<glyph unicode="&#xe968;" glyph-name="mic" data-tags="mic" d="M510.72 239.002h3.501c105.008 0.106 190.108 85.186 190.246 190.176v340.743c0 106.039-85.961 192-192 192s-192-85.961-192-192v0-340.73c0.138-105.005 85.242-190.087 190.243-190.189h0.010zM384.435 769.92c0 70.692 57.308 128 128 128s128-57.308 128-128v0-340.73c-0.098-69.673-56.569-126.123-126.24-126.189h-3.475c-69.692 0.047-126.183 56.504-126.285 126.179v0.010zM768 512.064v-76.627c0-141.385-114.615-256-256-256s-256 114.615-256 256v0 76.627h-64v-76.627c0.654-164.872 126.281-300.199 287.030-316.194l1.328-0.107-0.326-117.946h-96.096v-64h256v64h-95.904l0.326 118.016c161.747 16.445 286.992 151.61 287.641 316.164v76.693z" />
<glyph unicode="&#xe969;" glyph-name="minimize" data-tags="minimize" d="M959.808 640h-256v256h-64v-320h320v64zM704.192 320h-64v-320h64v256h256v64h-256zM63.808 256h256v-256h64v320h-320v-64zM319.808 640h-256v-64h320v320h-64v-256z" />
<glyph unicode="&#xe96a;" glyph-name="minus-small" data-tags="minus-small" d="M256.289 415.617l0.16 64 509.939-1.275-0.16-64-509.939 1.275z" />
<glyph unicode="&#xe96b;" glyph-name="minus" data-tags="minus" d="M111.887 416.999l0.16 64 800.062-2-0.16-64-800.062 2z" />
<glyph unicode="&#xe96c;" glyph-name="money" data-tags="money" d="M0 736v-576h1024v576zM64 672h95.962c-0.058-52.982-42.982-95.92-95.954-96h-0.008zM960 384c-88.352-0.018-159.968-71.646-159.968-160v0h64c0.062 52.983 42.987 95.92 95.96 96h0.008v-96h-896v96c52.979-0.080 95.903-43.018 95.962-95.994v-0.006h64c0 88.352-71.613 159.978-159.96 160h-0.002v128c88.349 0.022 159.962 71.648 159.962 160 0 0 0 0 0 0v0h576.070c0-88.354 71.616-159.982 159.966-160h0.002zM960 576c-52.982 0.076-95.91 43.015-95.968 95.994v0.006h95.968zM512 608c-88.366 0-160-71.634-160-160s71.634-160 160-160c88.366 0 160 71.634 160 160v0c0 88.366-71.634 160-160 160v0zM512 352c-53.019 0-96 42.981-96 96s42.981 96 96 96c53.019 0 96-42.981 96-96v0c-0.062-52.994-43.005-95.938-95.994-96h-0.006z" />
<glyph unicode="&#xe96d;" glyph-name="more" data-tags="more" d="M605.67 777.824c0-51.733-41.938-93.67-93.67-93.67s-93.67 41.938-93.67 93.67c0 51.733 41.938 93.67 93.67 93.67s93.67-41.938 93.67-93.67zM605.67 448.013c0-51.733-41.938-93.67-93.67-93.67s-93.67 41.938-93.67 93.67c0 51.733 41.938 93.67 93.67 93.67s93.67-41.938 93.67-93.67zM512 211.84c-51.733 0-93.67-41.938-93.67-93.67s41.938-93.67 93.67-93.67c51.733 0 93.67 41.938 93.67 93.67v0c0 51.733-41.938 93.67-93.67 93.67v0z" />
<glyph unicode="&#xe96e;" glyph-name="nav" data-tags="nav" d="M128 704.013h768v-128h-768v128zM128 320.013h768v-128h-768v128z" />
<glyph unicode="&#xe96f;" glyph-name="network" data-tags="network" d="M512.064 415.872h-400l-0.064 271.552h64l0.064-207.552h336v-64zM912.064 415.872h-400v64h336l-0.064 207.552h64l0.064-271.552zM144 894.784c44.183 0 80-35.817 80-80s-35.817-80-80-80c-44.183 0-80 35.817-80 80v0c0.051 44.162 35.838 79.949 79.995 80h0.005zM144 958.784c-79.529 0-144-64.471-144-144s64.471-144 144-144c79.529 0 144 64.471 144 144v0c0 79.529-64.471 144-144 144v0zM880 894.784c44.183 0 80-35.817 80-80s-35.817-80-80-80c-44.183 0-80 35.817-80 80v0c0.051 44.162 35.838 79.949 79.995 80h0.005zM880 958.784c-79.529 0-144-64.471-144-144s64.471-144 144-144c79.529 0 144 64.471 144 144v0c0 79.529-64.471 144-144 144v0zM512 894.784c44.183 0 80-35.817 80-80s-35.817-80-80-80c-44.183 0-80 35.817-80 80v0c0.051 44.162 35.838 79.949 79.995 80h0.005zM512 958.784c-79.529 0-144-64.471-144-144s64.471-144 144-144c79.529 0 144 64.471 144 144v0c0 79.529-64.471 144-144 144v0zM512 160.736c44.183 0 80-35.817 80-80s-35.817-80-80-80c-44.183 0-80 35.817-80 80v0c0.051 44.162 35.838 79.949 79.995 80h0.005zM512 224.736c-79.529 0-144-64.471-144-144s64.471-144 144-144c79.529 0 144 64.471 144 144v0c0 79.529-64.471 144-144 144v0zM480.064 714.56h64v-512h-64v512z" />
<glyph unicode="&#xe970;" glyph-name="node" data-tags="node" d="M512 224c-123.712 0-224 100.288-224 224s100.288 224 224 224c123.712 0 224-100.288 224-224v0c-0.153-123.65-100.35-223.847-223.985-224h-0.015zM512 608c-88.366 0-160-71.634-160-160s71.634-160 160-160c88.366 0 160 71.634 160 160v0c-0.095 88.327-71.673 159.905-159.991 160h-0.009zM512 32c-229.75 0-416 186.25-416 416s186.25 416 416 416c229.75 0 416-186.25 416-416v0c-0.273-229.641-186.359-415.727-415.974-416h-0.026zM512 800c-194.404 0-352-157.596-352-352s157.596-352 352-352c194.404 0 352 157.596 352 352v0c-0.24 194.307-157.692 351.76-351.976 352h-0.024z" />
<glyph unicode="&#xe971;" glyph-name="notification-ring" data-tags="notification-ring" d="M188.243 335.277c-1.825-11.042-2.867-23.766-2.867-36.734 0-73.324 33.335-138.861 85.677-182.285l0.391-0.315 22.624-22.63 140.749 140.749c1.606-1.843 2.906-3.84 4.653-5.6 23.75-23.75 56.559-38.439 92.8-38.439 72.481 0 131.239 58.758 131.239 131.239 0 36.241-14.689 69.050-38.439 92.8v0c-1.747 1.747-3.757 3.053-5.606 4.653l140.749 140.749-22.624 22.624c-43.736 52.734-109.271 86.070-182.593 86.070-12.973 0-25.702-1.044-38.108-3.051l1.36 0.182-15.066-0.045c-62.080 0.045-90.112 28.8-151.456 91.795l-33.197 33.702c-32.964 38.304-81.504 62.41-135.673 62.41-50.299 0-95.743-20.784-128.213-54.232l-0.043-0.044c-33.469-32.508-54.237-77.935-54.237-128.213 0-54.171 24.108-102.71 62.181-135.475l0.234-0.197 33.722-33.19c63.021-61.338 91.744-89.357 91.789-151.45zM579.763 273.715c-12.165-12.146-28.961-19.657-47.51-19.657s-35.345 7.511-47.511 19.658l0.001-0.001c-1.415 1.775-2.79 3.762-4.030 5.84l-0.136 0.247 93.133 93.126c2.323-1.357 4.314-2.73 6.195-4.232l-0.102 0.079c12.133-12.171 19.636-28.964 19.636-47.51 0-18.565-7.518-35.374-19.675-47.55l0.001 0.001zM252.282 350.349c0 89.094-44.192 132.141-111.149 197.325l-33.101 32.57c-26.978 21.088-44.158 53.633-44.158 90.19 0 32.766 13.802 62.309 35.909 83.132l0.058 0.054c20.886 22.19 50.45 36.009 83.243 36.009 36.556 0 69.102-17.173 90.008-43.893l0.189-0.251 32.57-33.101c65.184-66.95 108.23-111.149 197.325-111.149h15.226c78.669 0.179 103.194 0.224 150.79-42.336l-374.573-374.579c-42.56 47.597-42.515 72.128-42.336 150.79zM831.405 666.374h192v-64h-192v64zM804.551 810.542l140.741 130.608 43.5-46.875-140.741-130.608-43.5 46.875zM807.943 451.934l46.931 43.505 130.531-140.812-46.931-43.505-130.531 140.812z" />
<glyph unicode="&#xe972;" glyph-name="notification" data-tags="notification" d="M278.656 429.030c-59.286-43.546-97.338-112.994-97.338-191.33 0-7.959 0.393-15.827 1.16-23.584l-0.079 0.981v-32h199.040c-0.173-2.438-0.672-4.787-0.672-7.251 0-72.47 58.749-131.219 131.219-131.219s131.219 58.749 131.219 131.219v0c0 2.464-0.499 4.813-0.672 7.251h199.040v32c0.69 6.781 1.083 14.655 1.083 22.621 0 78.325-38.042 147.765-96.657 190.851l-0.657 0.461-10.688 10.624c-43.872 43.942-43.373 84.064-42.189 172l0.378 47.315c0.336 4.108 0.528 8.893 0.528 13.723 0 98.68-79.996 178.675-178.675 178.675-0.948 0-1.895-0.007-2.84-0.022l0.143 0.002c-0.806 0.013-1.758 0.021-2.711 0.021-98.673 0-178.662-79.99-178.662-178.662 0-4.834 0.192-9.624 0.569-14.361l-0.040 0.625 0.378-47.315c1.184-87.936 1.683-128.058-42.189-172zM512 108.659c-37.103 0.026-67.175 30.097-67.2 67.198v0.002c0.328 2.771 0.805 5.232 1.442 7.627l-0.085-0.376h131.686c0.569-2.032 1.052-4.493 1.353-7.009l0.023-0.242c-0.055-37.098-30.119-67.156-67.215-67.2h-0.004zM334.592 394.406c63.002 63.002 62.208 124.691 60.928 218.125l-0.378 46.438c-0.569 4.281-0.894 9.232-0.894 14.258 0 63.058 51.118 114.176 114.176 114.176 1.257 0 2.51-0.020 3.757-0.061l-0.182 0.005c1.049 0.035 2.281 0.054 3.519 0.054 63.079 0 114.214-51.136 114.214-114.214 0-5.012-0.323-9.948-0.949-14.789l0.060 0.572-0.365-46.438c-1.28-93.44-2.061-155.123 60.941-218.125l10.746-10.752c55.75-55.494 73.126-72.813 76.691-136.557h-529.702c3.565 63.744 20.941 81.062 76.691 136.557z" />
<glyph unicode="&#xe973;" glyph-name="oil" data-tags="oil" d="M918.4 499.104l-248.685-62.189-47.872 122.72h-128.077l-0.077 32.186h64.557v64h-192.122v-64h63.565l0.077-32.186h-129.158v51.437l-199.040 109.267-102.003-153.6 237.030-122.88v-268.192h420.314l367.501 217.44zM236.608 559.635v-44.378l-143.526 76.55 29.997 45.28 113.53-64.928zM639.424 239.635h-338.816v256h281.734l53.12-133.222 263.334 65.811 21.997-21.997z" />
<glyph unicode="&#xe974;" glyph-name="options" data-tags="options" d="M672.378 578.438c58.87 0.142 108.191 40.85 121.501 95.642l0.176 0.857h101.946v58.624h-102.259c-13.697 55.216-62.828 95.497-121.366 95.497s-107.669-40.281-121.186-94.638l-0.181-0.859h-422.477v-58.624h422.163c13.486-55.652 62.811-96.36 121.668-96.499h0.016zM672.378 770.438c0.009 0 0.021 0 0.032 0 36.831 0 66.688-29.857 66.688-66.688s-29.857-66.688-66.688-66.688c-36.831 0-66.688 29.857-66.688 66.688 0 0 0 0 0 0v0c0.044 36.802 29.857 66.626 66.65 66.688h0.006zM672.378 317.562c-58.47-0.167-107.504-40.363-121.153-94.617l-0.184-0.865h-422.509v-58.624h422.163c13.367-55.722 62.762-96.496 121.68-96.496s108.313 40.774 121.507 95.643l0.173 0.852h101.946v58.624h-102.259c-13.833 55.128-62.882 95.329-121.346 95.482h-0.017zM672.378 125.562c-0.009 0-0.021 0-0.032 0-36.831 0-66.688 29.857-66.688 66.688s29.857 66.688 66.688 66.688c36.831 0 66.688-29.857 66.688-66.688v0c-0.044-36.802-29.857-66.626-66.65-66.688h-0.006zM128 418.374h134.477c13.529-55.472 62.793-96.003 121.523-96.003s107.994 40.531 121.346 95.147l0.177 0.856h390.477v58.624h-390.477c-13.529 55.472-62.793 96.003-121.523 96.003s-107.994-40.531-121.346-95.147l-0.177-0.856h-134.477zM384 514.374c0.009 0 0.021 0 0.032 0 36.831 0 66.688-29.857 66.688-66.688s-29.857-66.688-66.688-66.688c-36.831 0-66.688 29.857-66.688 66.688 0 0 0 0 0 0v0c0.044 36.802 29.857 66.626 66.65 66.688h0.006z" />
<glyph unicode="&#xe975;" glyph-name="phone-classic" data-tags="phone-classic" d="M608.128-60.378c-139.411 0-290.598 180.627-375.782 378.003h-0.096c-0.64 1.562-1.28 3.123-1.92 4.685-0.781 1.875-1.562 3.693-2.374 5.562l0.128 0.064c-89.843 227.584-103.834 500 47.117 565.44l114.016 48.998c16.618 8.807 36.328 13.978 57.246 13.978 16.263 0 31.795-3.125 46.030-8.808l-0.838 0.295c29.767-14.644 52.359-40.059 62.967-71.036l0.258-0.868 27.994-68.256c9.763-18.418 15.494-40.265 15.494-63.45 0-15.772-2.652-30.925-7.536-45.037l0.291 0.967c-16.473-31.835-44.648-55.684-78.69-66.103l-0.932-0.246c-44.941-18.131-76.941-32.314-79.034-49.997 2.245-57.071 15.039-110.585 36.476-159.447l-1.103 2.82 0.122 0.064 4.378-10.566-0.186-0.045c21.157-52.549 50.071-97.645 85.856-136.287l-0.262 0.287c13.939-11.13 45.19 0.87 91.315 20.371 18.047 9.858 39.532 15.656 62.371 15.656 14.59 0 28.627-2.366 41.748-6.734l-0.933 0.269c33.427-16.951 58.605-46.107 69.949-81.459l0.272-0.979 28.998-69.376c7.649-15.517 12.124-33.778 12.124-53.085 0-14.622-2.566-28.644-7.273-41.641l0.269 0.851c-14.731-32.672-42.162-57.414-75.834-68.235l-0.883-0.245-114.97-45.626c-16.76-6.824-36.206-10.784-56.576-10.784-0.070 0-0.139 0-0.209 0h0.011zM289.498 346.752c95.782-224.941 253.062-375.552 351.878-336.813l115.251 45.683c17.691 4.896 32.038 16.624 40.297 32.093l0.17 0.349c1.514 5.075 2.386 10.906 2.386 16.941 0 9.878-2.335 19.211-6.482 27.476l0.161-0.353-29.939 71.437c-6.043 19.997-18.651 36.467-35.268 47.3l-0.328 0.201c-4.533 0.963-9.74 1.515-15.077 1.515-14.206 0-27.499-3.91-38.861-10.711l0.345 0.191c-54.746-23.187-111.277-47.187-156.090-11.558-45.511 46.542-81.881 102.237-106.070 164.039l-1.149 3.334c-25.824 56.844-41.152 123.205-41.809 193.072l-0.002 0.24c6.56 56.877 63.558 79.814 118.714 102.003 19.84 8 38.125 16.371 44.346 31.437 1.252 5.464 1.97 11.737 1.97 18.179 0 14.723-3.749 28.57-10.345 40.638l0.222-0.443-28.8 70.438c-4.939 15.383-15.231 27.866-28.634 35.525l-0.306 0.161c-5.827 1.926-12.534 3.038-19.501 3.038-11.679 0-22.628-3.123-32.059-8.578l0.309 0.165-114.227-49.126c-97.658-42.304-102.406-260.544-11.098-487.872z" />
<glyph unicode="&#xe976;" glyph-name="phone-cobra" data-tags="phone-cobra" d="M815.814-64h-696.474v32c-0.002 0.395-0.003 0.863-0.003 1.331 0 138.229 80.983 257.544 198.093 313.088l2.101 0.897c3.686 216.058 64.499 476.8 225.92 584.25 59.874 39.431 129.91 69.368 205.038 85.636l4.069 0.739c6.384 1.508 13.714 2.372 21.246 2.372 53.196 0 96.32-43.124 96.32-96.32 0-11.304-1.947-22.153-5.524-32.23l0.209 0.674-62.938-181.562c-12.432-36.376-45.196-62.549-84.401-65.099l-0.284-0.015c-0.378 0.004-0.825 0.006-1.272 0.006-32.535 0-62.273-11.978-85.044-31.764l0.159 0.135c-43.847-60.036-70.155-135.306-70.155-216.719 0-10.813 0.464-21.517 1.373-32.094l-0.095 1.377c146.24-43.836 251.083-176.956 251.661-334.652v-0.068zM185.094 0h564.909c-14.642 122.054-104.402 219.595-221.129 245.703l-1.904 0.358-22.72 4.813-2.438 23.123c-0.902 8.442-20.563 207.002 84.378 319.693 33.702 31.9 79.222 51.616 129.345 51.936h0.063c13.065 1.245 23.779 10.091 27.742 22.018l0.066 0.229 62.906 181.568c1.204 3.207 1.901 6.913 1.901 10.781 0 8.184-3.119 15.64-8.234 21.243l0.022-0.025c-5.75 6.736-14.249 10.979-23.74 10.979-2.758 0-5.432-0.358-7.978-1.031l0.217 0.049c-71.031-15.115-133.871-41.856-189.698-78.422l2.107 1.295c-145.658-96.998-197.549-348.813-197.549-552.122v-21.76l-20.218-8c-96.601-38.524-166.038-126.109-177.929-231.136l-0.119-1.293z" />
<glyph unicode="&#xe977;" glyph-name="phone-hangup" data-tags="phone-hangup" d="M116.941 158.502c-0.456-0.006-0.995-0.010-1.535-0.010-31.296 0-59.821 11.867-81.32 31.346l0.102-0.091c-21.415 22.349-34.599 52.732-34.599 86.195 0 3.826 0.172 7.611 0.51 11.349l-0.035-0.482 1.683 123.629c2.688 164.627 259.782 256 504.378 260v0.064c3.686 0.058 7.437 0.058 11.123 0.058v-0.186c244.627-3.565 501.875-94.438 504.813-259.002l1.875-124.058c0.303-3.254 0.475-7.036 0.475-10.859 0-33.37-13.148-63.668-34.546-85.998l0.042 0.044c-21.573-19.466-50.293-31.376-81.795-31.376-3.064 0-6.102 0.113-9.11 0.334l0.402-0.024-73.805 0.186c-3.37-0.288-7.293-0.452-11.255-0.452-34.93 0-66.878 12.766-91.433 33.888l0.185-0.155c-19.701 22.873-31.698 52.869-31.698 85.667 0 4.674 0.244 9.291 0.719 13.839l-0.048-0.568c0.371 50.061-0.531 83.501-16.096 92.122-45.085 17.17-97.222 27.112-151.681 27.112-2.25 0-4.495-0.017-6.737-0.051l0.038 0.004v-0.192l-11.437 0.128c-1.828 0.028-3.985 0.043-6.147 0.043-54.629 0-106.921-10.010-155.14-28.296l3.008 1.001c-15.533-8.685-16.41-43.686-15.942-92.16 0.439-4.035 0.689-8.715 0.689-13.453 0-32.738-11.943-62.686-31.71-85.725l0.148 0.177c-24.402-21.072-56.429-33.907-91.454-33.907-4.053 0-8.067 0.172-12.033 0.509l0.517-0.035-75.123-0.378c-1.472-0.115-3.501-0.237-6.029-0.237zM509.216 606.502c-243.616-3.315-441.747-90.938-443.469-197.005l-1.683-123.936c-0.33-2.456-0.519-5.296-0.519-8.179 0-15.87 5.712-30.407 15.191-41.666l-0.080 0.098c10.321-8.309 23.589-13.336 38.031-13.336 1.481 0 2.95 0.053 4.404 0.157l-0.195-0.011 77.402 0.442c2.007-0.153 4.348-0.24 6.709-0.24 18.886 0 36.468 5.58 51.188 15.181l-0.361-0.221c8.098 11.724 12.935 26.24 12.935 41.886 0 3.945-0.307 7.817-0.9 11.595l0.054-0.419c-0.563 59.437-1.184 120.877 48.813 148.691 55.408 22.423 119.67 35.434 186.971 35.434 2.77 0 5.535-0.022 8.294-0.066l-0.417 0.005c4.182 0.13 9.101 0.203 14.038 0.203 65.358 0 127.694-12.934 184.59-36.381l-3.224 1.176c49.965-27.686 49.498-89.184 49.062-148.621-0.527-3.325-0.827-7.16-0.827-11.064 0-15.69 4.857-30.246 13.15-42.246l-0.162 0.248c13.444-9.446 30.152-15.096 48.18-15.096 3.118 0 6.196 0.169 9.226 0.498l-0.375-0.033 76.16-0.25c1.552-0.136 3.357-0.213 5.181-0.213 14.699 0 28.225 5.022 38.956 13.443l-0.137-0.104c9.352 11.11 15.035 25.578 15.035 41.373 0 2.844-0.184 5.645-0.541 8.391l0.034-0.324-1.85 124.397c-1.92 106.688-202.957 194.438-448.864 196.192z" />
<glyph unicode="&#xe978;" glyph-name="pin" data-tags="pin" d="M692.672 853.894l-262.003-262.003c-16.767 3.452-36.036 5.429-55.768 5.429-79.654 0-151.785-32.208-204.081-84.311l-22.615-22.615 179.923-179.942-223.11-223.091 45.248-45.248 223.11 223.123 182.106-182.093 22.63 22.624c52.092 52.265 84.3 124.376 84.3 204.009 0 19.722-1.975 38.983-5.739 57.595l0.313-1.853 261.997 262.061zM590.861 367.328c4.779-17.31 7.526-37.186 7.526-57.704 0-50.626-16.721-97.347-44.941-134.941l0.418 0.581-313.568 313.504c36.938 27.866 83.614 44.631 134.206 44.631 20.622 0 40.594-2.786 59.56-8.001l-1.573 0.369 17.811-4.749 242.374 242.374 135.814-135.814-242.374-242.438z" />
<glyph unicode="&#xe979;" glyph-name="plus-small" data-tags="plus-small" d="M478.656 192.064l64-0.128 0.576 222.976 222.976-0.512 0.192 64-223.040 0.512 0.576 223.040-64 0.128-0.576-222.976-222.912 0.512-0.192-64 222.976-0.512-0.576-223.040z" />
<glyph unicode="&#xe97a;" glyph-name="plus" data-tags="plus" d="M545.024 847.936l-64 0.128-0.96-368-368 0.96-0.192-64 368.064-0.96-0.96-368 64-0.128 0.96 368 368-0.96 0.192 64-368.064 0.96 0.96 368z" />
<glyph unicode="&#xe97b;" glyph-name="polygon-dashed" data-tags="polygon-dashed" d="M65.344 704.064h64v126.528h126.656v64h-190.656v-190.528zM446.528 703.936h64v190.72h-190.528v-64h126.528v-126.72zM129.408 192h-64v-190.656h190.528v64h-126.528v126.656zM894.656 191.936v-126.528h-126.656v-64h190.656v190.528h-64zM894.592 256.064h64v190.592h-190.528v-64h126.528v-126.592zM446.528 573.312v-190.656h190.464v64h-126.464v126.656h-64zM399.232 65.376h240.781v-64h-240.781v64zM65.331 576h64v-256h-64v256z" />
<glyph unicode="&#xe97c;" glyph-name="polygon" data-tags="polygon" d="M447.462 832v-448h448.269v-320h-768v768h319.731zM511.462 896h-447.757v-896h896v448h-448.243v448z" />
<glyph unicode="&#xe97d;" glyph-name="position" data-tags="position" d="M512.058 766.682c-0.002 0-0.004 0-0.006 0-70.484 0-127.622-57.138-127.622-127.622s57.138-127.622 127.622-127.622c70.484 0 127.622 57.138 127.622 127.622v0c0 70.482-57.135 127.619-127.616 127.622v0zM512.058 575.437c-0.002 0-0.004 0-0.006 0-35.138 0-63.622 28.485-63.622 63.622s28.485 63.622 63.622 63.622c35.138 0 63.622-28.485 63.622-63.622v0c-0.040-35.119-28.497-63.579-63.612-63.622h-0.004zM512 960.128c-176.792-0.004-320.109-143.323-320.109-320.115 0-0.004 0-0.009 0-0.013v0c0-256.090 320.109-704.128 320.109-704.128s320.109 448.038 320.109 704.128c0 0.004 0 0.008 0 0.013 0 176.792-143.317 320.111-320.108 320.115h-0.001zM255.891 640c0 141.445 114.664 256.109 256.109 256.109s256.109-114.664 256.109-256.109v0c0-161.101-155.014-434.31-256.109-590.080-101.12 155.789-256.109 428.998-256.109 590.080z" />
<glyph unicode="&#xe97e;" glyph-name="profile" data-tags="profile" d="M513.19 739.514c-94.594-0.124-171.242-76.783-171.347-171.369v-79.632c-0.002-0.311-0.003-0.679-0.003-1.047 0-94.632 76.715-171.347 171.347-171.347s171.347 76.715 171.347 171.347c0 0.368-0.001 0.736-0.003 1.104v-0.056 79.622c-0.102 94.596-76.748 171.255-171.329 171.379h-0.012zM620.531 488.512c0.002-0.246 0.003-0.537 0.003-0.829 0-59.286-48.061-107.347-107.347-107.347s-107.347 48.061-107.347 107.347c0 0.291 0.001 0.583 0.003 0.873v-0.045 79.622c-0.002 0.246-0.003 0.537-0.003 0.829 0 59.286 48.061 107.347 107.347 107.347s107.347-48.061 107.347-107.347c0-0.291-0.001-0.583-0.003-0.873v0.045zM759.040 897.542c-70.806 39.351-155.291 62.516-245.187 62.516-282.809 0-512.070-229.262-512.070-512.070s229.262-512.070 512.070-512.070c192.963 0 360.997 106.731 448.288 264.379l1.335 2.628c39.843 70.964 63.311 155.753 63.311 246.023 0 192.854-107.114 360.691-265.095 447.263l-2.652 1.331zM299.52 54.662c-4.742 2.56-9.056 5.645-13.67 8.378v16.768c0.066 59.254 48.086 107.27 107.335 107.328h238.911c59.25-0.055 107.268-48.062 107.341-107.302v-18.727c-64.607-38.45-142.457-61.177-225.615-61.177-78.59 0-152.438 20.299-216.589 55.94l2.281-1.163zM907.309 233.542c-28.047-50.428-63.586-93.1-105.675-128.179l-0.718-0.582c-12.486 83.089-83.256 146.105-168.793 146.355h-238.932c-85.131-0.24-155.626-62.594-168.564-144.115l-0.127-0.973c-97.255 82.703-158.549 205.163-158.549 341.939 0 247.424 200.576 448 448 448s448-200.576 448-448c0-78.614-20.249-152.499-55.815-216.723l1.168 2.298z" />
<glyph unicode="&#xe97f;" glyph-name="projects" data-tags="projects" d="M736.154 768c-0.388 87.008-69.841 157.667-156.341 159.995l-0.216 0.005h-129.037c-88.148-1.79-159.307-72.078-162.488-159.706l-0.008-0.294h-287.955v-704h1024v704zM450.56 864h129.037c51.4-2.233 92.263-44.295 92.569-95.97v-0.030h-320.090c3.326 52.485 45.751 94.047 98.298 95.995l0.185 0.005zM960.083 128h-896v320h127.917v-128h192v128h256v-128h192v128h128.077zM320 448v-64h-64v64zM768 448v-64h-64v64zM960.077 512h-895.968v192h896z" />
<glyph unicode="&#xe980;" glyph-name="redo" data-tags="redo" d="M349.734 754.97h608.934v58.624h-608.934c-156.525-0.702-283.142-127.752-283.142-284.375 0-156.546 126.493-283.549 282.846-284.374h0.078l218.656-1.594-119.347-119.347 41.504-41.498 189.811 189.875-189.811 189.875-41.504-41.498 118.778-118.778-217.869 1.587c-124.162 0.682-224.552 101.493-224.552 225.75s100.389 225.068 224.487 225.75h0.065z" />
<glyph unicode="&#xe981;" glyph-name="reload" data-tags="reload" d="M471.757 66.438l-73.715-58.656 39.872-50.131 164.813 131.2-131.155 164.864-50.061-39.872 66.093-83.085c-165.738 12.524-295.47 150.080-295.47 317.936 0 88.206 35.823 168.045 93.714 225.761l0.008 0.008-45.254 45.254c-69.488-69.476-112.468-165.464-112.468-271.489 0-197.837 149.645-360.723 341.917-381.64l1.707-0.151zM626.163 888.653l-39.872 50.125-164.813-131.2 131.155-164.8 50.061 39.878-66.131 83.091c165.762-12.532 295.511-150.11 295.511-317.993 0-88.212-35.821-168.057-93.711-225.782l-0.008-0.008 45.248-45.248c69.488 69.483 112.468 165.476 112.468 271.508 0 197.821-149.603 360.7-341.843 381.672l-1.71 0.151z" />
<glyph unicode="&#xe982;" glyph-name="resize-down" data-tags="resize-down" d="M962.048 853.37l-45.248 45.254-277.28-277.312v210.81h-64v-320h320v64h-210.72zM639.52 576.122h0.064zM130.56 322.093h210.688l-277.248-277.254 45.248-45.248 277.312 277.306v-210.803h64v320h-320zM386.56 322.093v-0.064l-0.064 0.064z" />
<glyph unicode="&#xe983;" glyph-name="resize-up" data-tags="resize-up" d="M641.030 898.624v-64h210.688l-277.222-277.254 45.248-45.248 277.286 277.306v-210.803h64v320zM897.030 834.56v0.064zM404.256 386.093l-277.28-277.293v210.79h-64v-320h320v64h-210.694l277.222 277.248zM126.976 63.59h0.058z" />
<glyph unicode="&#xe984;" glyph-name="restore" data-tags="restore" d="M415.251 340.378l-41.491 41.498-118.995-119.040v249.165c0.063 142.798 115.837 258.534 258.643 258.534 142.845 0 258.643-115.799 258.643-258.643 0-99.511-56.198-185.897-138.587-229.151l-1.419-0.679 27.002-52.122c102.816 53.915 171.757 159.903 171.757 281.994 0 175.278-142.091 317.37-317.37 317.37-175.255 0-317.331-142.053-317.37-317.298v-249.15l-119.002 119.040-41.498-41.498 189.843-189.894zM513.408 640c-70.692 0-128-57.308-128-128s57.308-128 128-128c70.692 0 128 57.308 128 128v0c-0.084 70.659-57.341 127.916-127.992 128h-0.008zM513.408 448c-35.346 0-64 28.654-64 64s28.654 64 64 64c35.346 0 64-28.654 64-64v0c-0.033-35.333-28.667-63.967-63.997-64h-0.003z" />
<glyph unicode="&#xe985;" glyph-name="room" data-tags="room" d="M64.064 896v-896h187.693v-0.416l68.8 0.672-1.126 61.555c-0.008 0.646-0.012 1.41-0.012 2.175 0 105.334 84.645 190.898 189.626 192.384l0.14 0.002 3.59-256.691 63.814 0.64v-0.32h383.475v896zM896.064 64h-319.539l-0.902 256.378h-66.464c-140.228-0.371-253.761-114.133-253.761-254.412 0-0.691 0.003-1.381 0.008-2.071l-0.001 0.105h-127.341v768h768z" />
<glyph unicode="&#xe986;" glyph-name="routing" data-tags="routing" d="M882.656 304c0.081 0 0.176 0 0.271 0 79.529 0 144 64.471 144 144s-64.471 144-144 144c-68.183 0-125.298-47.388-140.207-111.025l-0.192-0.974h-183.731l236.307 221.491c23.857-18.894 54.353-30.356 87.522-30.49h0.030c79.529 0 144 64.471 144 144s-64.471 144-144 144c-79.529 0-144-64.471-144-144v0c0.154-23.392 5.932-45.4 16.047-64.786l-0.373 0.786-289.158-271.002h-66.419c-14.967 64.59-72.011 111.997-140.128 111.997s-125.161-47.407-139.938-111.028l-0.19-0.97h-115.936v-64h115.936c14.967-64.59 72.011-111.997 140.128-111.997s125.161 47.407 139.938 111.028l0.19 0.97h65.491l289.92-271.36c-9.634-18.513-15.347-40.402-15.501-63.612v-0.049c0-79.529 64.471-144 144-144s144 64.471 144 144c0 79.529-64.471 144-144 144v0c-33.321-0.137-63.919-11.689-88.111-30.943l0.29 0.223-236.896 221.741h184.582c15.101-64.51 72.065-111.843 140.11-112h0.018zM882.656 528c44.183 0 80-35.817 80-80s-35.817-80-80-80c-44.183 0-80 35.817-80 80v0c0.040 44.167 35.833 79.96 79.996 80h0.004zM882.656 895.002c44.183 0 80-35.817 80-80s-35.817-80-80-80c-44.183 0-80 35.817-80 80v0c0.044 44.165 35.835 79.956 79.996 80h0.004zM258.624 368c-44.183 0-80 35.817-80 80s35.817 80 80 80c44.183 0 80-35.817 80-80v0c-0.044-44.165-35.835-79.956-79.996-80h-0.004zM882.624 160.998c44.183 0 80-35.817 80-80s-35.817-80-80-80c-44.183 0-80 35.817-80 80v0c0.040 44.178 35.852 79.978 80.030 80h0.002z" />
<glyph unicode="&#xe987;" glyph-name="rss" data-tags="rss" d="M127.091 453.562c28.552 10.174 61.492 16.26 95.79 16.715l0.21 0.002c171.752-0.193 310.933-139.372 311.13-311.105v-0.019c-0.458-34.532-6.549-67.493-17.39-98.212l0.661 2.148h67.84c8.207 29.222 12.925 62.78 12.925 97.44 0 206.422-167.338 373.76-373.76 373.76-34.647 0-68.193-4.714-100.031-13.536l2.626 0.621zM319.098 159.142c0-53.019-42.981-96-96-96s-96 42.981-96 96c0 53.019 42.981 96 96 96s96-42.981 96-96zM127.091 760.595c28.712 5.053 61.911 8.070 95.767 8.319l0.233 0.001c336.613-0.389 609.391-273.144 609.818-609.712v-0.042c-0.247-34.11-3.263-67.331-8.835-99.678l0.515 3.614h64.672c4.617 28.678 7.399 61.928 7.678 95.775l0.002 0.289c-0.462 371.95-301.891 673.343-673.811 673.747h-0.039c-34.113-0.281-67.341-3.063-99.795-8.172l3.795 0.492z" />
<glyph unicode="&#xe988;" glyph-name="ruler" data-tags="ruler" d="M992 640.064h-64v-320.128h-160.064v192h-64v-192h-160v320.128h-64v-320.128h-160v192h-64v-192h-159.936v320.128h-64v-384.064h31.936v-0.064l928.064 0.128v384z" />
<glyph unicode="&#xe989;" glyph-name="scan" data-tags="scan" d="M396.096 470.074c-0.996-5.767-1.565-12.408-1.565-19.183 0-65.345 52.972-118.317 118.317-118.317s118.317 52.972 118.317 118.317c0 65.345-52.972 118.317-118.317 118.317-20.585 0-39.943-5.257-56.803-14.502l0.615 0.309-280.762 280.794-46.234-46.253 280.25-280.32c-6.556-11.292-11.388-24.464-13.724-38.48l-0.094-0.682zM481.357 493.952c8.406 6.259 18.992 10.022 30.456 10.029h0.002c0.089 0.001 0.194 0.001 0.3 0.001 2.715 0 5.376-0.233 7.964-0.681l-0.276 0.040c13.993-2.156 25.905-9.707 33.756-20.42l0.1-0.144v-0.064c6.241-8.45 9.99-19.072 9.99-30.57 0-17.053-8.245-32.18-20.967-41.613l-0.14-0.099c-8.471-6.294-19.135-10.076-30.682-10.076-28.581 0-51.75 23.169-51.75 51.75 0 2.807 0.223 5.561 0.654 8.247l-0.039-0.296c2.174 14.014 9.748 25.94 20.489 33.793l0.145 0.101zM512.096 960c-0.199 0-0.434 0-0.67 0-105.59 0-203.677-32.124-285.021-87.131l1.799 1.147 46.656-46.669c67.428 42.745 149.535 68.117 237.568 68.117 247.607 0 448.333-200.725 448.333-448.333s-200.725-448.333-448.333-448.333c-247.607 0-448.333 200.725-448.333 448.333 0 91.035 27.133 175.733 73.753 246.449l-1.042-1.683-46.323 46.33c-56.422-81.093-90.143-181.658-90.143-290.099 0-282.699 229.173-511.872 511.872-511.872s511.872 229.173 511.872 511.872c0 282.699-229.173 511.872-511.872 511.872-0.041 0-0.082 0-0.122 0h0.006zM234.47 594.214c-23.308-42.264-37.168-92.58-37.535-146.102l-0.001-0.112c0.007-174.053 141.107-315.149 315.162-315.149 174.059 0 315.162 141.103 315.162 315.162s-141.103 315.162-315.162 315.162v0c-50.875-0.317-98.77-12.77-141.032-34.604l1.742 0.818 48-48c26.944 10.788 58.177 17.046 90.872 17.046 138.483 0 250.746-112.263 250.746-250.746s-112.263-250.746-250.746-250.746c-138.483 0-250.746 112.263-250.746 250.746 0 35.966 7.572 70.163 21.209 101.084l-0.632-1.605z" />
<glyph unicode="&#xe98a;" glyph-name="search" data-tags="search" d="M1003.59 1.037l-250.541 250.483c62.591 72.5 100.717 167.647 100.717 271.699 0 230.21-186.622 416.832-416.832 416.832s-416.832-186.622-416.832-416.832c0-230.21 186.622-416.832 416.832-416.832 103.637 0 198.441 37.822 271.36 100.416l-0.557-0.467 250.605-250.579zM84.41 523.328c0 194.903 158 352.902 352.902 352.902s352.902-158 352.902-352.902v0c0-194.903-158-352.902-352.902-352.902s-352.902 158-352.902 352.902v0z" />
<glyph unicode="&#xe98b;" glyph-name="send" data-tags="send" d="M511.904 672l-448 224 128-448-128-448 896 448zM165.408 773.709l587.392-293.709h-503.488zM483.283 281.235l-317.882-158.944 83.898 293.709h503.501z" />
<glyph unicode="&#xe98c;" glyph-name="server" data-tags="server" d="M128.032-64h767.968v1024h-767.968zM192.032 896h639.968v-256h-639.968zM192.032 576h639.968v-256h-639.968zM192.032 256h639.968v-256h-639.968zM640.032 512h128v-64h-128v64zM640.032 832h128v-64h-128v64zM640.032 192h128v-64h-128v64z" />
<glyph unicode="&#xe98d;" glyph-name="settings" data-tags="settings" d="M893.76 576.531c-7.046 20.753-14.487 38.116-23.066 54.797l1.050-2.247 91.923 91.93-180.083 180.077-92.090-92.083c-14.457 7.416-31.882 14.741-49.879 20.823l-2.825 0.829v129.92h-254.682v-130.182c-20.746-7.044-38.104-14.485-54.781-23.065l2.243 1.049-91.936 91.93-180.083-180.083 92.083-92.083c-7.427-14.471-14.753-31.901-20.828-49.905l-0.823-2.812h-129.952v-254.675h130.208c7.052-20.756 14.493-38.116 23.068-54.797l-1.052 2.253-91.923-91.93 180.083-180.115 92.083 92.083c14.465-7.422 31.892-14.748 49.893-20.826l2.817-0.826v-129.952h254.72v130.246c20.748 7.041 38.111 14.482 54.792 23.064l-2.241-1.048 91.917-91.93 180.083 180.090-92.083 92.077c7.42 14.465 14.746 31.894 20.825 49.897l0.826 2.82h129.952v254.675zM960 385.856h-114.765c-9.121-48.433-27.374-91.412-53.006-128.952l0.75 1.163 80.986-80.979-89.6-89.6-80.902 80.909c-35.793-24.799-78.051-43.159-123.634-52.329l-2.158-0.362c-0.64-0.115-1.146-0.397-1.754-0.506v-114.56h-126.707v114.765c-48.426 9.12-91.397 27.381-128.923 53.024l1.16-0.748-81.030-80.979-89.6 89.6 80.915 80.909c-11.566 16.636-22.212 35.628-30.978 55.63l-0.85 2.174-0.077 0.134c-8.533 19.386-15.722 42.12-20.441 65.746l-0.359 2.152c-0.109 0.595-0.39 1.126-0.499 1.728h-114.496v126.65h114.733c9.128 48.437 27.388 91.417 53.025 128.958l-0.75-1.163-80.986 81.005 89.6 89.6 80.883-80.934c35.804 24.805 78.075 43.167 123.672 52.335l2.158 0.362c0.602 0.109 1.133 0.378 1.734 0.486v114.534h126.688v-114.733c48.433-9.119 91.41-27.38 128.943-53.024l-1.161 0.749 80.986 80.986 89.6-89.6-80.915-80.89c24.814-35.806 43.179-78.082 52.342-123.687l0.362-2.156c0.122-0.589 0.39-1.12 0.499-1.722h114.554zM512 601.472c-84.424 0-152.864-68.44-152.864-152.864s68.44-152.864 152.864-152.864c84.424 0 152.864 68.44 152.864 152.864v0c-0.098 84.385-68.479 152.766-152.855 152.864h-0.009zM512 359.744c-49.078 0-88.864 39.786-88.864 88.864s39.786 88.864 88.864 88.864c49.078 0 88.864-39.786 88.864-88.864v0c-0.004-49.077-39.787-88.86-88.864-88.864v0z" />
<glyph unicode="&#xe98e;" glyph-name="severity-cleared" data-tags="severity-cleared" d="M1024 447.994c0-282.77-229.23-512-512-512s-512 229.23-512 512c0 282.77 229.23 512 512 512s512-229.23 512-512z" />
<glyph unicode="&#xe98f;" glyph-name="severity-critical" data-tags="severity-critical" d="M64-1.792h899.584l-449.856 449.792 449.856 449.792h-899.584v-899.584z" />
<glyph unicode="&#xe990;" glyph-name="severity-indeterminate" data-tags="severity-indeterminate" d="M64.525 895.994h896v-896h-896v896z" />
<glyph unicode="&#xe991;" glyph-name="severity-major" data-tags="severity-major" d="M64 0h896v896l-448-448.064-448 448.064v-896z" />
<glyph unicode="&#xe992;" glyph-name="severity-minor" data-tags="severity-minor" d="M515.264 447.936l-223.488 447.168-223.616-447.104v-447.104h894.208v447.104l-223.552 447.104-223.552-447.168z" />
<glyph unicode="&#xe993;" glyph-name="severity-warning" data-tags="severity-warning" d="M64.896 448l149.056-447.104 298.048 447.168 298.048-447.168 149.056 446.464v447.744h-894.208v-447.104z" />
<glyph unicode="&#xe994;" glyph-name="shapes" data-tags="shapes" d="M499.341 481.062c114.988 0 208.205-93.216 208.205-208.205s-93.216-208.205-208.205-208.205c-114.988 0-208.205 93.216-208.205 208.205v0c0.131 114.936 93.269 208.074 208.192 208.205h0.013zM499.341 545.062c-150.335 0-272.205-121.87-272.205-272.205s121.87-272.205 272.205-272.205c150.335 0 272.205 121.87 272.205 272.205v0c0 150.335-121.87 272.205-272.205 272.205v0zM617.664 587.008l81.92 155.968 153.6-292.416h-68.8l30.592-64h144.128l-259.52 494.016-145.152-276.352 63.232-17.216zM128.896 831.36h380.288v-175.744l64 121.856v117.888h-508.288v-508.288h118.976l30.784 64h-85.76v380.288z" />
<glyph unicode="&#xe995;" glyph-name="share" data-tags="share" d="M742.003 548.909c85.647 0.015 155.072 69.449 155.072 155.098 0 85.658-69.44 155.098-155.098 155.098s-155.098-69.44-155.098-155.098c0-0.002 0-0.005 0-0.007v0c0.24-16.212 2.961-31.706 7.8-46.233l-0.312 1.081-226.944-125.658c-28.628 33.687-71.030 54.919-118.392 54.919-85.644 0-155.072-69.428-155.072-155.072s69.428-155.072 155.072-155.072c49.273 0 93.178 22.98 121.583 58.807l0.246 0.322 221.139-107.59c-3.094-11.206-4.951-24.101-5.119-37.404l-0.001-0.1c-0.006-0.52-0.010-1.135-0.010-1.75 0-86.648 70.242-156.89 156.89-156.89s156.89 70.242 156.89 156.89c0 86.648-70.242 156.89-156.89 156.89-50.046 0-94.618-23.432-123.345-59.924l-0.255-0.336-220.595 107.405c3.489 11.608 5.498 24.947 5.498 38.756 0 15.691-2.593 30.776-7.374 44.85l0.29-0.982 227.379 125.939c28.341-32.979 70.049-53.782 116.619-53.939h0.028zM742.003 795.098c50.301-0.015 91.072-40.795 91.072-91.098 0-50.312-40.786-91.098-91.098-91.098s-91.098 40.786-91.098 91.098v0c0.066 50.294 40.827 91.047 91.118 91.098h0.005zM249.939 341.978c-50.301 0.015-91.072 40.795-91.072 91.098 0 50.312 40.786 91.098 91.098 91.098s91.098-40.786 91.098-91.098c0-0.013 0-0.027 0-0.040v0.002c-0.076-50.284-40.835-91.022-91.119-91.066h-0.004zM742.003 283.168c0.002 0 0.004 0 0.006 0 50.329 0 91.13-40.8 91.13-91.13s-40.8-91.13-91.13-91.13c-50.316 0-91.108 40.778-91.13 91.089v0.002c0.036 50.319 40.807 91.103 91.118 91.162h0.006z" />
<glyph unicode="&#xe996;" glyph-name="shopping-cart" data-tags="shopping-cart" d="M1022.72 767.36h-813.92l-12.218 128.224-195.040 0.141v-64l136.858-0.141 67.155-704.998h86.56c-0.002-0.267-0.003-0.583-0.003-0.899 0-69.745 56.54-126.285 126.285-126.285s126.285 56.54 126.285 126.285c0 0.316-0.001 0.632-0.003 0.947v-0.048h81.882c0-1.773-0.39-3.462-0.314-5.248 2.972-67.425 58.313-120.974 126.18-121.062h0.009c1.715 0 3.469 0 5.216 0.064 67.644 2.689 121.462 58.178 121.462 126.236 0 69.77-56.56 126.33-126.33 126.33-46.169 0-86.554-24.767-108.592-61.74l-0.32-0.579h-117.235c-22.103 37.491-62.28 62.25-108.24 62.25s-86.137-24.759-107.921-61.666l-0.319-0.584h-46.413l-12.646 132.691h720.486zM749.85 188.8c0.838 0.064 1.715 0.064 2.56 0.064 34.346-0.066 62.163-27.923 62.163-62.278 0-33.454-26.378-60.748-59.471-62.216l-0.132-0.005c-1.052-0.064-2.283-0.101-3.521-0.101-33.303 0-60.405 26.552-61.29 59.642l-0.002 0.082c-0.031 0.74-0.049 1.608-0.049 2.481 0 33.532 26.455 60.885 59.631 62.327l0.13 0.004zM418.381 188.864c34.399 0 62.285-27.886 62.285-62.285s-27.886-62.285-62.285-62.285c-34.399 0-62.285 27.886-62.285 62.285 0 0.011 0 0.022 0 0.034v-0.002c0.066 34.368 27.93 62.205 62.302 62.227h0.002zM914.502 387.302h-669.498l-30.106 316.058h736z" />
</font>
</defs>
</svg>
